<?xml version="1.0" encoding="UTF-8"?>
<!DOCTYPE svg PUBLIC "-//W3C//DTD SVG 1.1//EN" "http://www.w3.org/Graphics/SVG/1.1/DTD/svg11.dtd">
<!-- Creator: CorelDRAW 2017 -->
<svg xmlns="http://www.w3.org/2000/svg" xml:space="preserve" width="200px" height="200px" version="1.1" style="shape-rendering:geometricPrecision; text-rendering:geometricPrecision; image-rendering:optimizeQuality; fill-rule:evenodd; clip-rule:evenodd"
viewBox="0 0 205.74 205.74"
 xmlns:xlink="http://www.w3.org/1999/xlink">
 <defs>
  <style type="text/css">
   <![CDATA[
    .str0 {stroke:black;stroke-width:0.27}
    .str1 {stroke:#04FAFB;stroke-width:0.27}
    .fil2 {fill:#04FAFB}
    .fil1 {fill:#04FAFB}
    .fil3 {fill:#05FAFB}
    .fil4 {fill:#06FAFB}
    .fil5 {fill:#07FAFB}
    .fil6 {fill:#08FAFB}
    .fil7 {fill:#09FAFB}
    .fil8 {fill:#0AFAFB}
    .fil9 {fill:#0BFAFB}
    .fil10 {fill:#0CFAFB}
    .fil11 {fill:#0DFAFB}
    .fil12 {fill:#0EFAFB}
    .fil13 {fill:#0FFAFB}
    .fil14 {fill:#10FAFB}
    .fil15 {fill:#11FAFB}
    .fil0 {fill:#121F2F}
    .fil16 {fill:#12FAFB}
    .fil17 {fill:#13FAFB}
    .fil18 {fill:#14FAFB}
    .fil19 {fill:#15FAFB}
    .fil20 {fill:#16FAFB}
    .fil21 {fill:#17FAFB}
    .fil22 {fill:#18FAFB}
    .fil23 {fill:#19FAFB}
    .fil24 {fill:#1AFAFB}
    .fil25 {fill:#1BFAFB}
    .fil26 {fill:#1CFAFB}
    .fil27 {fill:#1DFAFB}
    .fil28 {fill:#1EFBFB}
    .fil29 {fill:#1FFBFB}
    .fil30 {fill:#20FBFB}
    .fil31 {fill:#21FBFB}
    .fil32 {fill:#22FBFB}
    .fil33 {fill:#23FBFB}
    .fil34 {fill:#24FBFC}
    .fil35 {fill:#25FBFC}
    .fil36 {fill:#26FBFC}
    .fil37 {fill:#27FBFC}
    .fil38 {fill:#28FBFC}
    .fil39 {fill:#29FBFC}
    .fil40 {fill:#2AFBFC}
    .fil41 {fill:#2BFBFC}
    .fil42 {fill:#2CFBFC}
    .fil43 {fill:#2DFBFC}
    .fil44 {fill:#2EFBFC}
    .fil45 {fill:#2FFBFC}
    .fil46 {fill:#30FBFC}
    .fil47 {fill:#31FBFC}
    .fil48 {fill:#32FBFC}
    .fil49 {fill:#33FBFC}
    .fil50 {fill:#34FBFC}
    .fil51 {fill:#35FBFC}
    .fil52 {fill:#36FBFC}
    .fil53 {fill:#37FBFC}
    .fil54 {fill:#38FBFC}
    .fil55 {fill:#39FBFC}
    .fil56 {fill:#3AFBFC}
    .fil57 {fill:#3BFBFC}
    .fil58 {fill:#3CFBFC}
    .fil59 {fill:#3DFBFC}
    .fil60 {fill:#3EFBFC}
    .fil61 {fill:#3FFBFC}
    .fil62 {fill:#40FBFC}
    .fil63 {fill:#41FBFC}
    .fil64 {fill:#42FBFC}
    .fil65 {fill:#43FBFC}
    .fil66 {fill:#44FBFC}
    .fil67 {fill:#45FBFC}
    .fil68 {fill:#46FBFC}
    .fil69 {fill:#47FBFC}
    .fil70 {fill:#48FBFC}
    .fil71 {fill:#49FBFC}
    .fil72 {fill:#4AFBFC}
    .fil73 {fill:#4BFBFC}
    .fil74 {fill:#4CFBFC}
    .fil75 {fill:#4DFBFC}
    .fil76 {fill:#4EFBFC}
    .fil77 {fill:#4FFBFC}
    .fil78 {fill:#50FCFC}
    .fil79 {fill:#51FCFC}
    .fil80 {fill:#52FCFC}
    .fil81 {fill:#53FCFC}
    .fil82 {fill:#54FCFC}
    .fil83 {fill:#55FCFC}
    .fil84 {fill:#56FCFC}
    .fil85 {fill:#57FCFC}
    .fil86 {fill:#58FCFC}
    .fil87 {fill:#59FCFC}
    .fil88 {fill:#5AFCFC}
    .fil89 {fill:#5BFCFC}
    .fil90 {fill:#5CFCFC}
    .fil91 {fill:#5DFCFC}
    .fil92 {fill:#5EFCFC}
    .fil93 {fill:#5FFCFC}
    .fil94 {fill:#60FCFC}
    .fil95 {fill:#61FCFC}
    .fil96 {fill:#62FCFD}
    .fil97 {fill:#63FCFD}
    .fil98 {fill:#64FCFD}
    .fil99 {fill:#65FCFD}
    .fil100 {fill:#66FCFD}
    .fil101 {fill:#67FCFD}
    .fil102 {fill:#68FCFD}
    .fil103 {fill:#69FCFD}
    .fil104 {fill:#6AFCFD}
    .fil105 {fill:#6CFCFD}
    .fil106 {fill:#6DFCFD}
    .fil107 {fill:#6EFCFD}
    .fil108 {fill:#6FFCFD}
    .fil109 {fill:#70FCFD}
    .fil110 {fill:#71FCFD}
    .fil111 {fill:#72FCFD}
    .fil112 {fill:#73FCFD}
    .fil113 {fill:#74FCFD}
    .fil114 {fill:#75FCFD}
    .fil115 {fill:#76FCFD}
    .fil116 {fill:#77FCFD}
    .fil117 {fill:#78FCFD}
    .fil118 {fill:#79FCFD}
    .fil119 {fill:#7AFCFD}
    .fil120 {fill:#7CFCFD}
    .fil121 {fill:#7DFCFD}
    .fil122 {fill:#7EFCFD}
    .fil123 {fill:#7FFCFD}
    .fil124 {fill:#80FCFD}
    .fil125 {fill:#81FCFD}
    .fil126 {fill:#82FDFD}
    .fil127 {fill:#83FDFD}
    .fil128 {fill:#84FDFD}
    .fil129 {fill:#85FDFD}
    .fil130 {fill:#87FDFD}
    .fil131 {fill:#88FDFD}
    .fil132 {fill:#89FDFD}
    .fil133 {fill:#8AFDFD}
    .fil134 {fill:#8BFDFD}
    .fil135 {fill:#8CFDFD}
    .fil136 {fill:#8DFDFD}
    .fil137 {fill:#8EFDFD}
    .fil138 {fill:#8FFDFD}
    .fil139 {fill:#90FDFD}
    .fil140 {fill:#91FDFD}
    .fil141 {fill:#92FDFD}
    .fil142 {fill:#93FDFD}
    .fil143 {fill:#94FDFD}
    .fil144 {fill:#95FDFD}
    .fil145 {fill:#96FDFD}
    .fil146 {fill:#97FDFD}
    .fil147 {fill:#98FDFD}
    .fil148 {fill:#99FDFD}
    .fil149 {fill:#9AFDFD}
    .fil150 {fill:#9BFDFD}
    .fil151 {fill:#9CFDFD}
    .fil152 {fill:#9DFDFD}
    .fil153 {fill:#9EFDFD}
    .fil154 {fill:#9FFDFD}
    .fil155 {fill:#A0FDFD}
    .fil156 {fill:#A1FDFD}
    .fil157 {fill:#A1FDFE}
    .fil158 {fill:#A2FDFE}
    .fil159 {fill:#A3FDFE}
    .fil160 {fill:#A4FDFE}
    .fil161 {fill:#A5FDFE}
    .fil162 {fill:#A6FDFE}
    .fil163 {fill:#A7FDFE}
    .fil164 {fill:#A8FDFE}
    .fil165 {fill:#A9FDFE}
    .fil166 {fill:#AAFDFE}
    .fil167 {fill:#ABFDFE}
    .fil168 {fill:#ACFDFE}
    .fil169 {fill:#ADFDFE}
    .fil170 {fill:#AEFDFE}
    .fil171 {fill:#AFFDFE}
    .fil172 {fill:#B0FDFE}
    .fil173 {fill:#B1FDFE}
    .fil174 {fill:#B2FDFE}
    .fil175 {fill:#B3FDFE}
    .fil176 {fill:#B4FEFE}
    .fil177 {fill:#B5FEFE}
    .fil178 {fill:#B6FEFE}
    .fil179 {fill:#B7FEFE}
    .fil180 {fill:#B8FEFE}
    .fil181 {fill:#B9FEFE}
    .fil182 {fill:#BAFEFE}
    .fil183 {fill:#BBFEFE}
    .fil184 {fill:#BCFEFE}
    .fil185 {fill:#BDFEFE}
    .fil186 {fill:#BEFEFE}
    .fil187 {fill:#BFFEFE}
    .fil188 {fill:#C0FEFE}
    .fil189 {fill:#C1FEFE}
    .fil190 {fill:#C2FEFE}
    .fil191 {fill:#C3FEFE}
    .fil192 {fill:#C4FEFE}
    .fil193 {fill:#C5FEFE}
    .fil194 {fill:#C6FEFE}
    .fil195 {fill:#C7FEFE}
    .fil196 {fill:#C8FEFE}
    .fil197 {fill:#C9FEFE}
    .fil198 {fill:#CAFEFE}
    .fil199 {fill:#CBFEFE}
    .fil200 {fill:#CCFEFE}
    .fil201 {fill:#CDFEFE}
    .fil202 {fill:#CEFEFE}
    .fil203 {fill:#CFFEFE}
    .fil204 {fill:#D0FEFE}
    .fil205 {fill:#D1FEFE}
    .fil206 {fill:#D2FEFE}
    .fil207 {fill:#D3FEFE}
    .fil208 {fill:#D4FEFE}
    .fil209 {fill:#D5FEFE}
    .fil210 {fill:#D6FEFE}
    .fil211 {fill:#D7FEFE}
    .fil212 {fill:#D8FEFE}
    .fil213 {fill:#D9FEFE}
    .fil214 {fill:#DAFEFE}
    .fil215 {fill:#DBFEFE}
    .fil216 {fill:#DCFEFE}
    .fil217 {fill:#DDFEFE}
    .fil218 {fill:#DEFEFE}
    .fil219 {fill:#DFFEFE}
    .fil220 {fill:#E0FEFF}
    .fil221 {fill:#E1FEFF}
    .fil222 {fill:#E2FEFF}
    .fil223 {fill:#E3FEFF}
    .fil224 {fill:#E4FEFF}
    .fil225 {fill:#E5FEFF}
    .fil226 {fill:#E6FEFF}
    .fil227 {fill:#E6FFFF}
    .fil228 {fill:#E7FFFF}
    .fil229 {fill:#E8FFFF}
    .fil230 {fill:#E9FFFF}
    .fil231 {fill:#EAFFFF}
    .fil232 {fill:#EBFFFF}
    .fil233 {fill:#ECFFFF}
    .fil234 {fill:#EDFFFF}
    .fil235 {fill:#EEFFFF}
    .fil236 {fill:#EFFFFF}
    .fil237 {fill:azure}
    .fil238 {fill:#F1FFFF}
    .fil239 {fill:#F2FFFF}
    .fil240 {fill:#F3FFFF}
    .fil241 {fill:#F4FFFF}
    .fil242 {fill:#F5FFFF}
    .fil243 {fill:#F6FFFF}
    .fil244 {fill:#F7FFFF}
    .fil245 {fill:#F8FFFF}
    .fil246 {fill:#F9FFFF}
    .fil247 {fill:#FAFFFF}
    .fil248 {fill:#FBFFFF}
    .fil249 {fill:#FCFFFF}
    .fil250 {fill:#FDFFFF}
    .fil251 {fill:#FEFFFF}
    .fil252 {fill:white}
   ]]>
  </style>
     <clipPath id="id0">
      <path d="M156.2 139.7c-13.44,-23.26 -23.44,-48.53 -36.12,-72.27 -2.36,-4.43 -4.45,-9.02 -6.8,-13.43 -2.35,-4.42 -4.93,-6.86 -10.23,-6.81 -7.28,0.06 -9.45,7 -12.17,12.48 -12.54,25.27 -26.06,49.94 -38.83,75.06 -1.45,2.85 -3.59,6.13 -4.72,9 -1.46,3.72 -1.02,7.87 1.47,11.05 4.64,5.93 13.7,4.47 17.66,-1.49 1.62,-2.43 2.84,-5.79 4.31,-8.46 2.95,-5.41 5.66,-11.47 8.26,-17.08 5.72,-12.35 11.46,-25.14 17.88,-37.13 1.78,-3.33 3.73,-6.85 5.9,-9.94 3.85,4.92 7.82,13.09 10.56,18.77 6.76,13.94 12.77,28.36 19.71,42.18 1.84,3.65 5.66,11.36 8.79,13.93 4.95,4.05 12.45,3.93 16.04,-1.87 2.8,-4.52 0.69,-9.82 -1.71,-13.99z"/>
     </clipPath>
 </defs>
 <g id="Layer_x0020_1">
  <metadata id="CorelCorpID_0Corel-Layer"/>
  <rect class="fil0 str0" x="0.13" y="0.13" width="205.48" height="205.48" rx="15.73" ry="15.7"/>
  <g id="_1634431729760">
   <g>
    <g style="clip-path:url(#id0)">
     <polygon class="fil1" points="45.87,160.71 45.87,158.45 160.71,158.45 160.71,160.71 "/>
     <polygon id="1" class="fil2" points="45.87,158.56 45.87,158.23 160.71,158.23 160.71,158.56 "/>
     <polygon id="2" class="fil2" points="45.87,158.34 45.87,158.02 160.71,158.02 160.71,158.34 "/>
     <polygon id="3" class="fil2" points="45.87,158.12 45.87,157.8 160.71,157.8 160.71,158.12 "/>
     <polygon id="4" class="fil2" points="45.87,157.91 45.87,157.58 160.71,157.58 160.71,157.91 "/>
     <polygon id="5" class="fil2" points="45.87,157.69 45.87,157.36 160.71,157.36 160.71,157.69 "/>
     <polygon id="6" class="fil2" points="45.87,157.47 45.87,157.15 160.71,157.15 160.71,157.47 "/>
     <polygon id="7" class="fil2" points="45.87,157.25 45.87,156.93 160.71,156.93 160.71,157.25 "/>
     <polygon id="8" class="fil2" points="45.87,157.04 45.87,156.71 160.71,156.71 160.71,157.04 "/>
     <polygon id="9" class="fil2" points="45.87,156.82 45.87,156.49 160.71,156.49 160.71,156.82 "/>
     <polygon id="10" class="fil2" points="45.87,156.6 45.87,156.28 160.71,156.28 160.71,156.6 "/>
     <polygon id="11" class="fil2" points="45.87,156.38 45.87,156.06 160.71,156.06 160.71,156.38 "/>
     <polygon id="12" class="fil2" points="45.87,156.17 45.87,155.84 160.71,155.84 160.71,156.17 "/>
     <polygon id="13" class="fil3" points="45.87,155.95 45.87,155.62 160.71,155.62 160.71,155.95 "/>
     <polygon id="14" class="fil3" points="45.87,155.73 45.87,155.41 160.71,155.41 160.71,155.73 "/>
     <polygon id="15" class="fil3" points="45.87,155.51 45.87,155.19 160.71,155.19 160.71,155.51 "/>
     <polygon id="16" class="fil3" points="45.87,155.3 45.87,154.97 160.71,154.97 160.71,155.3 "/>
     <polygon id="17" class="fil3" points="45.87,155.08 45.87,154.75 160.71,154.75 160.71,155.08 "/>
     <polygon id="18" class="fil3" points="45.87,154.86 45.87,154.54 160.71,154.54 160.71,154.86 "/>
     <polygon id="19" class="fil3" points="45.87,154.64 45.87,154.32 160.71,154.32 160.71,154.64 "/>
     <polygon id="20" class="fil3" points="45.87,154.43 45.87,154.1 160.71,154.1 160.71,154.43 "/>
     <polygon id="21" class="fil3" points="45.87,154.21 45.87,153.88 160.71,153.88 160.71,154.21 "/>
     <polygon id="22" class="fil4" points="45.87,153.99 45.87,153.67 160.71,153.67 160.71,153.99 "/>
     <polygon id="23" class="fil4" points="45.87,153.77 45.87,153.45 160.71,153.45 160.71,153.77 "/>
     <polygon id="24" class="fil4" points="45.87,153.56 45.87,153.23 160.71,153.23 160.71,153.56 "/>
     <polygon id="25" class="fil4" points="45.87,153.34 45.87,153.01 160.71,153.01 160.71,153.34 "/>
     <polygon id="26" class="fil4" points="45.87,153.12 45.87,152.8 160.71,152.8 160.71,153.12 "/>
     <polygon id="27" class="fil4" points="45.87,152.9 45.87,152.58 160.71,152.58 160.71,152.9 "/>
     <polygon id="28" class="fil4" points="45.87,152.69 45.87,152.36 160.71,152.36 160.71,152.69 "/>
     <polygon id="29" class="fil5" points="45.87,152.47 45.87,152.14 160.71,152.14 160.71,152.47 "/>
     <polygon id="30" class="fil5" points="45.87,152.25 45.87,151.93 160.71,151.93 160.71,152.25 "/>
     <polygon id="31" class="fil5" points="45.87,152.03 45.87,151.71 160.71,151.71 160.71,152.03 "/>
     <polygon id="32" class="fil5" points="45.87,151.82 45.87,151.49 160.71,151.49 160.71,151.82 "/>
     <polygon id="33" class="fil5" points="45.87,151.6 45.87,151.27 160.71,151.27 160.71,151.6 "/>
     <polygon id="34" class="fil6" points="45.87,151.38 45.87,151.06 160.71,151.06 160.71,151.38 "/>
     <polygon id="35" class="fil6" points="45.87,151.16 45.87,150.84 160.71,150.84 160.71,151.16 "/>
     <polygon id="36" class="fil6" points="45.87,150.95 45.87,150.62 160.71,150.62 160.71,150.95 "/>
     <polygon id="37" class="fil6" points="45.87,150.73 45.87,150.4 160.71,150.4 160.71,150.73 "/>
     <polygon id="38" class="fil7" points="45.87,150.51 45.87,150.19 160.71,150.19 160.71,150.51 "/>
     <polygon id="39" class="fil7" points="45.87,150.29 45.87,149.97 160.71,149.97 160.71,150.29 "/>
     <polygon id="40" class="fil7" points="45.87,150.08 45.87,149.75 160.71,149.75 160.71,150.08 "/>
     <polygon id="41" class="fil7" points="45.87,149.86 45.87,149.53 160.71,149.53 160.71,149.86 "/>
     <polygon id="42" class="fil8" points="45.87,149.64 45.87,149.31 160.71,149.31 160.71,149.64 "/>
     <polygon id="43" class="fil8" points="45.87,149.42 45.87,149.1 160.71,149.1 160.71,149.42 "/>
     <polygon id="44" class="fil8" points="45.87,149.21 45.87,148.88 160.71,148.88 160.71,149.21 "/>
     <polygon id="45" class="fil8" points="45.87,148.99 45.87,148.66 160.71,148.66 160.71,148.99 "/>
     <polygon id="46" class="fil9" points="45.87,148.77 45.87,148.44 160.71,148.44 160.71,148.77 "/>
     <polygon id="47" class="fil9" points="45.87,148.55 45.87,148.23 160.71,148.23 160.71,148.55 "/>
     <polygon id="48" class="fil9" points="45.87,148.34 45.87,148.01 160.71,148.01 160.71,148.34 "/>
     <polygon id="49" class="fil10" points="45.87,148.12 45.87,147.79 160.71,147.79 160.71,148.12 "/>
     <polygon id="50" class="fil10" points="45.87,147.9 45.87,147.57 160.71,147.57 160.71,147.9 "/>
     <polygon id="51" class="fil10" points="45.87,147.68 45.87,147.36 160.71,147.36 160.71,147.68 "/>
     <polygon id="52" class="fil11" points="45.87,147.47 45.87,147.14 160.71,147.14 160.71,147.47 "/>
     <polygon id="53" class="fil11" points="45.87,147.25 45.87,146.92 160.71,146.92 160.71,147.25 "/>
     <polygon id="54" class="fil11" points="45.87,147.03 45.87,146.7 160.71,146.7 160.71,147.03 "/>
     <polygon id="55" class="fil12" points="45.87,146.81 45.87,146.49 160.71,146.49 160.71,146.81 "/>
     <polygon id="56" class="fil12" points="45.87,146.6 45.87,146.27 160.71,146.27 160.71,146.6 "/>
     <polygon id="57" class="fil12" points="45.87,146.38 45.87,146.05 160.71,146.05 160.71,146.38 "/>
     <polygon id="58" class="fil13" points="45.87,146.16 45.87,145.83 160.71,145.83 160.71,146.16 "/>
     <polygon id="59" class="fil13" points="45.87,145.94 45.87,145.62 160.71,145.62 160.71,145.94 "/>
     <polygon id="60" class="fil13" points="45.87,145.73 45.87,145.4 160.71,145.4 160.71,145.73 "/>
     <polygon id="61" class="fil14" points="45.87,145.51 45.87,145.18 160.71,145.18 160.71,145.51 "/>
     <polygon id="62" class="fil14" points="45.87,145.29 45.87,144.96 160.71,144.96 160.71,145.29 "/>
     <polygon id="63" class="fil15" points="45.87,145.07 45.87,144.75 160.71,144.75 160.71,145.07 "/>
     <polygon id="64" class="fil15" points="45.87,144.86 45.87,144.53 160.71,144.53 160.71,144.86 "/>
     <polygon id="65" class="fil15" points="45.87,144.64 45.87,144.31 160.71,144.31 160.71,144.64 "/>
     <polygon id="66" class="fil16" points="45.87,144.42 45.87,144.09 160.71,144.09 160.71,144.42 "/>
     <polygon id="67" class="fil16" points="45.87,144.2 45.87,143.88 160.71,143.88 160.71,144.2 "/>
     <polygon id="68" class="fil17" points="45.87,143.99 45.87,143.66 160.71,143.66 160.71,143.99 "/>
     <polygon id="69" class="fil17" points="45.87,143.77 45.87,143.44 160.71,143.44 160.71,143.77 "/>
     <polygon id="70" class="fil18" points="45.87,143.55 45.87,143.22 160.71,143.22 160.71,143.55 "/>
     <polygon id="71" class="fil18" points="45.87,143.33 45.87,143.01 160.71,143.01 160.71,143.33 "/>
     <polygon id="72" class="fil18" points="45.87,143.12 45.87,142.79 160.71,142.79 160.71,143.12 "/>
     <polygon id="73" class="fil19" points="45.87,142.9 45.87,142.57 160.71,142.57 160.71,142.9 "/>
     <polygon id="74" class="fil19" points="45.87,142.68 45.87,142.35 160.71,142.35 160.71,142.68 "/>
     <polygon id="75" class="fil20" points="45.87,142.46 45.87,142.14 160.71,142.14 160.71,142.46 "/>
     <polygon id="76" class="fil20" points="45.87,142.25 45.87,141.92 160.71,141.92 160.71,142.25 "/>
     <polygon id="77" class="fil21" points="45.87,142.03 45.87,141.7 160.71,141.7 160.71,142.03 "/>
     <polygon id="78" class="fil21" points="45.87,141.81 45.87,141.48 160.71,141.48 160.71,141.81 "/>
     <polygon id="79" class="fil22" points="45.87,141.59 45.87,141.27 160.71,141.27 160.71,141.59 "/>
     <polygon id="80" class="fil22" points="45.87,141.38 45.87,141.05 160.71,141.05 160.71,141.38 "/>
     <polygon id="81" class="fil23" points="45.87,141.16 45.87,140.83 160.71,140.83 160.71,141.16 "/>
     <polygon id="82" class="fil23" points="45.87,140.94 45.87,140.61 160.71,140.61 160.71,140.94 "/>
     <polygon id="83" class="fil24" points="45.87,140.72 45.87,140.4 160.71,140.4 160.71,140.72 "/>
     <polygon id="84" class="fil24" points="45.87,140.51 45.87,140.18 160.71,140.18 160.71,140.51 "/>
     <polygon id="85" class="fil25" points="45.87,140.29 45.87,139.96 160.71,139.96 160.71,140.29 "/>
     <polygon id="86" class="fil25" points="45.87,140.07 45.87,139.74 160.71,139.74 160.71,140.07 "/>
     <polygon id="87" class="fil26" points="45.87,139.85 45.87,139.53 160.71,139.53 160.71,139.85 "/>
     <polygon id="88" class="fil27" points="45.87,139.63 45.87,139.31 160.71,139.31 160.71,139.63 "/>
     <polygon id="89" class="fil27" points="45.87,139.42 45.87,139.09 160.71,139.09 160.71,139.42 "/>
     <polygon id="90" class="fil28" points="45.87,139.2 45.87,138.87 160.71,138.87 160.71,139.2 "/>
     <polygon id="91" class="fil28" points="45.87,138.98 45.87,138.66 160.71,138.66 160.71,138.98 "/>
     <polygon id="92" class="fil29" points="45.87,138.76 45.87,138.44 160.71,138.44 160.71,138.76 "/>
     <polygon id="93" class="fil29" points="45.87,138.55 45.87,138.22 160.71,138.22 160.71,138.55 "/>
     <polygon id="94" class="fil30" points="45.87,138.33 45.87,138 160.71,138 160.71,138.33 "/>
     <polygon id="95" class="fil31" points="45.87,138.11 45.87,137.79 160.71,137.79 160.71,138.11 "/>
     <polygon id="96" class="fil31" points="45.87,137.89 45.87,137.57 160.71,137.57 160.71,137.89 "/>
     <polygon id="97" class="fil32" points="45.87,137.68 45.87,137.35 160.71,137.35 160.71,137.68 "/>
     <polygon id="98" class="fil32" points="45.87,137.46 45.87,137.13 160.71,137.13 160.71,137.46 "/>
     <polygon id="99" class="fil33" points="45.87,137.24 45.87,136.92 160.71,136.92 160.71,137.24 "/>
     <polygon id="100" class="fil34" points="45.87,137.02 45.87,136.7 160.71,136.7 160.71,137.02 "/>
     <polygon id="101" class="fil34" points="45.87,136.81 45.87,136.48 160.71,136.48 160.71,136.81 "/>
     <polygon id="102" class="fil35" points="45.87,136.59 45.87,136.26 160.71,136.26 160.71,136.59 "/>
     <polygon id="103" class="fil36" points="45.87,136.37 45.87,136.05 160.71,136.05 160.71,136.37 "/>
     <polygon id="104" class="fil36" points="45.87,136.15 45.87,135.83 160.71,135.83 160.71,136.15 "/>
     <polygon id="105" class="fil37" points="45.87,135.94 45.87,135.61 160.71,135.61 160.71,135.94 "/>
     <polygon id="106" class="fil38" points="45.87,135.72 45.87,135.39 160.71,135.39 160.71,135.72 "/>
     <polygon id="107" class="fil38" points="45.87,135.5 45.87,135.18 160.71,135.18 160.71,135.5 "/>
     <polygon id="108" class="fil39" points="45.87,135.28 45.87,134.96 160.71,134.96 160.71,135.28 "/>
     <polygon id="109" class="fil40" points="45.87,135.07 45.87,134.74 160.71,134.74 160.71,135.07 "/>
     <polygon id="110" class="fil40" points="45.87,134.85 45.87,134.52 160.71,134.52 160.71,134.85 "/>
     <polygon id="111" class="fil41" points="45.87,134.63 45.87,134.31 160.71,134.31 160.71,134.63 "/>
     <polygon id="112" class="fil42" points="45.87,134.41 45.87,134.09 160.71,134.09 160.71,134.41 "/>
     <polygon id="113" class="fil42" points="45.87,134.2 45.87,133.87 160.71,133.87 160.71,134.2 "/>
     <polygon id="114" class="fil43" points="45.87,133.98 45.87,133.65 160.71,133.65 160.71,133.98 "/>
     <polygon id="115" class="fil44" points="45.87,133.76 45.87,133.44 160.71,133.44 160.71,133.76 "/>
     <polygon id="116" class="fil44" points="45.87,133.54 45.87,133.22 160.71,133.22 160.71,133.54 "/>
     <polygon id="117" class="fil45" points="45.87,133.33 45.87,133 160.71,133 160.71,133.33 "/>
     <polygon id="118" class="fil46" points="45.87,133.11 45.87,132.78 160.71,132.78 160.71,133.11 "/>
     <polygon id="119" class="fil47" points="45.87,132.89 45.87,132.57 160.71,132.57 160.71,132.89 "/>
     <polygon id="120" class="fil47" points="45.87,132.67 45.87,132.35 160.71,132.35 160.71,132.67 "/>
     <polygon id="121" class="fil48" points="45.87,132.46 45.87,132.13 160.71,132.13 160.71,132.46 "/>
     <polygon id="122" class="fil49" points="45.87,132.24 45.87,131.91 160.71,131.91 160.71,132.24 "/>
     <polygon id="123" class="fil50" points="45.87,132.02 45.87,131.7 160.71,131.7 160.71,132.02 "/>
     <polygon id="124" class="fil50" points="45.87,131.8 45.87,131.48 160.71,131.48 160.71,131.8 "/>
     <polygon id="125" class="fil51" points="45.87,131.59 45.87,131.26 160.71,131.26 160.71,131.59 "/>
     <polygon id="126" class="fil52" points="45.87,131.37 45.87,131.04 160.71,131.04 160.71,131.37 "/>
     <polygon id="127" class="fil53" points="45.87,131.15 45.87,130.82 160.71,130.82 160.71,131.15 "/>
     <polygon id="128" class="fil54" points="45.87,130.93 45.87,130.61 160.71,130.61 160.71,130.93 "/>
     <polygon id="129" class="fil54" points="45.87,130.72 45.87,130.39 160.71,130.39 160.71,130.72 "/>
     <polygon id="130" class="fil55" points="45.87,130.5 45.87,130.17 160.71,130.17 160.71,130.5 "/>
     <polygon id="131" class="fil56" points="45.87,130.28 45.87,129.95 160.71,129.95 160.71,130.28 "/>
     <polygon id="132" class="fil57" points="45.87,130.06 45.87,129.74 160.71,129.74 160.71,130.06 "/>
     <polygon id="133" class="fil58" points="45.87,129.85 45.87,129.52 160.71,129.52 160.71,129.85 "/>
     <polygon id="134" class="fil58" points="45.87,129.63 45.87,129.3 160.71,129.3 160.71,129.63 "/>
     <polygon id="135" class="fil59" points="45.87,129.41 45.87,129.08 160.71,129.08 160.71,129.41 "/>
     <polygon id="136" class="fil60" points="45.87,129.19 45.87,128.87 160.71,128.87 160.71,129.19 "/>
     <polygon id="137" class="fil61" points="45.87,128.98 45.87,128.65 160.71,128.65 160.71,128.98 "/>
     <polygon id="138" class="fil62" points="45.87,128.76 45.87,128.43 160.71,128.43 160.71,128.76 "/>
     <polygon id="139" class="fil63" points="45.87,128.54 45.87,128.21 160.71,128.21 160.71,128.54 "/>
     <polygon id="140" class="fil63" points="45.87,128.32 45.87,128 160.71,128 160.71,128.32 "/>
     <polygon id="141" class="fil64" points="45.87,128.11 45.87,127.78 160.71,127.78 160.71,128.11 "/>
     <polygon id="142" class="fil65" points="45.87,127.89 45.87,127.56 160.71,127.56 160.71,127.89 "/>
     <polygon id="143" class="fil66" points="45.87,127.67 45.87,127.34 160.71,127.34 160.71,127.67 "/>
     <polygon id="144" class="fil67" points="45.87,127.45 45.87,127.13 160.71,127.13 160.71,127.45 "/>
     <polygon id="145" class="fil68" points="45.87,127.24 45.87,126.91 160.71,126.91 160.71,127.24 "/>
     <polygon id="146" class="fil69" points="45.87,127.02 45.87,126.69 160.71,126.69 160.71,127.02 "/>
     <polygon id="147" class="fil69" points="45.87,126.8 45.87,126.47 160.71,126.47 160.71,126.8 "/>
     <polygon id="148" class="fil70" points="45.87,126.58 45.87,126.26 160.71,126.26 160.71,126.58 "/>
     <polygon id="149" class="fil71" points="45.87,126.37 45.87,126.04 160.71,126.04 160.71,126.37 "/>
     <polygon id="150" class="fil72" points="45.87,126.15 45.87,125.82 160.71,125.82 160.71,126.15 "/>
     <polygon id="151" class="fil73" points="45.87,125.93 45.87,125.6 160.71,125.6 160.71,125.93 "/>
     <polygon id="152" class="fil74" points="45.87,125.71 45.87,125.39 160.71,125.39 160.71,125.71 "/>
     <polygon id="153" class="fil75" points="45.87,125.5 45.87,125.17 160.71,125.17 160.71,125.5 "/>
     <polygon id="154" class="fil76" points="45.87,125.28 45.87,124.95 160.71,124.95 160.71,125.28 "/>
     <polygon id="155" class="fil77" points="45.87,125.06 45.87,124.73 160.71,124.73 160.71,125.06 "/>
     <polygon id="156" class="fil78" points="45.87,124.84 45.87,124.52 160.71,124.52 160.71,124.84 "/>
     <polygon id="157" class="fil79" points="45.87,124.63 45.87,124.3 160.71,124.3 160.71,124.63 "/>
     <polygon id="158" class="fil80" points="45.87,124.41 45.87,124.08 160.71,124.08 160.71,124.41 "/>
     <polygon id="159" class="fil81" points="45.87,124.19 45.87,123.86 160.71,123.86 160.71,124.19 "/>
     <polygon id="160" class="fil81" points="45.87,123.97 45.87,123.65 160.71,123.65 160.71,123.97 "/>
     <polygon id="161" class="fil82" points="45.87,123.76 45.87,123.43 160.71,123.43 160.71,123.76 "/>
     <polygon id="162" class="fil83" points="45.87,123.54 45.87,123.21 160.71,123.21 160.71,123.54 "/>
     <polygon id="163" class="fil84" points="45.87,123.32 45.87,122.99 160.71,122.99 160.71,123.32 "/>
     <polygon id="164" class="fil85" points="45.87,123.1 45.87,122.78 160.71,122.78 160.71,123.1 "/>
     <polygon id="165" class="fil86" points="45.87,122.89 45.87,122.56 160.71,122.56 160.71,122.89 "/>
     <polygon id="166" class="fil87" points="45.87,122.67 45.87,122.34 160.71,122.34 160.71,122.67 "/>
     <polygon id="167" class="fil88" points="45.87,122.45 45.87,122.12 160.71,122.12 160.71,122.45 "/>
     <polygon id="168" class="fil89" points="45.87,122.23 45.87,121.91 160.71,121.91 160.71,122.23 "/>
     <polygon id="169" class="fil90" points="45.87,122.02 45.87,121.69 160.71,121.69 160.71,122.02 "/>
     <polygon id="170" class="fil91" points="45.87,121.8 45.87,121.47 160.71,121.47 160.71,121.8 "/>
     <polygon id="171" class="fil92" points="45.87,121.58 45.87,121.25 160.71,121.25 160.71,121.58 "/>
     <polygon id="172" class="fil93" points="45.87,121.36 45.87,121.04 160.71,121.04 160.71,121.36 "/>
     <polygon id="173" class="fil94" points="45.87,121.14 45.87,120.82 160.71,120.82 160.71,121.14 "/>
     <polygon id="174" class="fil95" points="45.87,120.93 45.87,120.6 160.71,120.6 160.71,120.93 "/>
     <polygon id="175" class="fil96" points="45.87,120.71 45.87,120.38 160.71,120.38 160.71,120.71 "/>
     <polygon id="176" class="fil97" points="45.87,120.49 45.87,120.17 160.71,120.17 160.71,120.49 "/>
     <polygon id="177" class="fil98" points="45.87,120.27 45.87,119.95 160.71,119.95 160.71,120.27 "/>
     <polygon id="178" class="fil99" points="45.87,120.06 45.87,119.73 160.71,119.73 160.71,120.06 "/>
     <polygon id="179" class="fil100" points="45.87,119.84 45.87,119.51 160.71,119.51 160.71,119.84 "/>
     <polygon id="180" class="fil101" points="45.87,119.62 45.87,119.3 160.71,119.3 160.71,119.62 "/>
     <polygon id="181" class="fil102" points="45.87,119.4 45.87,119.08 160.71,119.08 160.71,119.4 "/>
     <polygon id="182" class="fil103" points="45.87,119.19 45.87,118.86 160.71,118.86 160.71,119.19 "/>
     <polygon id="183" class="fil104" points="45.87,118.97 45.87,118.64 160.71,118.64 160.71,118.97 "/>
     <polygon id="184" class="fil105" points="45.87,118.75 45.87,118.43 160.71,118.43 160.71,118.75 "/>
     <polygon id="185" class="fil106" points="45.87,118.53 45.87,118.21 160.71,118.21 160.71,118.53 "/>
     <polygon id="186" class="fil107" points="45.87,118.32 45.87,117.99 160.71,117.99 160.71,118.32 "/>
     <polygon id="187" class="fil108" points="45.87,118.1 45.87,117.77 160.71,117.77 160.71,118.1 "/>
     <polygon id="188" class="fil109" points="45.87,117.88 45.87,117.56 160.71,117.56 160.71,117.88 "/>
     <polygon id="189" class="fil110" points="45.87,117.66 45.87,117.34 160.71,117.34 160.71,117.66 "/>
     <polygon id="190" class="fil111" points="45.87,117.45 45.87,117.12 160.71,117.12 160.71,117.45 "/>
     <polygon id="191" class="fil112" points="45.87,117.23 45.87,116.9 160.71,116.9 160.71,117.23 "/>
     <polygon id="192" class="fil113" points="45.87,117.01 45.87,116.69 160.71,116.69 160.71,117.01 "/>
     <polygon id="193" class="fil114" points="45.87,116.79 45.87,116.47 160.71,116.47 160.71,116.79 "/>
     <polygon id="194" class="fil115" points="45.87,116.58 45.87,116.25 160.71,116.25 160.71,116.58 "/>
     <polygon id="195" class="fil116" points="45.87,116.36 45.87,116.03 160.71,116.03 160.71,116.36 "/>
     <polygon id="196" class="fil117" points="45.87,116.14 45.87,115.82 160.71,115.82 160.71,116.14 "/>
     <polygon id="197" class="fil118" points="45.87,115.92 45.87,115.6 160.71,115.6 160.71,115.92 "/>
     <polygon id="198" class="fil119" points="45.87,115.71 45.87,115.38 160.71,115.38 160.71,115.71 "/>
     <polygon id="199" class="fil120" points="45.87,115.49 45.87,115.16 160.71,115.16 160.71,115.49 "/>
     <polygon id="200" class="fil121" points="45.87,115.27 45.87,114.95 160.71,114.95 160.71,115.27 "/>
     <polygon id="201" class="fil122" points="45.87,115.05 45.87,114.73 160.71,114.73 160.71,115.05 "/>
     <polygon id="202" class="fil123" points="45.87,114.84 45.87,114.51 160.71,114.51 160.71,114.84 "/>
     <polygon id="203" class="fil124" points="45.87,114.62 45.87,114.29 160.71,114.29 160.71,114.62 "/>
     <polygon id="204" class="fil125" points="45.87,114.4 45.87,114.08 160.71,114.08 160.71,114.4 "/>
     <polygon id="205" class="fil126" points="45.87,114.18 45.87,113.86 160.71,113.86 160.71,114.18 "/>
     <polygon id="206" class="fil127" points="45.87,113.97 45.87,113.64 160.71,113.64 160.71,113.97 "/>
     <polygon id="207" class="fil128" points="45.87,113.75 45.87,113.42 160.71,113.42 160.71,113.75 "/>
     <polygon id="208" class="fil129" points="45.87,113.53 45.87,113.21 160.71,113.21 160.71,113.53 "/>
     <polygon id="209" class="fil130" points="45.87,113.31 45.87,112.99 160.71,112.99 160.71,113.31 "/>
     <polygon id="210" class="fil131" points="45.87,113.1 45.87,112.77 160.71,112.77 160.71,113.1 "/>
     <polygon id="211" class="fil132" points="45.87,112.88 45.87,112.55 160.71,112.55 160.71,112.88 "/>
     <polygon id="212" class="fil133" points="45.87,112.66 45.87,112.34 160.71,112.34 160.71,112.66 "/>
     <polygon id="213" class="fil134" points="45.87,112.44 45.87,112.12 160.71,112.12 160.71,112.44 "/>
     <polygon id="214" class="fil135" points="45.87,112.23 45.87,111.9 160.71,111.9 160.71,112.23 "/>
     <polygon id="215" class="fil136" points="45.87,112.01 45.87,111.68 160.71,111.68 160.71,112.01 "/>
     <polygon id="216" class="fil137" points="45.87,111.79 45.87,111.46 160.71,111.46 160.71,111.79 "/>
     <polygon id="217" class="fil138" points="45.87,111.57 45.87,111.25 160.71,111.25 160.71,111.57 "/>
     <polygon id="218" class="fil139" points="45.87,111.36 45.87,111.03 160.71,111.03 160.71,111.36 "/>
     <polygon id="219" class="fil140" points="45.87,111.14 45.87,110.81 160.71,110.81 160.71,111.14 "/>
     <polygon id="220" class="fil141" points="45.87,110.92 45.87,110.59 160.71,110.59 160.71,110.92 "/>
     <polygon id="221" class="fil142" points="45.87,110.7 45.87,110.38 160.71,110.38 160.71,110.7 "/>
     <polygon id="222" class="fil143" points="45.87,110.49 45.87,110.16 160.71,110.16 160.71,110.49 "/>
     <polygon id="223" class="fil144" points="45.87,110.27 45.87,109.94 160.71,109.94 160.71,110.27 "/>
     <polygon id="224" class="fil145" points="45.87,110.05 45.87,109.72 160.71,109.72 160.71,110.05 "/>
     <polygon id="225" class="fil146" points="45.87,109.83 45.87,109.51 160.71,109.51 160.71,109.83 "/>
     <polygon id="226" class="fil147" points="45.87,109.62 45.87,109.29 160.71,109.29 160.71,109.62 "/>
     <polygon id="227" class="fil148" points="45.87,109.4 45.87,109.07 160.71,109.07 160.71,109.4 "/>
     <polygon id="228" class="fil149" points="45.87,109.18 45.87,108.85 160.71,108.85 160.71,109.18 "/>
     <polygon id="229" class="fil150" points="45.87,108.96 45.87,108.64 160.71,108.64 160.71,108.96 "/>
     <polygon id="230" class="fil151" points="45.87,108.75 45.87,108.42 160.71,108.42 160.71,108.75 "/>
     <polygon id="231" class="fil152" points="45.87,108.53 45.87,108.2 160.71,108.2 160.71,108.53 "/>
     <polygon id="232" class="fil153" points="45.87,108.31 45.87,107.98 160.71,107.98 160.71,108.31 "/>
     <polygon id="233" class="fil154" points="45.87,108.09 45.87,107.77 160.71,107.77 160.71,108.09 "/>
     <polygon id="234" class="fil155" points="45.87,107.88 45.87,107.55 160.71,107.55 160.71,107.88 "/>
     <polygon id="235" class="fil156" points="45.87,107.66 45.87,107.33 160.71,107.33 160.71,107.66 "/>
     <polygon id="236" class="fil157" points="45.87,107.44 45.87,107.11 160.71,107.11 160.71,107.44 "/>
     <polygon id="237" class="fil158" points="45.87,107.22 45.87,106.9 160.71,106.9 160.71,107.22 "/>
     <polygon id="238" class="fil159" points="45.87,107.01 45.87,106.68 160.71,106.68 160.71,107.01 "/>
     <polygon id="239" class="fil160" points="45.87,106.79 45.87,106.46 160.71,106.46 160.71,106.79 "/>
     <polygon id="240" class="fil161" points="45.87,106.57 45.87,106.24 160.71,106.24 160.71,106.57 "/>
     <polygon id="241" class="fil162" points="45.87,106.35 45.87,106.03 160.71,106.03 160.71,106.35 "/>
     <polygon id="242" class="fil163" points="45.87,106.14 45.87,105.81 160.71,105.81 160.71,106.14 "/>
     <polygon id="243" class="fil164" points="45.87,105.92 45.87,105.59 160.71,105.59 160.71,105.92 "/>
     <polygon id="244" class="fil165" points="45.87,105.7 45.87,105.37 160.71,105.37 160.71,105.7 "/>
     <polygon id="245" class="fil165" points="45.87,105.48 45.87,105.16 160.71,105.16 160.71,105.48 "/>
     <polygon id="246" class="fil166" points="45.87,105.27 45.87,104.94 160.71,104.94 160.71,105.27 "/>
     <polygon id="247" class="fil167" points="45.87,105.05 45.87,104.72 160.71,104.72 160.71,105.05 "/>
     <polygon id="248" class="fil168" points="45.87,104.83 45.87,104.5 160.71,104.5 160.71,104.83 "/>
     <polygon id="249" class="fil169" points="45.87,104.61 45.87,104.29 160.71,104.29 160.71,104.61 "/>
     <polygon id="250" class="fil170" points="45.87,104.4 45.87,104.07 160.71,104.07 160.71,104.4 "/>
     <polygon id="251" class="fil170" points="45.87,104.18 45.87,103.85 160.71,103.85 160.71,104.18 "/>
     <polygon id="252" class="fil171" points="45.87,103.96 45.87,103.63 160.71,103.63 160.71,103.96 "/>
     <polygon id="253" class="fil172" points="45.87,103.74 45.87,103.42 160.71,103.42 160.71,103.74 "/>
     <polygon id="254" class="fil173" points="45.87,103.53 45.87,103.2 160.71,103.2 160.71,103.53 "/>
     <polygon id="255" class="fil174" points="45.87,103.31 45.87,102.98 160.71,102.98 160.71,103.31 "/>
     <polygon id="256" class="fil175" points="45.87,103.09 45.87,102.76 160.71,102.76 160.71,103.09 "/>
     <polygon id="257" class="fil175" points="45.87,102.87 45.87,102.55 160.71,102.55 160.71,102.87 "/>
     <polygon id="258" class="fil176" points="45.87,102.65 45.87,102.33 160.71,102.33 160.71,102.65 "/>
     <polygon id="259" class="fil177" points="45.87,102.44 45.87,102.11 160.71,102.11 160.71,102.44 "/>
     <polygon id="260" class="fil178" points="45.87,102.22 45.87,101.89 160.71,101.89 160.71,102.22 "/>
     <polygon id="261" class="fil178" points="45.87,102 45.87,101.68 160.71,101.68 160.71,102 "/>
     <polygon id="262" class="fil179" points="45.87,101.78 45.87,101.46 160.71,101.46 160.71,101.78 "/>
     <polygon id="263" class="fil180" points="45.87,101.57 45.87,101.24 160.71,101.24 160.71,101.57 "/>
     <polygon id="264" class="fil181" points="45.87,101.35 45.87,101.02 160.71,101.02 160.71,101.35 "/>
     <polygon id="265" class="fil181" points="45.87,101.13 45.87,100.81 160.71,100.81 160.71,101.13 "/>
     <polygon id="266" class="fil182" points="45.87,100.91 45.87,100.59 160.71,100.59 160.71,100.91 "/>
     <polygon id="267" class="fil183" points="45.87,100.7 45.87,100.37 160.71,100.37 160.71,100.7 "/>
     <polygon id="268" class="fil184" points="45.87,100.48 45.87,100.15 160.71,100.15 160.71,100.48 "/>
     <polygon id="269" class="fil184" points="45.87,100.26 45.87,99.94 160.71,99.94 160.71,100.26 "/>
     <polygon id="270" class="fil185" points="45.87,100.04 45.87,99.72 160.71,99.72 160.71,100.04 "/>
     <polygon id="271" class="fil186" points="45.87,99.83 45.87,99.5 160.71,99.5 160.71,99.83 "/>
     <polygon id="272" class="fil187" points="45.87,99.61 45.87,99.28 160.71,99.28 160.71,99.61 "/>
     <polygon id="273" class="fil187" points="45.87,99.39 45.87,99.07 160.71,99.07 160.71,99.39 "/>
     <polygon id="274" class="fil188" points="45.87,99.17 45.87,98.85 160.71,98.85 160.71,99.17 "/>
     <polygon id="275" class="fil189" points="45.87,98.96 45.87,98.63 160.71,98.63 160.71,98.96 "/>
     <polygon id="276" class="fil189" points="45.87,98.74 45.87,98.41 160.71,98.41 160.71,98.74 "/>
     <polygon id="277" class="fil190" points="45.87,98.52 45.87,98.2 160.71,98.2 160.71,98.52 "/>
     <polygon id="278" class="fil191" points="45.87,98.3 45.87,97.98 160.71,97.98 160.71,98.3 "/>
     <polygon id="279" class="fil191" points="45.87,98.09 45.87,97.76 160.71,97.76 160.71,98.09 "/>
     <polygon id="280" class="fil192" points="45.87,97.87 45.87,97.54 160.71,97.54 160.71,97.87 "/>
     <polygon id="281" class="fil193" points="45.87,97.65 45.87,97.33 160.71,97.33 160.71,97.65 "/>
     <polygon id="282" class="fil193" points="45.87,97.43 45.87,97.11 160.71,97.11 160.71,97.43 "/>
     <polygon id="283" class="fil194" points="45.87,97.22 45.87,96.89 160.71,96.89 160.71,97.22 "/>
     <polygon id="284" class="fil195" points="45.87,97 45.87,96.67 160.71,96.67 160.71,97 "/>
     <polygon id="285" class="fil195" points="45.87,96.78 45.87,96.46 160.71,96.46 160.71,96.78 "/>
     <polygon id="286" class="fil196" points="45.87,96.56 45.87,96.24 160.71,96.24 160.71,96.56 "/>
     <polygon id="287" class="fil197" points="45.87,96.35 45.87,96.02 160.71,96.02 160.71,96.35 "/>
     <polygon id="288" class="fil197" points="45.87,96.13 45.87,95.8 160.71,95.8 160.71,96.13 "/>
     <polygon id="289" class="fil198" points="45.87,95.91 45.87,95.59 160.71,95.59 160.71,95.91 "/>
     <polygon id="290" class="fil198" points="45.87,95.69 45.87,95.37 160.71,95.37 160.71,95.69 "/>
     <polygon id="291" class="fil199" points="45.87,95.48 45.87,95.15 160.71,95.15 160.71,95.48 "/>
     <polygon id="292" class="fil200" points="45.87,95.26 45.87,94.93 160.71,94.93 160.71,95.26 "/>
     <polygon id="293" class="fil200" points="45.87,95.04 45.87,94.72 160.71,94.72 160.71,95.04 "/>
     <polygon id="294" class="fil201" points="45.87,94.82 45.87,94.5 160.71,94.5 160.71,94.82 "/>
     <polygon id="295" class="fil201" points="45.87,94.61 45.87,94.28 160.71,94.28 160.71,94.61 "/>
     <polygon id="296" class="fil202" points="45.87,94.39 45.87,94.06 160.71,94.06 160.71,94.39 "/>
     <polygon id="297" class="fil203" points="45.87,94.17 45.87,93.84 160.71,93.84 160.71,94.17 "/>
     <polygon id="298" class="fil203" points="45.87,93.95 45.87,93.63 160.71,93.63 160.71,93.95 "/>
     <polygon id="299" class="fil204" points="45.87,93.74 45.87,93.41 160.71,93.41 160.71,93.74 "/>
     <polygon id="300" class="fil204" points="45.87,93.52 45.87,93.19 160.71,93.19 160.71,93.52 "/>
     <polygon id="301" class="fil205" points="45.87,93.3 45.87,92.97 160.71,92.97 160.71,93.3 "/>
     <polygon id="302" class="fil205" points="45.87,93.08 45.87,92.76 160.71,92.76 160.71,93.08 "/>
     <polygon id="303" class="fil206" points="45.87,92.87 45.87,92.54 160.71,92.54 160.71,92.87 "/>
     <polygon id="304" class="fil207" points="45.87,92.65 45.87,92.32 160.71,92.32 160.71,92.65 "/>
     <polygon id="305" class="fil207" points="45.87,92.43 45.87,92.1 160.71,92.1 160.71,92.43 "/>
     <polygon id="306" class="fil208" points="45.87,92.21 45.87,91.89 160.71,91.89 160.71,92.21 "/>
     <polygon id="307" class="fil208" points="45.87,92 45.87,91.67 160.71,91.67 160.71,92 "/>
     <polygon id="308" class="fil209" points="45.87,91.78 45.87,91.45 160.71,91.45 160.71,91.78 "/>
     <polygon id="309" class="fil209" points="45.87,91.56 45.87,91.23 160.71,91.23 160.71,91.56 "/>
     <polygon id="310" class="fil210" points="45.87,91.34 45.87,91.02 160.71,91.02 160.71,91.34 "/>
     <polygon id="311" class="fil210" points="45.87,91.13 45.87,90.8 160.71,90.8 160.71,91.13 "/>
     <polygon id="312" class="fil211" points="45.87,90.91 45.87,90.58 160.71,90.58 160.71,90.91 "/>
     <polygon id="313" class="fil211" points="45.87,90.69 45.87,90.36 160.71,90.36 160.71,90.69 "/>
     <polygon id="314" class="fil212" points="45.87,90.47 45.87,90.15 160.71,90.15 160.71,90.47 "/>
     <polygon id="315" class="fil212" points="45.87,90.26 45.87,89.93 160.71,89.93 160.71,90.26 "/>
     <polygon id="316" class="fil213" points="45.87,90.04 45.87,89.71 160.71,89.71 160.71,90.04 "/>
     <polygon id="317" class="fil213" points="45.87,89.82 45.87,89.49 160.71,89.49 160.71,89.82 "/>
     <polygon id="318" class="fil214" points="45.87,89.6 45.87,89.28 160.71,89.28 160.71,89.6 "/>
     <polygon id="319" class="fil214" points="45.87,89.39 45.87,89.06 160.71,89.06 160.71,89.39 "/>
     <polygon id="320" class="fil215" points="45.87,89.17 45.87,88.84 160.71,88.84 160.71,89.17 "/>
     <polygon id="321" class="fil215" points="45.87,88.95 45.87,88.62 160.71,88.62 160.71,88.95 "/>
     <polygon id="322" class="fil216" points="45.87,88.73 45.87,88.41 160.71,88.41 160.71,88.73 "/>
     <polygon id="323" class="fil216" points="45.87,88.52 45.87,88.19 160.71,88.19 160.71,88.52 "/>
     <polygon id="324" class="fil217" points="45.87,88.3 45.87,87.97 160.71,87.97 160.71,88.3 "/>
     <polygon id="325" class="fil217" points="45.87,88.08 45.87,87.75 160.71,87.75 160.71,88.08 "/>
     <polygon id="326" class="fil218" points="45.87,87.86 45.87,87.54 160.71,87.54 160.71,87.86 "/>
     <polygon id="327" class="fil218" points="45.87,87.65 45.87,87.32 160.71,87.32 160.71,87.65 "/>
     <polygon id="328" class="fil218" points="45.87,87.43 45.87,87.1 160.71,87.1 160.71,87.43 "/>
     <polygon id="329" class="fil219" points="45.87,87.21 45.87,86.88 160.71,86.88 160.71,87.21 "/>
     <polygon id="330" class="fil219" points="45.87,86.99 45.87,86.67 160.71,86.67 160.71,86.99 "/>
     <polygon id="331" class="fil220" points="45.87,86.78 45.87,86.45 160.71,86.45 160.71,86.78 "/>
     <polygon id="332" class="fil220" points="45.87,86.56 45.87,86.23 160.71,86.23 160.71,86.56 "/>
     <polygon id="333" class="fil221" points="45.87,86.34 45.87,86.01 160.71,86.01 160.71,86.34 "/>
     <polygon id="334" class="fil221" points="45.87,86.12 45.87,85.8 160.71,85.8 160.71,86.12 "/>
     <polygon id="335" class="fil221" points="45.87,85.91 45.87,85.58 160.71,85.58 160.71,85.91 "/>
     <polygon id="336" class="fil222" points="45.87,85.69 45.87,85.36 160.71,85.36 160.71,85.69 "/>
     <polygon id="337" class="fil222" points="45.87,85.47 45.87,85.14 160.71,85.14 160.71,85.47 "/>
     <polygon id="338" class="fil223" points="45.87,85.25 45.87,84.93 160.71,84.93 160.71,85.25 "/>
     <polygon id="339" class="fil223" points="45.87,85.03 45.87,84.71 160.71,84.71 160.71,85.03 "/>
     <polygon id="340" class="fil223" points="45.87,84.82 45.87,84.49 160.71,84.49 160.71,84.82 "/>
     <polygon id="341" class="fil224" points="45.87,84.6 45.87,84.27 160.71,84.27 160.71,84.6 "/>
     <polygon id="342" class="fil224" points="45.87,84.38 45.87,84.06 160.71,84.06 160.71,84.38 "/>
     <polygon id="343" class="fil225" points="45.87,84.16 45.87,83.84 160.71,83.84 160.71,84.16 "/>
     <polygon id="344" class="fil225" points="45.87,83.95 45.87,83.62 160.71,83.62 160.71,83.95 "/>
     <polygon id="345" class="fil225" points="45.87,83.73 45.87,83.4 160.71,83.4 160.71,83.73 "/>
     <polygon id="346" class="fil226" points="45.87,83.51 45.87,83.19 160.71,83.19 160.71,83.51 "/>
     <polygon id="347" class="fil227" points="45.87,83.29 45.87,82.97 160.71,82.97 160.71,83.29 "/>
     <polygon id="348" class="fil227" points="45.87,83.08 45.87,82.75 160.71,82.75 160.71,83.08 "/>
     <polygon id="349" class="fil228" points="45.87,82.86 45.87,82.53 160.71,82.53 160.71,82.86 "/>
     <polygon id="350" class="fil228" points="45.87,82.64 45.87,82.32 160.71,82.32 160.71,82.64 "/>
     <polygon id="351" class="fil229" points="45.87,82.42 45.87,82.1 160.71,82.1 160.71,82.42 "/>
     <polygon id="352" class="fil229" points="45.87,82.21 45.87,81.88 160.71,81.88 160.71,82.21 "/>
     <polygon id="353" class="fil229" points="45.87,81.99 45.87,81.66 160.71,81.66 160.71,81.99 "/>
     <polygon id="354" class="fil230" points="45.87,81.77 45.87,81.45 160.71,81.45 160.71,81.77 "/>
     <polygon id="355" class="fil230" points="45.87,81.55 45.87,81.23 160.71,81.23 160.71,81.55 "/>
     <polygon id="356" class="fil230" points="45.87,81.34 45.87,81.01 160.71,81.01 160.71,81.34 "/>
     <polygon id="357" class="fil231" points="45.87,81.12 45.87,80.79 160.71,80.79 160.71,81.12 "/>
     <polygon id="358" class="fil231" points="45.87,80.9 45.87,80.58 160.71,80.58 160.71,80.9 "/>
     <polygon id="359" class="fil231" points="45.87,80.68 45.87,80.36 160.71,80.36 160.71,80.68 "/>
     <polygon id="360" class="fil232" points="45.87,80.47 45.87,80.14 160.71,80.14 160.71,80.47 "/>
     <polygon id="361" class="fil232" points="45.87,80.25 45.87,79.92 160.71,79.92 160.71,80.25 "/>
     <polygon id="362" class="fil232" points="45.87,80.03 45.87,79.71 160.71,79.71 160.71,80.03 "/>
     <polygon id="363" class="fil233" points="45.87,79.81 45.87,79.49 160.71,79.49 160.71,79.81 "/>
     <polygon id="364" class="fil233" points="45.87,79.6 45.87,79.27 160.71,79.27 160.71,79.6 "/>
     <polygon id="365" class="fil233" points="45.87,79.38 45.87,79.05 160.71,79.05 160.71,79.38 "/>
     <polygon id="366" class="fil233" points="45.87,79.16 45.87,78.84 160.71,78.84 160.71,79.16 "/>
     <polygon id="367" class="fil234" points="45.87,78.94 45.87,78.62 160.71,78.62 160.71,78.94 "/>
     <polygon id="368" class="fil234" points="45.87,78.73 45.87,78.4 160.71,78.4 160.71,78.73 "/>
     <polygon id="369" class="fil234" points="45.87,78.51 45.87,78.18 160.71,78.18 160.71,78.51 "/>
     <polygon id="370" class="fil235" points="45.87,78.29 45.87,77.97 160.71,77.97 160.71,78.29 "/>
     <polygon id="371" class="fil235" points="45.87,78.07 45.87,77.75 160.71,77.75 160.71,78.07 "/>
     <polygon id="372" class="fil235" points="45.87,77.86 45.87,77.53 160.71,77.53 160.71,77.86 "/>
     <polygon id="373" class="fil236" points="45.87,77.64 45.87,77.31 160.71,77.31 160.71,77.64 "/>
     <polygon id="374" class="fil236" points="45.87,77.42 45.87,77.1 160.71,77.1 160.71,77.42 "/>
     <polygon id="375" class="fil236" points="45.87,77.2 45.87,76.88 160.71,76.88 160.71,77.2 "/>
     <polygon id="376" class="fil236" points="45.87,76.99 45.87,76.66 160.71,76.66 160.71,76.99 "/>
     <polygon id="377" class="fil237" points="45.87,76.77 45.87,76.44 160.71,76.44 160.71,76.77 "/>
     <polygon id="378" class="fil237" points="45.87,76.55 45.87,76.23 160.71,76.23 160.71,76.55 "/>
     <polygon id="379" class="fil237" points="45.87,76.33 45.87,76.01 160.71,76.01 160.71,76.33 "/>
     <polygon id="380" class="fil237" points="45.87,76.12 45.87,75.79 160.71,75.79 160.71,76.12 "/>
     <polygon id="381" class="fil238" points="45.87,75.9 45.87,75.57 160.71,75.57 160.71,75.9 "/>
     <polygon id="382" class="fil238" points="45.87,75.68 45.87,75.35 160.71,75.35 160.71,75.68 "/>
     <polygon id="383" class="fil238" points="45.87,75.46 45.87,75.14 160.71,75.14 160.71,75.46 "/>
     <polygon id="384" class="fil238" points="45.87,75.25 45.87,74.92 160.71,74.92 160.71,75.25 "/>
     <polygon id="385" class="fil239" points="45.87,75.03 45.87,74.7 160.71,74.7 160.71,75.03 "/>
     <polygon id="386" class="fil239" points="45.87,74.81 45.87,74.48 160.71,74.48 160.71,74.81 "/>
     <polygon id="387" class="fil239" points="45.87,74.59 45.87,74.27 160.71,74.27 160.71,74.59 "/>
     <polygon id="388" class="fil239" points="45.87,74.38 45.87,74.05 160.71,74.05 160.71,74.38 "/>
     <polygon id="389" class="fil240" points="45.87,74.16 45.87,73.83 160.71,73.83 160.71,74.16 "/>
     <polygon id="390" class="fil240" points="45.87,73.94 45.87,73.61 160.71,73.61 160.71,73.94 "/>
     <polygon id="391" class="fil240" points="45.87,73.72 45.87,73.4 160.71,73.4 160.71,73.72 "/>
     <polygon id="392" class="fil240" points="45.87,73.51 45.87,73.18 160.71,73.18 160.71,73.51 "/>
     <polygon id="393" class="fil241" points="45.87,73.29 45.87,72.96 160.71,72.96 160.71,73.29 "/>
     <polygon id="394" class="fil241" points="45.87,73.07 45.87,72.74 160.71,72.74 160.71,73.07 "/>
     <polygon id="395" class="fil241" points="45.87,72.85 45.87,72.53 160.71,72.53 160.71,72.85 "/>
     <polygon id="396" class="fil241" points="45.87,72.64 45.87,72.31 160.71,72.31 160.71,72.64 "/>
     <polygon id="397" class="fil241" points="45.87,72.42 45.87,72.09 160.71,72.09 160.71,72.42 "/>
     <polygon id="398" class="fil242" points="45.87,72.2 45.87,71.87 160.71,71.87 160.71,72.2 "/>
     <polygon id="399" class="fil242" points="45.87,71.98 45.87,71.66 160.71,71.66 160.71,71.98 "/>
     <polygon id="400" class="fil242" points="45.87,71.77 45.87,71.44 160.71,71.44 160.71,71.77 "/>
     <polygon id="401" class="fil242" points="45.87,71.55 45.87,71.22 160.71,71.22 160.71,71.55 "/>
     <polygon id="402" class="fil242" points="45.87,71.33 45.87,71 160.71,71 160.71,71.33 "/>
     <polygon id="403" class="fil243" points="45.87,71.11 45.87,70.79 160.71,70.79 160.71,71.11 "/>
     <polygon id="404" class="fil243" points="45.87,70.9 45.87,70.57 160.71,70.57 160.71,70.9 "/>
     <polygon id="405" class="fil243" points="45.87,70.68 45.87,70.35 160.71,70.35 160.71,70.68 "/>
     <polygon id="406" class="fil243" points="45.87,70.46 45.87,70.13 160.71,70.13 160.71,70.46 "/>
     <polygon id="407" class="fil243" points="45.87,70.24 45.87,69.92 160.71,69.92 160.71,70.24 "/>
     <polygon id="408" class="fil244" points="45.87,70.03 45.87,69.7 160.71,69.7 160.71,70.03 "/>
     <polygon id="409" class="fil244" points="45.87,69.81 45.87,69.48 160.71,69.48 160.71,69.81 "/>
     <polygon id="410" class="fil244" points="45.87,69.59 45.87,69.26 160.71,69.26 160.71,69.59 "/>
     <polygon id="411" class="fil244" points="45.87,69.37 45.87,69.05 160.71,69.05 160.71,69.37 "/>
     <polygon id="412" class="fil244" points="45.87,69.16 45.87,68.83 160.71,68.83 160.71,69.16 "/>
     <polygon id="413" class="fil244" points="45.87,68.94 45.87,68.61 160.71,68.61 160.71,68.94 "/>
     <polygon id="414" class="fil245" points="45.87,68.72 45.87,68.39 160.71,68.39 160.71,68.72 "/>
     <polygon id="415" class="fil245" points="45.87,68.5 45.87,68.18 160.71,68.18 160.71,68.5 "/>
     <polygon id="416" class="fil245" points="45.87,68.29 45.87,67.96 160.71,67.96 160.71,68.29 "/>
     <polygon id="417" class="fil245" points="45.87,68.07 45.87,67.74 160.71,67.74 160.71,68.07 "/>
     <polygon id="418" class="fil245" points="45.87,67.85 45.87,67.52 160.71,67.52 160.71,67.85 "/>
     <polygon id="419" class="fil245" points="45.87,67.63 45.87,67.31 160.71,67.31 160.71,67.63 "/>
     <polygon id="420" class="fil246" points="45.87,67.42 45.87,67.09 160.71,67.09 160.71,67.42 "/>
     <polygon id="421" class="fil246" points="45.87,67.2 45.87,66.87 160.71,66.87 160.71,67.2 "/>
     <polygon id="422" class="fil246" points="45.87,66.98 45.87,66.65 160.71,66.65 160.71,66.98 "/>
     <polygon id="423" class="fil246" points="45.87,66.76 45.87,66.44 160.71,66.44 160.71,66.76 "/>
     <polygon id="424" class="fil246" points="45.87,66.54 45.87,66.22 160.71,66.22 160.71,66.54 "/>
     <polygon id="425" class="fil246" points="45.87,66.33 45.87,66 160.71,66 160.71,66.33 "/>
     <polygon id="426" class="fil247" points="45.87,66.11 45.87,65.78 160.71,65.78 160.71,66.11 "/>
     <polygon id="427" class="fil247" points="45.87,65.89 45.87,65.57 160.71,65.57 160.71,65.89 "/>
     <polygon id="428" class="fil247" points="45.87,65.67 45.87,65.35 160.71,65.35 160.71,65.67 "/>
     <polygon id="429" class="fil247" points="45.87,65.46 45.87,65.13 160.71,65.13 160.71,65.46 "/>
     <polygon id="430" class="fil247" points="45.87,65.24 45.87,64.91 160.71,64.91 160.71,65.24 "/>
     <polygon id="431" class="fil247" points="45.87,65.02 45.87,64.7 160.71,64.7 160.71,65.02 "/>
     <polygon id="432" class="fil247" points="45.87,64.8 45.87,64.48 160.71,64.48 160.71,64.8 "/>
     <polygon id="433" class="fil247" points="45.87,64.59 45.87,64.26 160.71,64.26 160.71,64.59 "/>
     <polygon id="434" class="fil248" points="45.87,64.37 45.87,64.04 160.71,64.04 160.71,64.37 "/>
     <polygon id="435" class="fil248" points="45.87,64.15 45.87,63.83 160.71,63.83 160.71,64.15 "/>
     <polygon id="436" class="fil248" points="45.87,63.93 45.87,63.61 160.71,63.61 160.71,63.93 "/>
     <polygon id="437" class="fil248" points="45.87,63.72 45.87,63.39 160.71,63.39 160.71,63.72 "/>
     <polygon id="438" class="fil248" points="45.87,63.5 45.87,63.17 160.71,63.17 160.71,63.5 "/>
     <polygon id="439" class="fil248" points="45.87,63.28 45.87,62.96 160.71,62.96 160.71,63.28 "/>
     <polygon id="440" class="fil248" points="45.87,63.06 45.87,62.74 160.71,62.74 160.71,63.06 "/>
     <polygon id="441" class="fil248" points="45.87,62.85 45.87,62.52 160.71,62.52 160.71,62.85 "/>
     <polygon id="442" class="fil249" points="45.87,62.63 45.87,62.3 160.71,62.3 160.71,62.63 "/>
     <polygon id="443" class="fil249" points="45.87,62.41 45.87,62.09 160.71,62.09 160.71,62.41 "/>
     <polygon id="444" class="fil249" points="45.87,62.19 45.87,61.87 160.71,61.87 160.71,62.19 "/>
     <polygon id="445" class="fil249" points="45.87,61.98 45.87,61.65 160.71,61.65 160.71,61.98 "/>
     <polygon id="446" class="fil249" points="45.87,61.76 45.87,61.43 160.71,61.43 160.71,61.76 "/>
     <polygon id="447" class="fil249" points="45.87,61.54 45.87,61.22 160.71,61.22 160.71,61.54 "/>
     <polygon id="448" class="fil249" points="45.87,61.32 45.87,61 160.71,61 160.71,61.32 "/>
     <polygon id="449" class="fil249" points="45.87,61.11 45.87,60.78 160.71,60.78 160.71,61.11 "/>
     <polygon id="450" class="fil249" points="45.87,60.89 45.87,60.56 160.71,60.56 160.71,60.89 "/>
     <polygon id="451" class="fil249" points="45.87,60.67 45.87,60.35 160.71,60.35 160.71,60.67 "/>
     <polygon id="452" class="fil250" points="45.87,60.45 45.87,60.13 160.71,60.13 160.71,60.45 "/>
     <polygon id="453" class="fil250" points="45.87,60.24 45.87,59.91 160.71,59.91 160.71,60.24 "/>
     <polygon id="454" class="fil250" points="45.87,60.02 45.87,59.69 160.71,59.69 160.71,60.02 "/>
     <polygon id="455" class="fil250" points="45.87,59.8 45.87,59.48 160.71,59.48 160.71,59.8 "/>
     <polygon id="456" class="fil250" points="45.87,59.58 45.87,59.26 160.71,59.26 160.71,59.58 "/>
     <polygon id="457" class="fil250" points="45.87,59.37 45.87,59.04 160.71,59.04 160.71,59.37 "/>
     <polygon id="458" class="fil250" points="45.87,59.15 45.87,58.82 160.71,58.82 160.71,59.15 "/>
     <polygon id="459" class="fil250" points="45.87,58.93 45.87,58.61 160.71,58.61 160.71,58.93 "/>
     <polygon id="460" class="fil250" points="45.87,58.71 45.87,58.39 160.71,58.39 160.71,58.71 "/>
     <polygon id="461" class="fil250" points="45.87,58.5 45.87,58.17 160.71,58.17 160.71,58.5 "/>
     <polygon id="462" class="fil250" points="45.87,58.28 45.87,57.95 160.71,57.95 160.71,58.28 "/>
     <polygon id="463" class="fil250" points="45.87,58.06 45.87,57.74 160.71,57.74 160.71,58.06 "/>
     <polygon id="464" class="fil250" points="45.87,57.84 45.87,57.52 160.71,57.52 160.71,57.84 "/>
     <polygon id="465" class="fil251" points="45.87,57.63 45.87,57.3 160.71,57.3 160.71,57.63 "/>
     <polygon id="466" class="fil251" points="45.87,57.41 45.87,57.08 160.71,57.08 160.71,57.41 "/>
     <polygon id="467" class="fil251" points="45.87,57.19 45.87,56.86 160.71,56.86 160.71,57.19 "/>
     <polygon id="468" class="fil251" points="45.87,56.97 45.87,56.65 160.71,56.65 160.71,56.97 "/>
     <polygon id="469" class="fil251" points="45.87,56.76 45.87,56.43 160.71,56.43 160.71,56.76 "/>
     <polygon id="470" class="fil251" points="45.87,56.54 45.87,56.21 160.71,56.21 160.71,56.54 "/>
     <polygon id="471" class="fil251" points="45.87,56.32 45.87,55.99 160.71,55.99 160.71,56.32 "/>
     <polygon id="472" class="fil251" points="45.87,56.1 45.87,55.78 160.71,55.78 160.71,56.1 "/>
     <polygon id="473" class="fil251" points="45.87,55.89 45.87,55.56 160.71,55.56 160.71,55.89 "/>
     <polygon id="474" class="fil251" points="45.87,55.67 45.87,55.34 160.71,55.34 160.71,55.67 "/>
     <polygon id="475" class="fil251" points="45.87,55.45 45.87,55.12 160.71,55.12 160.71,55.45 "/>
     <polygon id="476" class="fil251" points="45.87,55.23 45.87,54.91 160.71,54.91 160.71,55.23 "/>
     <polygon id="477" class="fil251" points="45.87,55.02 45.87,54.69 160.71,54.69 160.71,55.02 "/>
     <polygon id="478" class="fil251" points="45.87,54.8 45.87,54.47 160.71,54.47 160.71,54.8 "/>
     <polygon id="479" class="fil251" points="45.87,54.58 45.87,54.25 160.71,54.25 160.71,54.58 "/>
     <polygon id="480" class="fil251" points="45.87,54.36 45.87,54.04 160.71,54.04 160.71,54.36 "/>
     <polygon id="481" class="fil251" points="45.87,54.15 45.87,53.82 160.71,53.82 160.71,54.15 "/>
     <polygon id="482" class="fil251" points="45.87,53.93 45.87,53.6 160.71,53.6 160.71,53.93 "/>
     <polygon id="483" class="fil251" points="45.87,53.71 45.87,53.38 160.71,53.38 160.71,53.71 "/>
     <polygon id="484" class="fil252" points="45.87,53.49 45.87,53.17 160.71,53.17 160.71,53.49 "/>
     <polygon id="485" class="fil252" points="45.87,53.28 45.87,52.95 160.71,52.95 160.71,53.28 "/>
     <polygon id="486" class="fil252" points="45.87,53.06 45.87,52.73 160.71,52.73 160.71,53.06 "/>
     <polygon id="487" class="fil252" points="45.87,52.84 45.87,52.51 160.71,52.51 160.71,52.84 "/>
     <polygon id="488" class="fil252" points="45.87,52.62 45.87,52.3 160.71,52.3 160.71,52.62 "/>
     <polygon id="489" class="fil252" points="45.87,52.41 45.87,52.08 160.71,52.08 160.71,52.41 "/>
     <polygon id="490" class="fil252" points="45.87,52.19 45.87,51.86 160.71,51.86 160.71,52.19 "/>
     <polygon id="491" class="fil252" points="45.87,51.97 45.87,51.64 160.71,51.64 160.71,51.97 "/>
     <polygon id="492" class="fil252" points="45.87,51.75 45.87,51.43 160.71,51.43 160.71,51.75 "/>
     <polygon id="493" class="fil252" points="45.87,51.54 45.87,51.21 160.71,51.21 160.71,51.54 "/>
     <polygon id="494" class="fil252" points="45.87,51.32 45.87,50.99 160.71,50.99 160.71,51.32 "/>
     <polygon id="495" class="fil252" points="45.87,51.1 45.87,50.77 160.71,50.77 160.71,51.1 "/>
     <polygon id="496" class="fil252" points="45.87,50.88 45.87,50.56 160.71,50.56 160.71,50.88 "/>
     <polygon id="497" class="fil252" points="45.87,50.67 45.87,50.34 160.71,50.34 160.71,50.67 "/>
     <polygon id="498" class="fil252" points="45.87,50.45 45.87,50.12 160.71,50.12 160.71,50.45 "/>
     <polygon id="499" class="fil252" points="45.87,50.23 45.87,49.9 160.71,49.9 160.71,50.23 "/>
     <polygon id="500" class="fil252" points="45.87,50.01 45.87,49.69 160.71,49.69 160.71,50.01 "/>
     <polygon id="501" class="fil252" points="45.87,49.8 45.87,49.47 160.71,49.47 160.71,49.8 "/>
     <polygon id="502" class="fil252" points="45.87,49.58 45.87,49.25 160.71,49.25 160.71,49.58 "/>
     <polygon id="503" class="fil252" points="45.87,49.36 45.87,49.03 160.71,49.03 160.71,49.36 "/>
     <polygon id="504" class="fil252" points="45.87,49.14 45.87,48.82 160.71,48.82 160.71,49.14 "/>
     <polygon id="505" class="fil252" points="45.87,48.93 45.87,48.6 160.71,48.6 160.71,48.93 "/>
     <polygon id="506" class="fil252" points="45.87,48.71 45.87,48.38 160.71,48.38 160.71,48.71 "/>
     <polygon id="507" class="fil252" points="45.87,48.49 45.87,48.16 160.71,48.16 160.71,48.49 "/>
     <polygon id="508" class="fil252" points="45.87,48.27 45.87,47.95 160.71,47.95 160.71,48.27 "/>
     <polygon id="509" class="fil252" points="45.87,48.05 45.87,47.73 160.71,47.73 160.71,48.05 "/>
     <polygon id="510" class="fil252" points="45.87,47.84 45.87,47.51 160.71,47.51 160.71,47.84 "/>
     <polygon id="511" class="fil252" points="45.87,47.62 45.87,47.14 160.71,47.14 160.71,47.62 "/>
    </g>
   </g>
   <path class="fil1" d="M102.43 100.84c-2.02,4.18 -4.51,8.09 -6.55,12.33 -1.66,3.44 -4.11,8.64 -3.09,12.5 2.53,9.62 19.25,8.59 19.29,-2.77 0.02,-4.23 -2.9,-9.14 -4.8,-12.87 -1.54,-3.02 -3.12,-6.02 -4.64,-9.05 -0.07,-0.13 -0.06,-0.19 -0.15,-0.24l-0.06 0.1z"/>
   <circle class="fil1 str1" cx="172.69" cy="148.39" r="9.47"/>
  </g>
 </g>
</svg>
