<?xml version="1.0" encoding="UTF-8"?>
<!DOCTYPE svg PUBLIC "-//W3C//DTD SVG 1.1//EN" "http://www.w3.org/Graphics/SVG/1.1/DTD/svg11.dtd">
<!-- Creator: CorelDRAW 2017 -->
<svg xmlns="http://www.w3.org/2000/svg" xml:space="preserve" width="200px" height="200px" version="1.1" style="shape-rendering:geometricPrecision; text-rendering:geometricPrecision; image-rendering:optimizeQuality; fill-rule:evenodd; clip-rule:evenodd"
viewBox="0 0 203.95 203.97"
 xmlns:xlink="http://www.w3.org/1999/xlink">
 <defs>
  <style type="text/css">
   <![CDATA[
    .str0 {stroke:black;stroke-width:0.27}
    .str1 {stroke:#04FAFB;stroke-width:0.27}
    .fil1 {fill:#04FAFB}
    .fil2 {fill:#05FAFB}
    .fil3 {fill:#06FAFB}
    .fil4 {fill:#07FAFB}
    .fil5 {fill:#08FAFB}
    .fil6 {fill:#09FAFB}
    .fil7 {fill:#0AFAFB}
    .fil8 {fill:#0BFAFB}
    .fil9 {fill:#0CFAFB}
    .fil10 {fill:#0DFAFB}
    .fil11 {fill:#0EFAFB}
    .fil12 {fill:#0FFAFB}
    .fil13 {fill:#10FAFB}
    .fil14 {fill:#11FAFB}
    .fil0 {fill:#121F2F}
    .fil15 {fill:#12FAFB}
    .fil16 {fill:#13FAFB}
    .fil17 {fill:#14FAFB}
    .fil18 {fill:#15FAFB}
    .fil19 {fill:#16FAFB}
    .fil20 {fill:#17FAFB}
    .fil21 {fill:#18FAFB}
    .fil22 {fill:#19FAFB}
    .fil23 {fill:#1AFAFB}
    .fil24 {fill:#1BFAFB}
    .fil25 {fill:#1CFAFB}
    .fil26 {fill:#1DFAFB}
    .fil27 {fill:#1EFBFB}
    .fil28 {fill:#1FFBFB}
    .fil29 {fill:#20FBFB}
    .fil30 {fill:#21FBFB}
    .fil31 {fill:#22FBFB}
    .fil32 {fill:#23FBFB}
    .fil33 {fill:#24FBFC}
    .fil34 {fill:#25FBFC}
    .fil35 {fill:#26FBFC}
    .fil36 {fill:#27FBFC}
    .fil37 {fill:#28FBFC}
    .fil38 {fill:#29FBFC}
    .fil39 {fill:#2AFBFC}
    .fil40 {fill:#2BFBFC}
    .fil41 {fill:#2CFBFC}
    .fil42 {fill:#2DFBFC}
    .fil43 {fill:#2EFBFC}
    .fil44 {fill:#2FFBFC}
    .fil45 {fill:#30FBFC}
    .fil46 {fill:#31FBFC}
    .fil47 {fill:#32FBFC}
    .fil48 {fill:#33FBFC}
    .fil49 {fill:#34FBFC}
    .fil50 {fill:#35FBFC}
    .fil51 {fill:#36FBFC}
    .fil52 {fill:#37FBFC}
    .fil53 {fill:#38FBFC}
    .fil54 {fill:#39FBFC}
    .fil55 {fill:#3AFBFC}
    .fil56 {fill:#3BFBFC}
    .fil57 {fill:#3CFBFC}
    .fil58 {fill:#3EFBFC}
    .fil59 {fill:#3FFBFC}
    .fil60 {fill:#40FBFC}
    .fil61 {fill:#41FBFC}
    .fil62 {fill:#42FBFC}
    .fil63 {fill:#43FBFC}
    .fil64 {fill:#44FBFC}
    .fil65 {fill:#45FBFC}
    .fil66 {fill:#46FBFC}
    .fil67 {fill:#47FBFC}
    .fil68 {fill:#48FBFC}
    .fil69 {fill:#49FBFC}
    .fil70 {fill:#4AFBFC}
    .fil71 {fill:#4BFBFC}
    .fil72 {fill:#4CFBFC}
    .fil73 {fill:#4EFBFC}
    .fil74 {fill:#4FFBFC}
    .fil75 {fill:#50FCFC}
    .fil76 {fill:#51FCFC}
    .fil77 {fill:#52FCFC}
    .fil78 {fill:#53FCFC}
    .fil79 {fill:#54FCFC}
    .fil80 {fill:#55FCFC}
    .fil81 {fill:#57FCFC}
    .fil82 {fill:#58FCFC}
    .fil83 {fill:#59FCFC}
    .fil84 {fill:#5AFCFC}
    .fil85 {fill:#5BFCFC}
    .fil86 {fill:#5DFCFC}
    .fil87 {fill:#5EFCFC}
    .fil88 {fill:#5FFCFC}
    .fil89 {fill:#60FCFC}
    .fil90 {fill:#61FCFC}
    .fil91 {fill:#63FCFD}
    .fil92 {fill:#64FCFD}
    .fil93 {fill:#65FCFD}
    .fil94 {fill:#66FCFD}
    .fil95 {fill:#68FCFD}
    .fil96 {fill:#69FCFD}
    .fil97 {fill:#6AFCFD}
    .fil98 {fill:#6BFCFD}
    .fil99 {fill:#6DFCFD}
    .fil100 {fill:#6EFCFD}
    .fil101 {fill:#6FFCFD}
    .fil102 {fill:#71FCFD}
    .fil103 {fill:#72FCFD}
    .fil104 {fill:#73FCFD}
    .fil105 {fill:#75FCFD}
    .fil106 {fill:#76FCFD}
    .fil107 {fill:#77FCFD}
    .fil108 {fill:#79FCFD}
    .fil109 {fill:#7AFCFD}
    .fil110 {fill:#7BFCFD}
    .fil111 {fill:#7DFCFD}
    .fil112 {fill:#7EFCFD}
    .fil113 {fill:#80FCFD}
    .fil114 {fill:#81FCFD}
    .fil115 {fill:#82FDFD}
    .fil116 {fill:#84FDFD}
    .fil117 {fill:#85FDFD}
    .fil118 {fill:#87FDFD}
    .fil119 {fill:#88FDFD}
    .fil120 {fill:#89FDFD}
    .fil121 {fill:#8BFDFD}
    .fil122 {fill:#8CFDFD}
    .fil123 {fill:#8DFDFD}
    .fil124 {fill:#8FFDFD}
    .fil125 {fill:#90FDFD}
    .fil126 {fill:#91FDFD}
    .fil127 {fill:#93FDFD}
    .fil128 {fill:#94FDFD}
    .fil129 {fill:#95FDFD}
    .fil130 {fill:#96FDFD}
    .fil131 {fill:#98FDFD}
    .fil132 {fill:#99FDFD}
    .fil133 {fill:#9AFDFD}
    .fil134 {fill:#9BFDFD}
    .fil135 {fill:#9DFDFD}
    .fil136 {fill:#9EFDFD}
    .fil137 {fill:#9FFDFD}
    .fil138 {fill:#A0FDFD}
    .fil139 {fill:#A1FDFE}
    .fil140 {fill:#A3FDFE}
    .fil141 {fill:#A4FDFE}
    .fil142 {fill:#A5FDFE}
    .fil143 {fill:#A6FDFE}
    .fil144 {fill:#A7FDFE}
    .fil145 {fill:#A8FDFE}
    .fil146 {fill:#AAFDFE}
    .fil147 {fill:#ABFDFE}
    .fil148 {fill:#ACFDFE}
    .fil149 {fill:#ADFDFE}
    .fil150 {fill:#AEFDFE}
    .fil151 {fill:#AFFDFE}
    .fil152 {fill:#B0FDFE}
    .fil153 {fill:#B1FDFE}
    .fil154 {fill:#B2FDFE}
    .fil155 {fill:#B3FDFE}
    .fil156 {fill:#B5FEFE}
    .fil157 {fill:#B6FEFE}
    .fil158 {fill:#B7FEFE}
    .fil159 {fill:#B8FEFE}
    .fil160 {fill:#B9FEFE}
    .fil161 {fill:#BAFEFE}
    .fil162 {fill:#BBFEFE}
    .fil163 {fill:#BCFEFE}
    .fil164 {fill:#BDFEFE}
    .fil165 {fill:#BEFEFE}
    .fil166 {fill:#BFFEFE}
    .fil167 {fill:#C0FEFE}
    .fil168 {fill:#C1FEFE}
    .fil169 {fill:#C2FEFE}
    .fil170 {fill:#C3FEFE}
    .fil171 {fill:#C4FEFE}
    .fil172 {fill:#C5FEFE}
    .fil173 {fill:#C6FEFE}
    .fil174 {fill:#C7FEFE}
    .fil175 {fill:#C8FEFE}
    .fil176 {fill:#C9FEFE}
    .fil177 {fill:#CAFEFE}
    .fil178 {fill:#CBFEFE}
    .fil179 {fill:#CCFEFE}
    .fil180 {fill:#CDFEFE}
    .fil181 {fill:#CEFEFE}
    .fil182 {fill:#CFFEFE}
    .fil183 {fill:#D0FEFE}
    .fil184 {fill:#D1FEFE}
    .fil185 {fill:#D2FEFE}
    .fil186 {fill:#D3FEFE}
    .fil187 {fill:#D4FEFE}
    .fil188 {fill:#D5FEFE}
    .fil189 {fill:#D6FEFE}
    .fil190 {fill:#D7FEFE}
    .fil191 {fill:#D8FEFE}
    .fil192 {fill:#D9FEFE}
    .fil193 {fill:#DAFEFE}
    .fil194 {fill:#DBFEFE}
    .fil195 {fill:#DCFEFE}
    .fil196 {fill:#DDFEFE}
    .fil197 {fill:#DEFEFE}
    .fil198 {fill:#DFFEFE}
    .fil199 {fill:#E0FEFF}
    .fil200 {fill:#E1FEFF}
    .fil201 {fill:#E2FEFF}
    .fil202 {fill:#E3FEFF}
    .fil203 {fill:#E4FEFF}
    .fil204 {fill:#E5FEFF}
    .fil205 {fill:#E6FFFF}
    .fil206 {fill:#E7FFFF}
    .fil207 {fill:#E8FFFF}
    .fil208 {fill:#E9FFFF}
    .fil209 {fill:#EAFFFF}
    .fil210 {fill:#EBFFFF}
    .fil211 {fill:#ECFFFF}
    .fil212 {fill:#EDFFFF}
    .fil213 {fill:#EEFFFF}
    .fil214 {fill:#EFFFFF}
    .fil215 {fill:azure}
    .fil216 {fill:#F1FFFF}
    .fil217 {fill:#F2FFFF}
    .fil218 {fill:#F3FFFF}
    .fil219 {fill:#F4FFFF}
    .fil220 {fill:#F5FFFF}
    .fil221 {fill:#F6FFFF}
    .fil222 {fill:#F7FFFF}
    .fil223 {fill:#F8FFFF}
    .fil224 {fill:#F9FFFF}
    .fil225 {fill:#FAFFFF}
    .fil226 {fill:#FBFFFF}
    .fil227 {fill:#FCFFFF}
    .fil228 {fill:#FDFFFF}
    .fil229 {fill:#FEFFFF}
    .fil230 {fill:white}
   ]]>
  </style>
      <clipPath id="id0">
       <path d="M155.8 133.69c-13.56,-23.47 -23.66,-48.98 -36.45,-72.94 -2.39,-4.46 -4.5,-9.1 -6.87,-13.55 -2.37,-4.46 -4.98,-6.93 -10.32,-6.88 -7.36,0.07 -9.68,7 -12.29,12.6 -12.03,25.82 -26.3,50.41 -39.19,75.76 -1.46,2.88 -3.62,6.18 -4.76,9.08 -1.47,3.76 -1.03,7.94 1.48,11.15 4.69,5.99 13.83,4.51 17.83,-1.5 1.63,-2.45 2.86,-5.84 4.34,-8.54 2.98,-5.45 5.71,-11.58 8.34,-17.23 5.78,-12.47 11.57,-25.38 18.05,-37.48 1.79,-3.36 3.76,-6.91 5.95,-10.04 3.88,4.98 7.89,13.22 10.66,18.95 6.82,14.08 12.89,28.62 19.9,42.57 1.85,3.68 5.71,11.47 8.87,14.06 4.99,4.09 12.56,3.97 16.18,-1.88 2.83,-4.57 0.7,-9.92 -1.72,-14.13z"/>
      </clipPath>
      <clipPath id="id1">
       <path d="M101.53 94.47c-2.04,4.22 -4.55,8.17 -6.61,12.45 -1.67,3.47 -4.15,8.72 -3.12,12.62 2.56,9.7 19.43,8.66 19.47,-2.8 0.02,-4.27 -2.93,-9.23 -4.85,-12.99 -1.55,-3.05 -3.15,-6.07 -4.68,-9.13 -0.07,-0.13 -0.06,-0.19 -0.15,-0.25l-0.06 0.1z"/>
      </clipPath>
 </defs>
 <g id="Layer_x0020_1">
  <metadata id="CorelCorpID_0Corel-Layer"/>
  <rect class="fil0 str0" x="0.14" y="0.14" width="203.68" height="203.69" rx="15.59" ry="15.57"/>
  <g id="_1756893470272">
   <g>
    <g>
     <g style="clip-path:url(#id0)">
      <polygon class="fil1" points="160.35,40.27 160.35,40.54 44.45,40.54 44.45,40.27 "/>
      <polygon id="1" class="fil2" points="160.35,40.32 160.35,40.98 44.45,40.98 44.45,40.32 "/>
      <polygon id="2" class="fil2" points="160.35,40.76 160.35,41.42 44.45,41.42 44.45,40.76 "/>
      <polygon id="3" class="fil3" points="160.35,41.2 160.35,41.86 44.45,41.86 44.45,41.2 "/>
      <polygon id="4" class="fil4" points="160.35,41.64 160.35,42.3 44.45,42.3 44.45,41.64 "/>
      <polygon id="5" class="fil5" points="160.35,42.08 160.35,42.74 44.45,42.74 44.45,42.08 "/>
      <polygon id="6" class="fil6" points="160.35,42.52 160.35,43.17 44.45,43.17 44.45,42.52 "/>
      <polygon id="7" class="fil6" points="160.35,42.96 160.35,43.61 44.45,43.61 44.45,42.96 "/>
      <polygon id="8" class="fil7" points="160.35,43.39 160.35,44.05 44.45,44.05 44.45,43.39 "/>
      <polygon id="9" class="fil8" points="160.35,43.83 160.35,44.49 44.45,44.49 44.45,43.83 "/>
      <polygon id="10" class="fil9" points="160.35,44.27 160.35,44.93 44.45,44.93 44.45,44.27 "/>
      <polygon id="11" class="fil9" points="160.35,44.71 160.35,45.37 44.45,45.37 44.45,44.71 "/>
      <polygon id="12" class="fil10" points="160.35,45.15 160.35,45.81 44.45,45.81 44.45,45.15 "/>
      <polygon id="13" class="fil11" points="160.35,45.59 160.35,46.25 44.45,46.25 44.45,45.59 "/>
      <polygon id="14" class="fil12" points="160.35,46.03 160.35,46.69 44.45,46.69 44.45,46.03 "/>
      <polygon id="15" class="fil13" points="160.35,46.47 160.35,47.13 44.45,47.13 44.45,46.47 "/>
      <polygon id="16" class="fil13" points="160.35,46.91 160.35,47.57 44.45,47.57 44.45,46.91 "/>
      <polygon id="17" class="fil14" points="160.35,47.35 160.35,48.01 44.45,48.01 44.45,47.35 "/>
      <polygon id="18" class="fil15" points="160.35,47.79 160.35,48.44 44.45,48.44 44.45,47.79 "/>
      <polygon id="19" class="fil16" points="160.35,48.22 160.35,48.88 44.45,48.88 44.45,48.22 "/>
      <polygon id="20" class="fil17" points="160.35,48.66 160.35,49.32 44.45,49.32 44.45,48.66 "/>
      <polygon id="21" class="fil17" points="160.35,49.1 160.35,49.76 44.45,49.76 44.45,49.1 "/>
      <polygon id="22" class="fil18" points="160.35,49.54 160.35,50.2 44.45,50.2 44.45,49.54 "/>
      <polygon id="23" class="fil19" points="160.35,49.98 160.35,50.64 44.45,50.64 44.45,49.98 "/>
      <polygon id="24" class="fil20" points="160.35,50.42 160.35,51.08 44.45,51.08 44.45,50.42 "/>
      <polygon id="25" class="fil21" points="160.35,50.86 160.35,51.52 44.45,51.52 44.45,50.86 "/>
      <polygon id="26" class="fil21" points="160.35,51.3 160.35,51.96 44.45,51.96 44.45,51.3 "/>
      <polygon id="27" class="fil22" points="160.35,51.74 160.35,52.4 44.45,52.4 44.45,51.74 "/>
      <polygon id="28" class="fil23" points="160.35,52.18 160.35,52.84 44.45,52.84 44.45,52.18 "/>
      <polygon id="29" class="fil24" points="160.35,52.62 160.35,53.27 44.45,53.27 44.45,52.62 "/>
      <polygon id="30" class="fil25" points="160.35,53.05 160.35,53.71 44.45,53.71 44.45,53.05 "/>
      <polygon id="31" class="fil26" points="160.35,53.49 160.35,54.15 44.45,54.15 44.45,53.49 "/>
      <polygon id="32" class="fil27" points="160.35,53.93 160.35,54.59 44.45,54.59 44.45,53.93 "/>
      <polygon id="33" class="fil27" points="160.35,54.37 160.35,55.03 44.45,55.03 44.45,54.37 "/>
      <polygon id="34" class="fil28" points="160.35,54.81 160.35,55.47 44.45,55.47 44.45,54.81 "/>
      <polygon id="35" class="fil29" points="160.35,55.25 160.35,55.91 44.45,55.91 44.45,55.25 "/>
      <polygon id="36" class="fil30" points="160.35,55.69 160.35,56.35 44.45,56.35 44.45,55.69 "/>
      <polygon id="37" class="fil31" points="160.35,56.13 160.35,56.79 44.45,56.79 44.45,56.13 "/>
      <polygon id="38" class="fil32" points="160.35,56.57 160.35,57.23 44.45,57.23 44.45,56.57 "/>
      <polygon id="39" class="fil33" points="160.35,57.01 160.35,57.67 44.45,57.67 44.45,57.01 "/>
      <polygon id="40" class="fil34" points="160.35,57.45 160.35,58.1 44.45,58.1 44.45,57.45 "/>
      <polygon id="41" class="fil34" points="160.35,57.88 160.35,58.54 44.45,58.54 44.45,57.88 "/>
      <polygon id="42" class="fil35" points="160.35,58.32 160.35,58.98 44.45,58.98 44.45,58.32 "/>
      <polygon id="43" class="fil36" points="160.35,58.76 160.35,59.42 44.45,59.42 44.45,58.76 "/>
      <polygon id="44" class="fil37" points="160.35,59.2 160.35,59.86 44.45,59.86 44.45,59.2 "/>
      <polygon id="45" class="fil38" points="160.35,59.64 160.35,60.3 44.45,60.3 44.45,59.64 "/>
      <polygon id="46" class="fil39" points="160.35,60.08 160.35,60.74 44.45,60.74 44.45,60.08 "/>
      <polygon id="47" class="fil40" points="160.35,60.52 160.35,61.18 44.45,61.18 44.45,60.52 "/>
      <polygon id="48" class="fil41" points="160.35,60.96 160.35,61.62 44.45,61.62 44.45,60.96 "/>
      <polygon id="49" class="fil42" points="160.35,61.4 160.35,62.06 44.45,62.06 44.45,61.4 "/>
      <polygon id="50" class="fil43" points="160.35,61.84 160.35,62.5 44.45,62.5 44.45,61.84 "/>
      <polygon id="51" class="fil44" points="160.35,62.28 160.35,62.93 44.45,62.93 44.45,62.28 "/>
      <polygon id="52" class="fil45" points="160.35,62.71 160.35,63.37 44.45,63.37 44.45,62.71 "/>
      <polygon id="53" class="fil46" points="160.35,63.15 160.35,63.81 44.45,63.81 44.45,63.15 "/>
      <polygon id="54" class="fil47" points="160.35,63.59 160.35,64.25 44.45,64.25 44.45,63.59 "/>
      <polygon id="55" class="fil48" points="160.35,64.03 160.35,64.69 44.45,64.69 44.45,64.03 "/>
      <polygon id="56" class="fil49" points="160.35,64.47 160.35,65.13 44.45,65.13 44.45,64.47 "/>
      <polygon id="57" class="fil50" points="160.35,64.91 160.35,65.57 44.45,65.57 44.45,64.91 "/>
      <polygon id="58" class="fil50" points="160.35,65.35 160.35,66.01 44.45,66.01 44.45,65.35 "/>
      <polygon id="59" class="fil51" points="160.35,65.79 160.35,66.45 44.45,66.45 44.45,65.79 "/>
      <polygon id="60" class="fil52" points="160.35,66.23 160.35,66.89 44.45,66.89 44.45,66.23 "/>
      <polygon id="61" class="fil53" points="160.35,66.67 160.35,67.33 44.45,67.33 44.45,66.67 "/>
      <polygon id="62" class="fil54" points="160.35,67.11 160.35,67.76 44.45,67.76 44.45,67.11 "/>
      <polygon id="63" class="fil55" points="160.35,67.54 160.35,68.2 44.45,68.2 44.45,67.54 "/>
      <polygon id="64" class="fil56" points="160.35,67.98 160.35,68.64 44.45,68.64 44.45,67.98 "/>
      <polygon id="65" class="fil57" points="160.35,68.42 160.35,69.08 44.45,69.08 44.45,68.42 "/>
      <polygon id="66" class="fil58" points="160.35,68.86 160.35,69.52 44.45,69.52 44.45,68.86 "/>
      <polygon id="67" class="fil59" points="160.35,69.3 160.35,69.96 44.45,69.96 44.45,69.3 "/>
      <polygon id="68" class="fil60" points="160.35,69.74 160.35,70.4 44.45,70.4 44.45,69.74 "/>
      <polygon id="69" class="fil61" points="160.35,70.18 160.35,70.84 44.45,70.84 44.45,70.18 "/>
      <polygon id="70" class="fil62" points="160.35,70.62 160.35,71.28 44.45,71.28 44.45,70.62 "/>
      <polygon id="71" class="fil63" points="160.35,71.06 160.35,71.72 44.45,71.72 44.45,71.06 "/>
      <polygon id="72" class="fil64" points="160.35,71.5 160.35,72.16 44.45,72.16 44.45,71.5 "/>
      <polygon id="73" class="fil65" points="160.35,71.94 160.35,72.59 44.45,72.59 44.45,71.94 "/>
      <polygon id="74" class="fil66" points="160.35,72.37 160.35,73.03 44.45,73.03 44.45,72.37 "/>
      <polygon id="75" class="fil67" points="160.35,72.81 160.35,73.47 44.45,73.47 44.45,72.81 "/>
      <polygon id="76" class="fil68" points="160.35,73.25 160.35,73.91 44.45,73.91 44.45,73.25 "/>
      <polygon id="77" class="fil69" points="160.35,73.69 160.35,74.35 44.45,74.35 44.45,73.69 "/>
      <polygon id="78" class="fil70" points="160.35,74.13 160.35,74.79 44.45,74.79 44.45,74.13 "/>
      <polygon id="79" class="fil71" points="160.35,74.57 160.35,75.23 44.45,75.23 44.45,74.57 "/>
      <polygon id="80" class="fil72" points="160.35,75.01 160.35,75.67 44.45,75.67 44.45,75.01 "/>
      <polygon id="81" class="fil73" points="160.35,75.45 160.35,76.11 44.45,76.11 44.45,75.45 "/>
      <polygon id="82" class="fil74" points="160.35,75.89 160.35,76.55 44.45,76.55 44.45,75.89 "/>
      <polygon id="83" class="fil75" points="160.35,76.33 160.35,76.99 44.45,76.99 44.45,76.33 "/>
      <polygon id="84" class="fil76" points="160.35,76.77 160.35,77.42 44.45,77.42 44.45,76.77 "/>
      <polygon id="85" class="fil77" points="160.35,77.2 160.35,77.86 44.45,77.86 44.45,77.2 "/>
      <polygon id="86" class="fil78" points="160.35,77.64 160.35,78.3 44.45,78.3 44.45,77.64 "/>
      <polygon id="87" class="fil79" points="160.35,78.08 160.35,78.74 44.45,78.74 44.45,78.08 "/>
      <polygon id="88" class="fil80" points="160.35,78.52 160.35,79.18 44.45,79.18 44.45,78.52 "/>
      <polygon id="89" class="fil81" points="160.35,78.96 160.35,79.62 44.45,79.62 44.45,78.96 "/>
      <polygon id="90" class="fil82" points="160.35,79.4 160.35,80.06 44.45,80.06 44.45,79.4 "/>
      <polygon id="91" class="fil83" points="160.35,79.84 160.35,80.5 44.45,80.5 44.45,79.84 "/>
      <polygon id="92" class="fil84" points="160.35,80.28 160.35,80.94 44.45,80.94 44.45,80.28 "/>
      <polygon id="93" class="fil85" points="160.35,80.72 160.35,81.38 44.45,81.38 44.45,80.72 "/>
      <polygon id="94" class="fil86" points="160.35,81.16 160.35,81.82 44.45,81.82 44.45,81.16 "/>
      <polygon id="95" class="fil87" points="160.35,81.6 160.35,82.25 44.45,82.25 44.45,81.6 "/>
      <polygon id="96" class="fil88" points="160.35,82.04 160.35,82.69 44.45,82.69 44.45,82.04 "/>
      <polygon id="97" class="fil89" points="160.35,82.47 160.35,83.13 44.45,83.13 44.45,82.47 "/>
      <polygon id="98" class="fil90" points="160.35,82.91 160.35,83.57 44.45,83.57 44.45,82.91 "/>
      <polygon id="99" class="fil91" points="160.35,83.35 160.35,84.01 44.45,84.01 44.45,83.35 "/>
      <polygon id="100" class="fil92" points="160.35,83.79 160.35,84.45 44.45,84.45 44.45,83.79 "/>
      <polygon id="101" class="fil93" points="160.35,84.23 160.35,84.89 44.45,84.89 44.45,84.23 "/>
      <polygon id="102" class="fil94" points="160.35,84.67 160.35,85.33 44.45,85.33 44.45,84.67 "/>
      <polygon id="103" class="fil95" points="160.35,85.11 160.35,85.77 44.45,85.77 44.45,85.11 "/>
      <polygon id="104" class="fil96" points="160.35,85.55 160.35,86.21 44.45,86.21 44.45,85.55 "/>
      <polygon id="105" class="fil97" points="160.35,85.99 160.35,86.65 44.45,86.65 44.45,85.99 "/>
      <polygon id="106" class="fil98" points="160.35,86.43 160.35,87.08 44.45,87.08 44.45,86.43 "/>
      <polygon id="107" class="fil99" points="160.35,86.87 160.35,87.52 44.45,87.52 44.45,86.87 "/>
      <polygon id="108" class="fil100" points="160.35,87.3 160.35,87.96 44.45,87.96 44.45,87.3 "/>
      <polygon id="109" class="fil101" points="160.35,87.74 160.35,88.4 44.45,88.4 44.45,87.74 "/>
      <polygon id="110" class="fil102" points="160.35,88.18 160.35,88.84 44.45,88.84 44.45,88.18 "/>
      <polygon id="111" class="fil103" points="160.35,88.62 160.35,89.28 44.45,89.28 44.45,88.62 "/>
      <polygon id="112" class="fil104" points="160.35,89.06 160.35,89.72 44.45,89.72 44.45,89.06 "/>
      <polygon id="113" class="fil105" points="160.35,89.5 160.35,90.16 44.45,90.16 44.45,89.5 "/>
      <polygon id="114" class="fil106" points="160.35,89.94 160.35,90.6 44.45,90.6 44.45,89.94 "/>
      <polygon id="115" class="fil107" points="160.35,90.38 160.35,91.04 44.45,91.04 44.45,90.38 "/>
      <polygon id="116" class="fil108" points="160.35,90.82 160.35,91.48 44.45,91.48 44.45,90.82 "/>
      <polygon id="117" class="fil109" points="160.35,91.26 160.35,91.91 44.45,91.91 44.45,91.26 "/>
      <polygon id="118" class="fil110" points="160.35,91.7 160.35,92.35 44.45,92.35 44.45,91.7 "/>
      <polygon id="119" class="fil111" points="160.35,92.13 160.35,92.79 44.45,92.79 44.45,92.13 "/>
      <polygon id="120" class="fil112" points="160.35,92.57 160.35,93.23 44.45,93.23 44.45,92.57 "/>
      <polygon id="121" class="fil113" points="160.35,93.01 160.35,93.67 44.45,93.67 44.45,93.01 "/>
      <polygon id="122" class="fil114" points="160.35,93.45 160.35,94.11 44.45,94.11 44.45,93.45 "/>
      <polygon id="123" class="fil115" points="160.35,93.89 160.35,94.55 44.45,94.55 44.45,93.89 "/>
      <polygon id="124" class="fil116" points="160.35,94.33 160.35,94.99 44.45,94.99 44.45,94.33 "/>
      <polygon id="125" class="fil117" points="160.35,94.77 160.35,95.43 44.45,95.43 44.45,94.77 "/>
      <polygon id="126" class="fil118" points="160.35,95.21 160.35,95.87 44.45,95.87 44.45,95.21 "/>
      <polygon id="127" class="fil119" points="160.35,95.65 160.35,96.31 44.45,96.31 44.45,95.65 "/>
      <polygon id="128" class="fil120" points="160.35,96.09 160.35,96.74 44.45,96.74 44.45,96.09 "/>
      <polygon id="129" class="fil121" points="160.35,96.53 160.35,97.18 44.45,97.18 44.45,96.53 "/>
      <polygon id="130" class="fil122" points="160.35,96.96 160.35,97.62 44.45,97.62 44.45,96.96 "/>
      <polygon id="131" class="fil123" points="160.35,97.4 160.35,98.06 44.45,98.06 44.45,97.4 "/>
      <polygon id="132" class="fil124" points="160.35,97.84 160.35,98.5 44.45,98.5 44.45,97.84 "/>
      <polygon id="133" class="fil125" points="160.35,98.28 160.35,98.94 44.45,98.94 44.45,98.28 "/>
      <polygon id="134" class="fil126" points="160.35,98.72 160.35,99.38 44.45,99.38 44.45,98.72 "/>
      <polygon id="135" class="fil127" points="160.35,99.16 160.35,99.82 44.45,99.82 44.45,99.16 "/>
      <polygon id="136" class="fil128" points="160.35,99.6 160.35,100.26 44.45,100.26 44.45,99.6 "/>
      <polygon id="137" class="fil129" points="160.35,100.04 160.35,100.7 44.45,100.7 44.45,100.04 "/>
      <polygon id="138" class="fil130" points="160.35,100.48 160.35,101.14 44.45,101.14 44.45,100.48 "/>
      <polygon id="139" class="fil131" points="160.35,100.92 160.35,101.57 44.45,101.57 44.45,100.92 "/>
      <polygon id="140" class="fil132" points="160.35,101.36 160.35,102.01 44.45,102.01 44.45,101.36 "/>
      <polygon id="141" class="fil133" points="160.35,101.79 160.35,102.45 44.45,102.45 44.45,101.79 "/>
      <polygon id="142" class="fil134" points="160.35,102.23 160.35,102.89 44.45,102.89 44.45,102.23 "/>
      <polygon id="143" class="fil135" points="160.35,102.67 160.35,103.33 44.45,103.33 44.45,102.67 "/>
      <polygon id="144" class="fil136" points="160.35,103.11 160.35,103.77 44.45,103.77 44.45,103.11 "/>
      <polygon id="145" class="fil137" points="160.35,103.55 160.35,104.21 44.45,104.21 44.45,103.55 "/>
      <polygon id="146" class="fil138" points="160.35,103.99 160.35,104.65 44.45,104.65 44.45,103.99 "/>
      <polygon id="147" class="fil139" points="160.35,104.43 160.35,105.09 44.45,105.09 44.45,104.43 "/>
      <polygon id="148" class="fil140" points="160.35,104.87 160.35,105.53 44.45,105.53 44.45,104.87 "/>
      <polygon id="149" class="fil141" points="160.35,105.31 160.35,105.97 44.45,105.97 44.45,105.31 "/>
      <polygon id="150" class="fil142" points="160.35,105.75 160.35,106.4 44.45,106.4 44.45,105.75 "/>
      <polygon id="151" class="fil143" points="160.35,106.19 160.35,106.84 44.45,106.84 44.45,106.19 "/>
      <polygon id="152" class="fil144" points="160.35,106.62 160.35,107.28 44.45,107.28 44.45,106.62 "/>
      <polygon id="153" class="fil145" points="160.35,107.06 160.35,107.72 44.45,107.72 44.45,107.06 "/>
      <polygon id="154" class="fil146" points="160.35,107.5 160.35,108.16 44.45,108.16 44.45,107.5 "/>
      <polygon id="155" class="fil147" points="160.35,107.94 160.35,108.6 44.45,108.6 44.45,107.94 "/>
      <polygon id="156" class="fil148" points="160.35,108.38 160.35,109.04 44.45,109.04 44.45,108.38 "/>
      <polygon id="157" class="fil149" points="160.35,108.82 160.35,109.48 44.45,109.48 44.45,108.82 "/>
      <polygon id="158" class="fil150" points="160.35,109.26 160.35,109.92 44.45,109.92 44.45,109.26 "/>
      <polygon id="159" class="fil151" points="160.35,109.7 160.35,110.36 44.45,110.36 44.45,109.7 "/>
      <polygon id="160" class="fil152" points="160.35,110.14 160.35,110.8 44.45,110.8 44.45,110.14 "/>
      <polygon id="161" class="fil153" points="160.35,110.58 160.35,111.23 44.45,111.23 44.45,110.58 "/>
      <polygon id="162" class="fil154" points="160.35,111.02 160.35,111.67 44.45,111.67 44.45,111.02 "/>
      <polygon id="163" class="fil155" points="160.35,111.45 160.35,112.11 44.45,112.11 44.45,111.45 "/>
      <polygon id="164" class="fil156" points="160.35,111.89 160.35,112.55 44.45,112.55 44.45,111.89 "/>
      <polygon id="165" class="fil157" points="160.35,112.33 160.35,112.99 44.45,112.99 44.45,112.33 "/>
      <polygon id="166" class="fil158" points="160.35,112.77 160.35,113.43 44.45,113.43 44.45,112.77 "/>
      <polygon id="167" class="fil159" points="160.35,113.21 160.35,113.87 44.45,113.87 44.45,113.21 "/>
      <polygon id="168" class="fil160" points="160.35,113.65 160.35,114.31 44.45,114.31 44.45,113.65 "/>
      <polygon id="169" class="fil161" points="160.35,114.09 160.35,114.75 44.45,114.75 44.45,114.09 "/>
      <polygon id="170" class="fil162" points="160.35,114.53 160.35,115.19 44.45,115.19 44.45,114.53 "/>
      <polygon id="171" class="fil163" points="160.35,114.97 160.35,115.63 44.45,115.63 44.45,114.97 "/>
      <polygon id="172" class="fil164" points="160.35,115.41 160.35,116.07 44.45,116.07 44.45,115.41 "/>
      <polygon id="173" class="fil165" points="160.35,115.85 160.35,116.5 44.45,116.5 44.45,115.85 "/>
      <polygon id="174" class="fil166" points="160.35,116.28 160.35,116.94 44.45,116.94 44.45,116.28 "/>
      <polygon id="175" class="fil167" points="160.35,116.72 160.35,117.38 44.45,117.38 44.45,116.72 "/>
      <polygon id="176" class="fil168" points="160.35,117.16 160.35,117.82 44.45,117.82 44.45,117.16 "/>
      <polygon id="177" class="fil169" points="160.35,117.6 160.35,118.26 44.45,118.26 44.45,117.6 "/>
      <polygon id="178" class="fil170" points="160.35,118.04 160.35,118.7 44.45,118.7 44.45,118.04 "/>
      <polygon id="179" class="fil171" points="160.35,118.48 160.35,119.14 44.45,119.14 44.45,118.48 "/>
      <polygon id="180" class="fil172" points="160.35,118.92 160.35,119.58 44.45,119.58 44.45,118.92 "/>
      <polygon id="181" class="fil173" points="160.35,119.36 160.35,120.02 44.45,120.02 44.45,119.36 "/>
      <polygon id="182" class="fil174" points="160.35,119.8 160.35,120.46 44.45,120.46 44.45,119.8 "/>
      <polygon id="183" class="fil175" points="160.35,120.24 160.35,120.9 44.45,120.9 44.45,120.24 "/>
      <polygon id="184" class="fil175" points="160.35,120.68 160.35,121.33 44.45,121.33 44.45,120.68 "/>
      <polygon id="185" class="fil176" points="160.35,121.11 160.35,121.77 44.45,121.77 44.45,121.11 "/>
      <polygon id="186" class="fil177" points="160.35,121.55 160.35,122.21 44.45,122.21 44.45,121.55 "/>
      <polygon id="187" class="fil178" points="160.35,121.99 160.35,122.65 44.45,122.65 44.45,121.99 "/>
      <polygon id="188" class="fil179" points="160.35,122.43 160.35,123.09 44.45,123.09 44.45,122.43 "/>
      <polygon id="189" class="fil180" points="160.35,122.87 160.35,123.53 44.45,123.53 44.45,122.87 "/>
      <polygon id="190" class="fil181" points="160.35,123.31 160.35,123.97 44.45,123.97 44.45,123.31 "/>
      <polygon id="191" class="fil182" points="160.35,123.75 160.35,124.41 44.45,124.41 44.45,123.75 "/>
      <polygon id="192" class="fil183" points="160.35,124.19 160.35,124.85 44.45,124.85 44.45,124.19 "/>
      <polygon id="193" class="fil184" points="160.35,124.63 160.35,125.29 44.45,125.29 44.45,124.63 "/>
      <polygon id="194" class="fil185" points="160.35,125.07 160.35,125.73 44.45,125.73 44.45,125.07 "/>
      <polygon id="195" class="fil185" points="160.35,125.51 160.35,126.16 44.45,126.16 44.45,125.51 "/>
      <polygon id="196" class="fil186" points="160.35,125.94 160.35,126.6 44.45,126.6 44.45,125.94 "/>
      <polygon id="197" class="fil187" points="160.35,126.38 160.35,127.04 44.45,127.04 44.45,126.38 "/>
      <polygon id="198" class="fil188" points="160.35,126.82 160.35,127.48 44.45,127.48 44.45,126.82 "/>
      <polygon id="199" class="fil189" points="160.35,127.26 160.35,127.92 44.45,127.92 44.45,127.26 "/>
      <polygon id="200" class="fil190" points="160.35,127.7 160.35,128.36 44.45,128.36 44.45,127.7 "/>
      <polygon id="201" class="fil191" points="160.35,128.14 160.35,128.8 44.45,128.8 44.45,128.14 "/>
      <polygon id="202" class="fil191" points="160.35,128.58 160.35,129.24 44.45,129.24 44.45,128.58 "/>
      <polygon id="203" class="fil192" points="160.35,129.02 160.35,129.68 44.45,129.68 44.45,129.02 "/>
      <polygon id="204" class="fil193" points="160.35,129.46 160.35,130.12 44.45,130.12 44.45,129.46 "/>
      <polygon id="205" class="fil194" points="160.35,129.9 160.35,130.56 44.45,130.56 44.45,129.9 "/>
      <polygon id="206" class="fil195" points="160.35,130.34 160.35,130.99 44.45,130.99 44.45,130.34 "/>
      <polygon id="207" class="fil196" points="160.35,130.77 160.35,131.43 44.45,131.43 44.45,130.77 "/>
      <polygon id="208" class="fil196" points="160.35,131.21 160.35,131.87 44.45,131.87 44.45,131.21 "/>
      <polygon id="209" class="fil197" points="160.35,131.65 160.35,132.31 44.45,132.31 44.45,131.65 "/>
      <polygon id="210" class="fil198" points="160.35,132.09 160.35,132.75 44.45,132.75 44.45,132.09 "/>
      <polygon id="211" class="fil199" points="160.35,132.53 160.35,133.19 44.45,133.19 44.45,132.53 "/>
      <polygon id="212" class="fil200" points="160.35,132.97 160.35,133.63 44.45,133.63 44.45,132.97 "/>
      <polygon id="213" class="fil200" points="160.35,133.41 160.35,134.07 44.45,134.07 44.45,133.41 "/>
      <polygon id="214" class="fil201" points="160.35,133.85 160.35,134.51 44.45,134.51 44.45,133.85 "/>
      <polygon id="215" class="fil202" points="160.35,134.29 160.35,134.95 44.45,134.95 44.45,134.29 "/>
      <polygon id="216" class="fil203" points="160.35,134.73 160.35,135.39 44.45,135.39 44.45,134.73 "/>
      <polygon id="217" class="fil203" points="160.35,135.17 160.35,135.82 44.45,135.82 44.45,135.17 "/>
      <polygon id="218" class="fil204" points="160.35,135.6 160.35,136.26 44.45,136.26 44.45,135.6 "/>
      <polygon id="219" class="fil205" points="160.35,136.04 160.35,136.7 44.45,136.7 44.45,136.04 "/>
      <polygon id="220" class="fil206" points="160.35,136.48 160.35,137.14 44.45,137.14 44.45,136.48 "/>
      <polygon id="221" class="fil207" points="160.35,136.92 160.35,137.58 44.45,137.58 44.45,136.92 "/>
      <polygon id="222" class="fil207" points="160.35,137.36 160.35,138.02 44.45,138.02 44.45,137.36 "/>
      <polygon id="223" class="fil208" points="160.35,137.8 160.35,138.46 44.45,138.46 44.45,137.8 "/>
      <polygon id="224" class="fil209" points="160.35,138.24 160.35,138.9 44.45,138.9 44.45,138.24 "/>
      <polygon id="225" class="fil210" points="160.35,138.68 160.35,139.34 44.45,139.34 44.45,138.68 "/>
      <polygon id="226" class="fil210" points="160.35,139.12 160.35,139.78 44.45,139.78 44.45,139.12 "/>
      <polygon id="227" class="fil211" points="160.35,139.56 160.35,140.22 44.45,140.22 44.45,139.56 "/>
      <polygon id="228" class="fil212" points="160.35,140 160.35,140.65 44.45,140.65 44.45,140 "/>
      <polygon id="229" class="fil212" points="160.35,140.44 160.35,141.09 44.45,141.09 44.45,140.44 "/>
      <polygon id="230" class="fil213" points="160.35,140.87 160.35,141.53 44.45,141.53 44.45,140.87 "/>
      <polygon id="231" class="fil214" points="160.35,141.31 160.35,141.97 44.45,141.97 44.45,141.31 "/>
      <polygon id="232" class="fil215" points="160.35,141.75 160.35,142.41 44.45,142.41 44.45,141.75 "/>
      <polygon id="233" class="fil215" points="160.35,142.19 160.35,142.85 44.45,142.85 44.45,142.19 "/>
      <polygon id="234" class="fil216" points="160.35,142.63 160.35,143.29 44.45,143.29 44.45,142.63 "/>
      <polygon id="235" class="fil217" points="160.35,143.07 160.35,143.73 44.45,143.73 44.45,143.07 "/>
      <polygon id="236" class="fil217" points="160.35,143.51 160.35,144.17 44.45,144.17 44.45,143.51 "/>
      <polygon id="237" class="fil218" points="160.35,143.95 160.35,144.61 44.45,144.61 44.45,143.95 "/>
      <polygon id="238" class="fil219" points="160.35,144.39 160.35,145.05 44.45,145.05 44.45,144.39 "/>
      <polygon id="239" class="fil219" points="160.35,144.83 160.35,145.48 44.45,145.48 44.45,144.83 "/>
      <polygon id="240" class="fil220" points="160.35,145.27 160.35,145.92 44.45,145.92 44.45,145.27 "/>
      <polygon id="241" class="fil221" points="160.35,145.7 160.35,146.36 44.45,146.36 44.45,145.7 "/>
      <polygon id="242" class="fil222" points="160.35,146.14 160.35,146.8 44.45,146.8 44.45,146.14 "/>
      <polygon id="243" class="fil222" points="160.35,146.58 160.35,147.24 44.45,147.24 44.45,146.58 "/>
      <polygon id="244" class="fil223" points="160.35,147.02 160.35,147.68 44.45,147.68 44.45,147.02 "/>
      <polygon id="245" class="fil224" points="160.35,147.46 160.35,148.12 44.45,148.12 44.45,147.46 "/>
      <polygon id="246" class="fil224" points="160.35,147.9 160.35,148.56 44.45,148.56 44.45,147.9 "/>
      <polygon id="247" class="fil225" points="160.35,148.34 160.35,149 44.45,149 44.45,148.34 "/>
      <polygon id="248" class="fil226" points="160.35,148.78 160.35,149.44 44.45,149.44 44.45,148.78 "/>
      <polygon id="249" class="fil226" points="160.35,149.22 160.35,149.88 44.45,149.88 44.45,149.22 "/>
      <polygon id="250" class="fil227" points="160.35,149.66 160.35,150.31 44.45,150.31 44.45,149.66 "/>
      <polygon id="251" class="fil227" points="160.35,150.09 160.35,150.75 44.45,150.75 44.45,150.09 "/>
      <polygon id="252" class="fil228" points="160.35,150.53 160.35,151.19 44.45,151.19 44.45,150.53 "/>
      <polygon id="253" class="fil229" points="160.35,150.97 160.35,151.63 44.45,151.63 44.45,150.97 "/>
      <polygon id="254" class="fil229" points="160.35,151.41 160.35,152.07 44.45,152.07 44.45,151.41 "/>
      <polygon id="255" class="fil230" points="160.35,151.85 160.35,154.9 44.45,154.9 44.45,151.85 "/>
     </g>
    </g>
    <g>
     <g style="clip-path:url(#id1)">
      <polygon class="fil1" points="111.29,94.37 111.29,94.43 90.77,94.43 90.77,94.37 "/>
      <polygon id="1" class="fil2" points="111.29,94.37 111.29,94.56 90.77,94.56 90.77,94.37 "/>
      <polygon id="2" class="fil2" points="111.29,94.5 111.29,94.68 90.77,94.68 90.77,94.5 "/>
      <polygon id="3" class="fil3" points="111.29,94.62 111.29,94.81 90.77,94.81 90.77,94.62 "/>
      <polygon id="4" class="fil4" points="111.29,94.74 111.29,94.93 90.77,94.93 90.77,94.74 "/>
      <polygon id="5" class="fil5" points="111.29,94.87 111.29,95.05 90.77,95.05 90.77,94.87 "/>
      <polygon id="6" class="fil6" points="111.29,94.99 111.29,95.18 90.77,95.18 90.77,94.99 "/>
      <polygon id="7" class="fil6" points="111.29,95.12 111.29,95.3 90.77,95.3 90.77,95.12 "/>
      <polygon id="8" class="fil7" points="111.29,95.24 111.29,95.43 90.77,95.43 90.77,95.24 "/>
      <polygon id="9" class="fil8" points="111.29,95.37 111.29,95.55 90.77,95.55 90.77,95.37 "/>
      <polygon id="10" class="fil9" points="111.29,95.49 111.29,95.68 90.77,95.68 90.77,95.49 "/>
      <polygon id="11" class="fil9" points="111.29,95.61 111.29,95.8 90.77,95.8 90.77,95.61 "/>
      <polygon id="12" class="fil10" points="111.29,95.74 111.29,95.92 90.77,95.92 90.77,95.74 "/>
      <polygon id="13" class="fil11" points="111.29,95.86 111.29,96.05 90.77,96.05 90.77,95.86 "/>
      <polygon id="14" class="fil12" points="111.29,95.99 111.29,96.17 90.77,96.17 90.77,95.99 "/>
      <polygon id="15" class="fil13" points="111.29,96.11 111.29,96.3 90.77,96.3 90.77,96.11 "/>
      <polygon id="16" class="fil13" points="111.29,96.23 111.29,96.42 90.77,96.42 90.77,96.23 "/>
      <polygon id="17" class="fil14" points="111.29,96.36 111.29,96.54 90.77,96.54 90.77,96.36 "/>
      <polygon id="18" class="fil15" points="111.29,96.48 111.29,96.67 90.77,96.67 90.77,96.48 "/>
      <polygon id="19" class="fil16" points="111.29,96.61 111.29,96.79 90.77,96.79 90.77,96.61 "/>
      <polygon id="20" class="fil17" points="111.29,96.73 111.29,96.92 90.77,96.92 90.77,96.73 "/>
      <polygon id="21" class="fil17" points="111.29,96.85 111.29,97.04 90.77,97.04 90.77,96.85 "/>
      <polygon id="22" class="fil18" points="111.29,96.98 111.29,97.16 90.77,97.16 90.77,96.98 "/>
      <polygon id="23" class="fil19" points="111.29,97.1 111.29,97.29 90.77,97.29 90.77,97.1 "/>
      <polygon id="24" class="fil20" points="111.29,97.23 111.29,97.41 90.77,97.41 90.77,97.23 "/>
      <polygon id="25" class="fil21" points="111.29,97.35 111.29,97.54 90.77,97.54 90.77,97.35 "/>
      <polygon id="26" class="fil21" points="111.29,97.47 111.29,97.66 90.77,97.66 90.77,97.47 "/>
      <polygon id="27" class="fil22" points="111.29,97.6 111.29,97.79 90.77,97.79 90.77,97.6 "/>
      <polygon id="28" class="fil23" points="111.29,97.72 111.29,97.91 90.77,97.91 90.77,97.72 "/>
      <polygon id="29" class="fil24" points="111.29,97.85 111.29,98.03 90.77,98.03 90.77,97.85 "/>
      <polygon id="30" class="fil25" points="111.29,97.97 111.29,98.16 90.77,98.16 90.77,97.97 "/>
      <polygon id="31" class="fil26" points="111.29,98.1 111.29,98.28 90.77,98.28 90.77,98.1 "/>
      <polygon id="32" class="fil27" points="111.29,98.22 111.29,98.41 90.77,98.41 90.77,98.22 "/>
      <polygon id="33" class="fil27" points="111.29,98.34 111.29,98.53 90.77,98.53 90.77,98.34 "/>
      <polygon id="34" class="fil28" points="111.29,98.47 111.29,98.65 90.77,98.65 90.77,98.47 "/>
      <polygon id="35" class="fil29" points="111.29,98.59 111.29,98.78 90.77,98.78 90.77,98.59 "/>
      <polygon id="36" class="fil30" points="111.29,98.72 111.29,98.9 90.77,98.9 90.77,98.72 "/>
      <polygon id="37" class="fil31" points="111.29,98.84 111.29,99.03 90.77,99.03 90.77,98.84 "/>
      <polygon id="38" class="fil32" points="111.29,98.96 111.29,99.15 90.77,99.15 90.77,98.96 "/>
      <polygon id="39" class="fil33" points="111.29,99.09 111.29,99.27 90.77,99.27 90.77,99.09 "/>
      <polygon id="40" class="fil34" points="111.29,99.21 111.29,99.4 90.77,99.4 90.77,99.21 "/>
      <polygon id="41" class="fil34" points="111.29,99.34 111.29,99.52 90.77,99.52 90.77,99.34 "/>
      <polygon id="42" class="fil35" points="111.29,99.46 111.29,99.65 90.77,99.65 90.77,99.46 "/>
      <polygon id="43" class="fil36" points="111.29,99.58 111.29,99.77 90.77,99.77 90.77,99.58 "/>
      <polygon id="44" class="fil37" points="111.29,99.71 111.29,99.89 90.77,99.89 90.77,99.71 "/>
      <polygon id="45" class="fil38" points="111.29,99.83 111.29,100.02 90.77,100.02 90.77,99.83 "/>
      <polygon id="46" class="fil39" points="111.29,99.96 111.29,100.14 90.77,100.14 90.77,99.96 "/>
      <polygon id="47" class="fil40" points="111.29,100.08 111.29,100.27 90.77,100.27 90.77,100.08 "/>
      <polygon id="48" class="fil41" points="111.29,100.21 111.29,100.39 90.77,100.39 90.77,100.21 "/>
      <polygon id="49" class="fil42" points="111.29,100.33 111.29,100.52 90.77,100.52 90.77,100.33 "/>
      <polygon id="50" class="fil43" points="111.29,100.45 111.29,100.64 90.77,100.64 90.77,100.45 "/>
      <polygon id="51" class="fil44" points="111.29,100.58 111.29,100.76 90.77,100.76 90.77,100.58 "/>
      <polygon id="52" class="fil45" points="111.29,100.7 111.29,100.89 90.77,100.89 90.77,100.7 "/>
      <polygon id="53" class="fil46" points="111.29,100.83 111.29,101.01 90.77,101.01 90.77,100.83 "/>
      <polygon id="54" class="fil47" points="111.29,100.95 111.29,101.14 90.77,101.14 90.77,100.95 "/>
      <polygon id="55" class="fil48" points="111.29,101.07 111.29,101.26 90.77,101.26 90.77,101.07 "/>
      <polygon id="56" class="fil49" points="111.29,101.2 111.29,101.38 90.77,101.38 90.77,101.2 "/>
      <polygon id="57" class="fil50" points="111.29,101.32 111.29,101.51 90.77,101.51 90.77,101.32 "/>
      <polygon id="58" class="fil50" points="111.29,101.45 111.29,101.63 90.77,101.63 90.77,101.45 "/>
      <polygon id="59" class="fil51" points="111.29,101.57 111.29,101.76 90.77,101.76 90.77,101.57 "/>
      <polygon id="60" class="fil52" points="111.29,101.69 111.29,101.88 90.77,101.88 90.77,101.69 "/>
      <polygon id="61" class="fil53" points="111.29,101.82 111.29,102 90.77,102 90.77,101.82 "/>
      <polygon id="62" class="fil54" points="111.29,101.94 111.29,102.13 90.77,102.13 90.77,101.94 "/>
      <polygon id="63" class="fil55" points="111.29,102.07 111.29,102.25 90.77,102.25 90.77,102.07 "/>
      <polygon id="64" class="fil56" points="111.29,102.19 111.29,102.38 90.77,102.38 90.77,102.19 "/>
      <polygon id="65" class="fil57" points="111.29,102.31 111.29,102.5 90.77,102.5 90.77,102.31 "/>
      <polygon id="66" class="fil58" points="111.29,102.44 111.29,102.62 90.77,102.62 90.77,102.44 "/>
      <polygon id="67" class="fil59" points="111.29,102.56 111.29,102.75 90.77,102.75 90.77,102.56 "/>
      <polygon id="68" class="fil60" points="111.29,102.69 111.29,102.87 90.77,102.87 90.77,102.69 "/>
      <polygon id="69" class="fil61" points="111.29,102.81 111.29,103 90.77,103 90.77,102.81 "/>
      <polygon id="70" class="fil62" points="111.29,102.94 111.29,103.12 90.77,103.12 90.77,102.94 "/>
      <polygon id="71" class="fil63" points="111.29,103.06 111.29,103.25 90.77,103.25 90.77,103.06 "/>
      <polygon id="72" class="fil64" points="111.29,103.18 111.29,103.37 90.77,103.37 90.77,103.18 "/>
      <polygon id="73" class="fil65" points="111.29,103.31 111.29,103.49 90.77,103.49 90.77,103.31 "/>
      <polygon id="74" class="fil66" points="111.29,103.43 111.29,103.62 90.77,103.62 90.77,103.43 "/>
      <polygon id="75" class="fil67" points="111.29,103.56 111.29,103.74 90.77,103.74 90.77,103.56 "/>
      <polygon id="76" class="fil68" points="111.29,103.68 111.29,103.87 90.77,103.87 90.77,103.68 "/>
      <polygon id="77" class="fil69" points="111.29,103.8 111.29,103.99 90.77,103.99 90.77,103.8 "/>
      <polygon id="78" class="fil70" points="111.29,103.93 111.29,104.11 90.77,104.11 90.77,103.93 "/>
      <polygon id="79" class="fil71" points="111.29,104.05 111.29,104.24 90.77,104.24 90.77,104.05 "/>
      <polygon id="80" class="fil72" points="111.29,104.18 111.29,104.36 90.77,104.36 90.77,104.18 "/>
      <polygon id="81" class="fil73" points="111.29,104.3 111.29,104.49 90.77,104.49 90.77,104.3 "/>
      <polygon id="82" class="fil74" points="111.29,104.42 111.29,104.61 90.77,104.61 90.77,104.42 "/>
      <polygon id="83" class="fil75" points="111.29,104.55 111.29,104.73 90.77,104.73 90.77,104.55 "/>
      <polygon id="84" class="fil76" points="111.29,104.67 111.29,104.86 90.77,104.86 90.77,104.67 "/>
      <polygon id="85" class="fil77" points="111.29,104.8 111.29,104.98 90.77,104.98 90.77,104.8 "/>
      <polygon id="86" class="fil78" points="111.29,104.92 111.29,105.11 90.77,105.11 90.77,104.92 "/>
      <polygon id="87" class="fil79" points="111.29,105.04 111.29,105.23 90.77,105.23 90.77,105.04 "/>
      <polygon id="88" class="fil80" points="111.29,105.17 111.29,105.35 90.77,105.35 90.77,105.17 "/>
      <polygon id="89" class="fil81" points="111.29,105.29 111.29,105.48 90.77,105.48 90.77,105.29 "/>
      <polygon id="90" class="fil82" points="111.29,105.42 111.29,105.6 90.77,105.6 90.77,105.42 "/>
      <polygon id="91" class="fil83" points="111.29,105.54 111.29,105.73 90.77,105.73 90.77,105.54 "/>
      <polygon id="92" class="fil84" points="111.29,105.67 111.29,105.85 90.77,105.85 90.77,105.67 "/>
      <polygon id="93" class="fil85" points="111.29,105.79 111.29,105.98 90.77,105.98 90.77,105.79 "/>
      <polygon id="94" class="fil86" points="111.29,105.91 111.29,106.1 90.77,106.1 90.77,105.91 "/>
      <polygon id="95" class="fil87" points="111.29,106.04 111.29,106.22 90.77,106.22 90.77,106.04 "/>
      <polygon id="96" class="fil88" points="111.29,106.16 111.29,106.35 90.77,106.35 90.77,106.16 "/>
      <polygon id="97" class="fil89" points="111.29,106.29 111.29,106.47 90.77,106.47 90.77,106.29 "/>
      <polygon id="98" class="fil90" points="111.29,106.41 111.29,106.6 90.77,106.6 90.77,106.41 "/>
      <polygon id="99" class="fil91" points="111.29,106.53 111.29,106.72 90.77,106.72 90.77,106.53 "/>
      <polygon id="100" class="fil92" points="111.29,106.66 111.29,106.84 90.77,106.84 90.77,106.66 "/>
      <polygon id="101" class="fil93" points="111.29,106.78 111.29,106.97 90.77,106.97 90.77,106.78 "/>
      <polygon id="102" class="fil94" points="111.29,106.91 111.29,107.09 90.77,107.09 90.77,106.91 "/>
      <polygon id="103" class="fil95" points="111.29,107.03 111.29,107.22 90.77,107.22 90.77,107.03 "/>
      <polygon id="104" class="fil96" points="111.29,107.15 111.29,107.34 90.77,107.34 90.77,107.15 "/>
      <polygon id="105" class="fil97" points="111.29,107.28 111.29,107.46 90.77,107.46 90.77,107.28 "/>
      <polygon id="106" class="fil98" points="111.29,107.4 111.29,107.59 90.77,107.59 90.77,107.4 "/>
      <polygon id="107" class="fil99" points="111.29,107.53 111.29,107.71 90.77,107.71 90.77,107.53 "/>
      <polygon id="108" class="fil100" points="111.29,107.65 111.29,107.84 90.77,107.84 90.77,107.65 "/>
      <polygon id="109" class="fil101" points="111.29,107.77 111.29,107.96 90.77,107.96 90.77,107.77 "/>
      <polygon id="110" class="fil102" points="111.29,107.9 111.29,108.09 90.77,108.09 90.77,107.9 "/>
      <polygon id="111" class="fil103" points="111.29,108.02 111.29,108.21 90.77,108.21 90.77,108.02 "/>
      <polygon id="112" class="fil104" points="111.29,108.15 111.29,108.33 90.77,108.33 90.77,108.15 "/>
      <polygon id="113" class="fil105" points="111.29,108.27 111.29,108.46 90.77,108.46 90.77,108.27 "/>
      <polygon id="114" class="fil106" points="111.29,108.4 111.29,108.58 90.77,108.58 90.77,108.4 "/>
      <polygon id="115" class="fil107" points="111.29,108.52 111.29,108.71 90.77,108.71 90.77,108.52 "/>
      <polygon id="116" class="fil108" points="111.29,108.64 111.29,108.83 90.77,108.83 90.77,108.64 "/>
      <polygon id="117" class="fil109" points="111.29,108.77 111.29,108.95 90.77,108.95 90.77,108.77 "/>
      <polygon id="118" class="fil110" points="111.29,108.89 111.29,109.08 90.77,109.08 90.77,108.89 "/>
      <polygon id="119" class="fil111" points="111.29,109.02 111.29,109.2 90.77,109.2 90.77,109.02 "/>
      <polygon id="120" class="fil112" points="111.29,109.14 111.29,109.33 90.77,109.33 90.77,109.14 "/>
      <polygon id="121" class="fil113" points="111.29,109.26 111.29,109.45 90.77,109.45 90.77,109.26 "/>
      <polygon id="122" class="fil114" points="111.29,109.39 111.29,109.57 90.77,109.57 90.77,109.39 "/>
      <polygon id="123" class="fil115" points="111.29,109.51 111.29,109.7 90.77,109.7 90.77,109.51 "/>
      <polygon id="124" class="fil116" points="111.29,109.64 111.29,109.82 90.77,109.82 90.77,109.64 "/>
      <polygon id="125" class="fil117" points="111.29,109.76 111.29,109.95 90.77,109.95 90.77,109.76 "/>
      <polygon id="126" class="fil118" points="111.29,109.88 111.29,110.07 90.77,110.07 90.77,109.88 "/>
      <polygon id="127" class="fil119" points="111.29,110.01 111.29,110.19 90.77,110.19 90.77,110.01 "/>
      <polygon id="128" class="fil120" points="111.29,110.13 111.29,110.32 90.77,110.32 90.77,110.13 "/>
      <polygon id="129" class="fil121" points="111.29,110.26 111.29,110.44 90.77,110.44 90.77,110.26 "/>
      <polygon id="130" class="fil122" points="111.29,110.38 111.29,110.57 90.77,110.57 90.77,110.38 "/>
      <polygon id="131" class="fil123" points="111.29,110.51 111.29,110.69 90.77,110.69 90.77,110.51 "/>
      <polygon id="132" class="fil124" points="111.29,110.63 111.29,110.82 90.77,110.82 90.77,110.63 "/>
      <polygon id="133" class="fil125" points="111.29,110.75 111.29,110.94 90.77,110.94 90.77,110.75 "/>
      <polygon id="134" class="fil126" points="111.29,110.88 111.29,111.06 90.77,111.06 90.77,110.88 "/>
      <polygon id="135" class="fil127" points="111.29,111 111.29,111.19 90.77,111.19 90.77,111 "/>
      <polygon id="136" class="fil128" points="111.29,111.13 111.29,111.31 90.77,111.31 90.77,111.13 "/>
      <polygon id="137" class="fil129" points="111.29,111.25 111.29,111.44 90.77,111.44 90.77,111.25 "/>
      <polygon id="138" class="fil130" points="111.29,111.37 111.29,111.56 90.77,111.56 90.77,111.37 "/>
      <polygon id="139" class="fil131" points="111.29,111.5 111.29,111.68 90.77,111.68 90.77,111.5 "/>
      <polygon id="140" class="fil132" points="111.29,111.62 111.29,111.81 90.77,111.81 90.77,111.62 "/>
      <polygon id="141" class="fil133" points="111.29,111.75 111.29,111.93 90.77,111.93 90.77,111.75 "/>
      <polygon id="142" class="fil134" points="111.29,111.87 111.29,112.06 90.77,112.06 90.77,111.87 "/>
      <polygon id="143" class="fil135" points="111.29,111.99 111.29,112.18 90.77,112.18 90.77,111.99 "/>
      <polygon id="144" class="fil136" points="111.29,112.12 111.29,112.3 90.77,112.3 90.77,112.12 "/>
      <polygon id="145" class="fil137" points="111.29,112.24 111.29,112.43 90.77,112.43 90.77,112.24 "/>
      <polygon id="146" class="fil138" points="111.29,112.37 111.29,112.55 90.77,112.55 90.77,112.37 "/>
      <polygon id="147" class="fil139" points="111.29,112.49 111.29,112.68 90.77,112.68 90.77,112.49 "/>
      <polygon id="148" class="fil140" points="111.29,112.61 111.29,112.8 90.77,112.8 90.77,112.61 "/>
      <polygon id="149" class="fil141" points="111.29,112.74 111.29,112.92 90.77,112.92 90.77,112.74 "/>
      <polygon id="150" class="fil142" points="111.29,112.86 111.29,113.05 90.77,113.05 90.77,112.86 "/>
      <polygon id="151" class="fil143" points="111.29,112.99 111.29,113.17 90.77,113.17 90.77,112.99 "/>
      <polygon id="152" class="fil144" points="111.29,113.11 111.29,113.3 90.77,113.3 90.77,113.11 "/>
      <polygon id="153" class="fil145" points="111.29,113.24 111.29,113.42 90.77,113.42 90.77,113.24 "/>
      <polygon id="154" class="fil146" points="111.29,113.36 111.29,113.55 90.77,113.55 90.77,113.36 "/>
      <polygon id="155" class="fil147" points="111.29,113.48 111.29,113.67 90.77,113.67 90.77,113.48 "/>
      <polygon id="156" class="fil148" points="111.29,113.61 111.29,113.79 90.77,113.79 90.77,113.61 "/>
      <polygon id="157" class="fil149" points="111.29,113.73 111.29,113.92 90.77,113.92 90.77,113.73 "/>
      <polygon id="158" class="fil150" points="111.29,113.86 111.29,114.04 90.77,114.04 90.77,113.86 "/>
      <polygon id="159" class="fil151" points="111.29,113.98 111.29,114.17 90.77,114.17 90.77,113.98 "/>
      <polygon id="160" class="fil152" points="111.29,114.1 111.29,114.29 90.77,114.29 90.77,114.1 "/>
      <polygon id="161" class="fil153" points="111.29,114.23 111.29,114.41 90.77,114.41 90.77,114.23 "/>
      <polygon id="162" class="fil154" points="111.29,114.35 111.29,114.54 90.77,114.54 90.77,114.35 "/>
      <polygon id="163" class="fil155" points="111.29,114.48 111.29,114.66 90.77,114.66 90.77,114.48 "/>
      <polygon id="164" class="fil156" points="111.29,114.6 111.29,114.79 90.77,114.79 90.77,114.6 "/>
      <polygon id="165" class="fil157" points="111.29,114.72 111.29,114.91 90.77,114.91 90.77,114.72 "/>
      <polygon id="166" class="fil158" points="111.29,114.85 111.29,115.03 90.77,115.03 90.77,114.85 "/>
      <polygon id="167" class="fil159" points="111.29,114.97 111.29,115.16 90.77,115.16 90.77,114.97 "/>
      <polygon id="168" class="fil160" points="111.29,115.1 111.29,115.28 90.77,115.28 90.77,115.1 "/>
      <polygon id="169" class="fil161" points="111.29,115.22 111.29,115.41 90.77,115.41 90.77,115.22 "/>
      <polygon id="170" class="fil162" points="111.29,115.34 111.29,115.53 90.77,115.53 90.77,115.34 "/>
      <polygon id="171" class="fil163" points="111.29,115.47 111.29,115.65 90.77,115.65 90.77,115.47 "/>
      <polygon id="172" class="fil164" points="111.29,115.59 111.29,115.78 90.77,115.78 90.77,115.59 "/>
      <polygon id="173" class="fil165" points="111.29,115.72 111.29,115.9 90.77,115.9 90.77,115.72 "/>
      <polygon id="174" class="fil166" points="111.29,115.84 111.29,116.03 90.77,116.03 90.77,115.84 "/>
      <polygon id="175" class="fil167" points="111.29,115.97 111.29,116.15 90.77,116.15 90.77,115.97 "/>
      <polygon id="176" class="fil168" points="111.29,116.09 111.29,116.28 90.77,116.28 90.77,116.09 "/>
      <polygon id="177" class="fil169" points="111.29,116.21 111.29,116.4 90.77,116.4 90.77,116.21 "/>
      <polygon id="178" class="fil170" points="111.29,116.34 111.29,116.52 90.77,116.52 90.77,116.34 "/>
      <polygon id="179" class="fil171" points="111.29,116.46 111.29,116.65 90.77,116.65 90.77,116.46 "/>
      <polygon id="180" class="fil172" points="111.29,116.59 111.29,116.77 90.77,116.77 90.77,116.59 "/>
      <polygon id="181" class="fil173" points="111.29,116.71 111.29,116.9 90.77,116.9 90.77,116.71 "/>
      <polygon id="182" class="fil174" points="111.29,116.83 111.29,117.02 90.77,117.02 90.77,116.83 "/>
      <polygon id="183" class="fil175" points="111.29,116.96 111.29,117.14 90.77,117.14 90.77,116.96 "/>
      <polygon id="184" class="fil175" points="111.29,117.08 111.29,117.27 90.77,117.27 90.77,117.08 "/>
      <polygon id="185" class="fil176" points="111.29,117.21 111.29,117.39 90.77,117.39 90.77,117.21 "/>
      <polygon id="186" class="fil177" points="111.29,117.33 111.29,117.52 90.77,117.52 90.77,117.33 "/>
      <polygon id="187" class="fil178" points="111.29,117.45 111.29,117.64 90.77,117.64 90.77,117.45 "/>
      <polygon id="188" class="fil179" points="111.29,117.58 111.29,117.76 90.77,117.76 90.77,117.58 "/>
      <polygon id="189" class="fil180" points="111.29,117.7 111.29,117.89 90.77,117.89 90.77,117.7 "/>
      <polygon id="190" class="fil181" points="111.29,117.83 111.29,118.01 90.77,118.01 90.77,117.83 "/>
      <polygon id="191" class="fil182" points="111.29,117.95 111.29,118.14 90.77,118.14 90.77,117.95 "/>
      <polygon id="192" class="fil183" points="111.29,118.07 111.29,118.26 90.77,118.26 90.77,118.07 "/>
      <polygon id="193" class="fil184" points="111.29,118.2 111.29,118.39 90.77,118.39 90.77,118.2 "/>
      <polygon id="194" class="fil185" points="111.29,118.32 111.29,118.51 90.77,118.51 90.77,118.32 "/>
      <polygon id="195" class="fil185" points="111.29,118.45 111.29,118.63 90.77,118.63 90.77,118.45 "/>
      <polygon id="196" class="fil186" points="111.29,118.57 111.29,118.76 90.77,118.76 90.77,118.57 "/>
      <polygon id="197" class="fil187" points="111.29,118.7 111.29,118.88 90.77,118.88 90.77,118.7 "/>
      <polygon id="198" class="fil188" points="111.29,118.82 111.29,119.01 90.77,119.01 90.77,118.82 "/>
      <polygon id="199" class="fil189" points="111.29,118.94 111.29,119.13 90.77,119.13 90.77,118.94 "/>
      <polygon id="200" class="fil190" points="111.29,119.07 111.29,119.25 90.77,119.25 90.77,119.07 "/>
      <polygon id="201" class="fil191" points="111.29,119.19 111.29,119.38 90.77,119.38 90.77,119.19 "/>
      <polygon id="202" class="fil191" points="111.29,119.32 111.29,119.5 90.77,119.5 90.77,119.32 "/>
      <polygon id="203" class="fil192" points="111.29,119.44 111.29,119.63 90.77,119.63 90.77,119.44 "/>
      <polygon id="204" class="fil193" points="111.29,119.56 111.29,119.75 90.77,119.75 90.77,119.56 "/>
      <polygon id="205" class="fil194" points="111.29,119.69 111.29,119.87 90.77,119.87 90.77,119.69 "/>
      <polygon id="206" class="fil195" points="111.29,119.81 111.29,120 90.77,120 90.77,119.81 "/>
      <polygon id="207" class="fil196" points="111.29,119.94 111.29,120.12 90.77,120.12 90.77,119.94 "/>
      <polygon id="208" class="fil196" points="111.29,120.06 111.29,120.25 90.77,120.25 90.77,120.06 "/>
      <polygon id="209" class="fil197" points="111.29,120.18 111.29,120.37 90.77,120.37 90.77,120.18 "/>
      <polygon id="210" class="fil198" points="111.29,120.31 111.29,120.49 90.77,120.49 90.77,120.31 "/>
      <polygon id="211" class="fil199" points="111.29,120.43 111.29,120.62 90.77,120.62 90.77,120.43 "/>
      <polygon id="212" class="fil200" points="111.29,120.56 111.29,120.74 90.77,120.74 90.77,120.56 "/>
      <polygon id="213" class="fil200" points="111.29,120.68 111.29,120.87 90.77,120.87 90.77,120.68 "/>
      <polygon id="214" class="fil201" points="111.29,120.8 111.29,120.99 90.77,120.99 90.77,120.8 "/>
      <polygon id="215" class="fil202" points="111.29,120.93 111.29,121.12 90.77,121.12 90.77,120.93 "/>
      <polygon id="216" class="fil203" points="111.29,121.05 111.29,121.24 90.77,121.24 90.77,121.05 "/>
      <polygon id="217" class="fil203" points="111.29,121.18 111.29,121.36 90.77,121.36 90.77,121.18 "/>
      <polygon id="218" class="fil204" points="111.29,121.3 111.29,121.49 90.77,121.49 90.77,121.3 "/>
      <polygon id="219" class="fil205" points="111.29,121.43 111.29,121.61 90.77,121.61 90.77,121.43 "/>
      <polygon id="220" class="fil206" points="111.29,121.55 111.29,121.74 90.77,121.74 90.77,121.55 "/>
      <polygon id="221" class="fil207" points="111.29,121.67 111.29,121.86 90.77,121.86 90.77,121.67 "/>
      <polygon id="222" class="fil207" points="111.29,121.8 111.29,121.98 90.77,121.98 90.77,121.8 "/>
      <polygon id="223" class="fil208" points="111.29,121.92 111.29,122.11 90.77,122.11 90.77,121.92 "/>
      <polygon id="224" class="fil209" points="111.29,122.05 111.29,122.23 90.77,122.23 90.77,122.05 "/>
      <polygon id="225" class="fil210" points="111.29,122.17 111.29,122.36 90.77,122.36 90.77,122.17 "/>
      <polygon id="226" class="fil210" points="111.29,122.29 111.29,122.48 90.77,122.48 90.77,122.29 "/>
      <polygon id="227" class="fil211" points="111.29,122.42 111.29,122.6 90.77,122.6 90.77,122.42 "/>
      <polygon id="228" class="fil212" points="111.29,122.54 111.29,122.73 90.77,122.73 90.77,122.54 "/>
      <polygon id="229" class="fil212" points="111.29,122.67 111.29,122.85 90.77,122.85 90.77,122.67 "/>
      <polygon id="230" class="fil213" points="111.29,122.79 111.29,122.98 90.77,122.98 90.77,122.79 "/>
      <polygon id="231" class="fil214" points="111.29,122.91 111.29,123.1 90.77,123.1 90.77,122.91 "/>
      <polygon id="232" class="fil215" points="111.29,123.04 111.29,123.22 90.77,123.22 90.77,123.04 "/>
      <polygon id="233" class="fil215" points="111.29,123.16 111.29,123.35 90.77,123.35 90.77,123.16 "/>
      <polygon id="234" class="fil216" points="111.29,123.29 111.29,123.47 90.77,123.47 90.77,123.29 "/>
      <polygon id="235" class="fil217" points="111.29,123.41 111.29,123.6 90.77,123.6 90.77,123.41 "/>
      <polygon id="236" class="fil217" points="111.29,123.54 111.29,123.72 90.77,123.72 90.77,123.54 "/>
      <polygon id="237" class="fil218" points="111.29,123.66 111.29,123.85 90.77,123.85 90.77,123.66 "/>
      <polygon id="238" class="fil219" points="111.29,123.78 111.29,123.97 90.77,123.97 90.77,123.78 "/>
      <polygon id="239" class="fil219" points="111.29,123.91 111.29,124.09 90.77,124.09 90.77,123.91 "/>
      <polygon id="240" class="fil220" points="111.29,124.03 111.29,124.22 90.77,124.22 90.77,124.03 "/>
      <polygon id="241" class="fil221" points="111.29,124.16 111.29,124.34 90.77,124.34 90.77,124.16 "/>
      <polygon id="242" class="fil222" points="111.29,124.28 111.29,124.47 90.77,124.47 90.77,124.28 "/>
      <polygon id="243" class="fil222" points="111.29,124.4 111.29,124.59 90.77,124.59 90.77,124.4 "/>
      <polygon id="244" class="fil223" points="111.29,124.53 111.29,124.71 90.77,124.71 90.77,124.53 "/>
      <polygon id="245" class="fil224" points="111.29,124.65 111.29,124.84 90.77,124.84 90.77,124.65 "/>
      <polygon id="246" class="fil224" points="111.29,124.78 111.29,124.96 90.77,124.96 90.77,124.78 "/>
      <polygon id="247" class="fil225" points="111.29,124.9 111.29,125.09 90.77,125.09 90.77,124.9 "/>
      <polygon id="248" class="fil226" points="111.29,125.02 111.29,125.21 90.77,125.21 90.77,125.02 "/>
      <polygon id="249" class="fil226" points="111.29,125.15 111.29,125.33 90.77,125.33 90.77,125.15 "/>
      <polygon id="250" class="fil227" points="111.29,125.27 111.29,125.46 90.77,125.46 90.77,125.27 "/>
      <polygon id="251" class="fil227" points="111.29,125.4 111.29,125.58 90.77,125.58 90.77,125.4 "/>
      <polygon id="252" class="fil228" points="111.29,125.52 111.29,125.71 90.77,125.71 90.77,125.52 "/>
      <polygon id="253" class="fil229" points="111.29,125.64 111.29,125.83 90.77,125.83 90.77,125.64 "/>
      <polygon id="254" class="fil229" points="111.29,125.77 111.29,125.95 90.77,125.95 90.77,125.77 "/>
      <polygon id="255" class="fil230" points="111.29,125.89 111.29,129.24 90.77,129.24 90.77,125.89 "/>
     </g>
    </g>
   </g>
   <circle class="fil1 str1" cx="43.06" cy="161.87" r="9.56"/>
  </g>
 </g>
</svg>
