<?xml version="1.0" encoding="UTF-8" standalone="no"?>
<!-- Created with Inkscape (http://www.inkscape.org/) -->

<svg
   width="135.3044mm"
   height="135.30438mm"
   viewBox="0 0 135.3044 135.30438"
   version="1.1"
   id="svg5"
   xml:space="preserve"
   xmlns:xlink="http://www.w3.org/1999/xlink"
   xmlns="http://www.w3.org/2000/svg"
   xmlns:svg="http://www.w3.org/2000/svg"><defs
     id="defs2"><linearGradient
       id="linearGradient1070"><stop
         offset="0.3305555"
         stop-color="#ffffff"
         stop-opacity="1.0000"
         id="stop1068" /><stop
         offset="1"
         stop-color="#04fafb"
         stop-opacity="1.0000"
         id="stop1066" /></linearGradient><linearGradient
       xlink:href="#linearGradient1070"
       id="grad2"
       x1="294.4552"
       y1="237.13712"
       x2="294.4552"
       y2="446.03302"
       gradientTransform="scale(1.0061457,0.99389189)"
       gradientUnits="userSpaceOnUse" /></defs><g
     id="layer1"
     transform="translate(-64.829988,-44.122)"><g
       id="g238"
       transform="translate(2.8387097,-9.2258069)"><path
         d="M 62.079472,63.780749 V 178.21929 q 0,10.34471 10.344715,10.34471 H 186.86272 q 10.34475,0 10.34475,-10.34471 V 63.780749 Q 197.20747,53.436 186.86272,53.436 H 72.424187 q -10.344715,0 -10.344715,10.344749 z"
         style="fill:#121f2f;fill-rule:evenodd;stroke:#000000;stroke-width:0.176389;stroke-linecap:butt;stroke-linejoin:miter;stroke-dasharray:none"
         id="path9" /><g
         id="Layer1000"
         transform="matrix(0.35277778,0,0,0.35277778,-11.945512,1.2324023)"><defs
           id="defs21" /><path
           d="m 500.7733,408.1467 c -25.0546,-43.3493 -43.7088,-90.4617 -67.3364,-134.7253 -4.4017,-8.246 -8.3064,-16.8108 -12.6774,-25.0296 -4.3792,-8.2332 -9.1922,-12.7933 -19.0672,-12.7018 -13.5825,0.1259 -17.616,13.051 -22.69,23.2759 -23.3784,47.1098 -48.5849,93.1019 -72.3852,139.924 -2.7017,5.315 -6.6985,11.4163 -8.8004,16.7757 -2.721,6.9384 -1.8984,14.6605 2.7411,20.5912 8.6493,11.0571 25.535,8.3347 32.9241,-2.7729 3.0144,-4.5317 5.2934,-10.7861 8.0206,-15.7722 5.5111,-10.0766 10.5534,-21.3874 15.3984,-31.8325 10.6801,-23.0258 21.38,-46.8615 33.3346,-69.213 3.3233,-6.2138 6.9602,-12.7684 10.9961,-18.5457 7.1762,9.188 14.5783,24.4185 19.6994,34.9935 12.5912,25.9996 23.8034,52.8715 36.7424,78.6344 3.4146,6.7992 10.5437,21.1856 16.3825,25.9671 9.2279,7.5566 23.2104,7.3281 29.8976,-3.477 5.2245,-8.4416 1.2875,-18.3192 -3.1802,-26.0918 z"
           style="fill:url(#grad2)"
           id="path23" /><path
           d="m 400.5369,335.7099 c -3.7738,7.7905 -8.4085,15.0744 -12.2179,22.9842 -3.0881,6.4119 -7.6547,16.1161 -5.76,23.3081 4.7216,17.9235 35.8897,16.0033 35.9685,-5.167 0.0292,-7.895 -5.4099,-17.0384 -8.9643,-23.9876 -2.8715,-5.6307 -5.817,-11.2198 -8.6499,-16.8709 -0.1219,-0.2438 -0.1004,-0.3541 -0.2659,-0.4541 z"
           style="fill:#04fafb;fill-rule:evenodd"
           id="path25" /><path
           d="m 531.4985,406.7042 a 17.6523,17.6523 0 0 1 17.6523,17.6523 17.6523,17.6523 0 1 1 -17.6523,-17.6523 z"
           style="fill:#04fafb;fill-rule:evenodd;stroke:#04fafb;stroke-width:0.5;stroke-linecap:butt;stroke-linejoin:miter;stroke-dasharray:none"
           id="path27" /></g></g></g></svg>
