<?xml version="1.0" encoding="UTF-8"?>
<!DOCTYPE svg PUBLIC "-//W3C//DTD SVG 1.1//EN" "http://www.w3.org/Graphics/SVG/1.1/DTD/svg11.dtd">
<!-- Creator: CorelDRAW 2017 -->
<svg xmlns="http://www.w3.org/2000/svg" xml:space="preserve" width="200px" height="200px" version="1.1" style="shape-rendering:geometricPrecision; text-rendering:geometricPrecision; image-rendering:optimizeQuality; fill-rule:evenodd; clip-rule:evenodd"
viewBox="0 0 203.95 203.97"
 xmlns:xlink="http://www.w3.org/1999/xlink">
 <defs>
  <style type="text/css">
   <![CDATA[
    .str0 {stroke:black;stroke-width:0.27}
    .str1 {stroke:#04FAFB;stroke-width:0.27}
    .fil2 {fill:#04FAFB}
    .fil1 {fill:#04FAFB}
    .fil3 {fill:#05FAFB}
    .fil4 {fill:#06FAFB}
    .fil5 {fill:#07FAFB}
    .fil6 {fill:#08FAFB}
    .fil7 {fill:#09FAFB}
    .fil8 {fill:#0AFAFB}
    .fil9 {fill:#0BFAFB}
    .fil10 {fill:#0CFAFB}
    .fil11 {fill:#0DFAFB}
    .fil12 {fill:#0EFAFB}
    .fil13 {fill:#0FFAFB}
    .fil14 {fill:#10FAFB}
    .fil15 {fill:#11FAFB}
    .fil0 {fill:#121F2F}
    .fil16 {fill:#12FAFB}
    .fil17 {fill:#13FAFB}
    .fil18 {fill:#14FAFB}
    .fil19 {fill:#15FAFB}
    .fil20 {fill:#16FAFB}
    .fil21 {fill:#17FAFB}
    .fil22 {fill:#18FAFB}
    .fil23 {fill:#19FAFB}
    .fil24 {fill:#1AFAFB}
    .fil25 {fill:#1BFAFB}
    .fil26 {fill:#1CFAFB}
    .fil27 {fill:#1DFAFB}
    .fil28 {fill:#1DFBFB}
    .fil29 {fill:#1EFBFB}
    .fil30 {fill:#1FFBFB}
    .fil31 {fill:#20FBFB}
    .fil32 {fill:#21FBFB}
    .fil33 {fill:#22FBFB}
    .fil34 {fill:#23FBFB}
    .fil35 {fill:#24FBFC}
    .fil36 {fill:#25FBFC}
    .fil37 {fill:#26FBFC}
    .fil38 {fill:#27FBFC}
    .fil39 {fill:#28FBFC}
    .fil40 {fill:#29FBFC}
    .fil41 {fill:#2AFBFC}
    .fil42 {fill:#2BFBFC}
    .fil43 {fill:#2CFBFC}
    .fil44 {fill:#2DFBFC}
    .fil45 {fill:#2EFBFC}
    .fil46 {fill:#2FFBFC}
    .fil47 {fill:#30FBFC}
    .fil48 {fill:#31FBFC}
    .fil49 {fill:#32FBFC}
    .fil50 {fill:#33FBFC}
    .fil51 {fill:#34FBFC}
    .fil52 {fill:#35FBFC}
    .fil53 {fill:#36FBFC}
    .fil54 {fill:#37FBFC}
    .fil55 {fill:#38FBFC}
    .fil56 {fill:#39FBFC}
    .fil57 {fill:#3AFBFC}
    .fil58 {fill:#3BFBFC}
    .fil59 {fill:#3CFBFC}
    .fil60 {fill:#3DFBFC}
    .fil61 {fill:#3EFBFC}
    .fil62 {fill:#3FFBFC}
    .fil63 {fill:#40FBFC}
    .fil64 {fill:#41FBFC}
    .fil65 {fill:#42FBFC}
    .fil66 {fill:#43FBFC}
    .fil67 {fill:#44FBFC}
    .fil68 {fill:#45FBFC}
    .fil69 {fill:#46FBFC}
    .fil70 {fill:#47FBFC}
    .fil71 {fill:#48FBFC}
    .fil72 {fill:#49FBFC}
    .fil73 {fill:#4AFBFC}
    .fil74 {fill:#4BFBFC}
    .fil75 {fill:#4CFBFC}
    .fil76 {fill:#4DFBFC}
    .fil77 {fill:#4EFBFC}
    .fil78 {fill:#4FFBFC}
    .fil79 {fill:#50FCFC}
    .fil80 {fill:#51FCFC}
    .fil81 {fill:#52FCFC}
    .fil82 {fill:#53FCFC}
    .fil83 {fill:#54FCFC}
    .fil84 {fill:#55FCFC}
    .fil85 {fill:#56FCFC}
    .fil86 {fill:#57FCFC}
    .fil87 {fill:#58FCFC}
    .fil88 {fill:#59FCFC}
    .fil89 {fill:#5AFCFC}
    .fil90 {fill:#5BFCFC}
    .fil91 {fill:#5CFCFC}
    .fil92 {fill:#5DFCFC}
    .fil93 {fill:#5EFCFC}
    .fil94 {fill:#5FFCFC}
    .fil95 {fill:#60FCFC}
    .fil96 {fill:#61FCFC}
    .fil97 {fill:#62FCFC}
    .fil98 {fill:#63FCFD}
    .fil99 {fill:#64FCFD}
    .fil100 {fill:#65FCFD}
    .fil101 {fill:#66FCFD}
    .fil102 {fill:#67FCFD}
    .fil103 {fill:#68FCFD}
    .fil104 {fill:#69FCFD}
    .fil105 {fill:#6AFCFD}
    .fil106 {fill:#6BFCFD}
    .fil107 {fill:#6CFCFD}
    .fil108 {fill:#6DFCFD}
    .fil109 {fill:#6EFCFD}
    .fil110 {fill:#6FFCFD}
    .fil111 {fill:#70FCFD}
    .fil112 {fill:#71FCFD}
    .fil113 {fill:#72FCFD}
    .fil114 {fill:#73FCFD}
    .fil115 {fill:#74FCFD}
    .fil116 {fill:#75FCFD}
    .fil117 {fill:#76FCFD}
    .fil118 {fill:#77FCFD}
    .fil119 {fill:#78FCFD}
    .fil120 {fill:#79FCFD}
    .fil121 {fill:#7AFCFD}
    .fil122 {fill:#7BFCFD}
    .fil123 {fill:#7CFCFD}
    .fil124 {fill:#7DFCFD}
    .fil125 {fill:#7EFCFD}
    .fil126 {fill:#7FFCFD}
    .fil127 {fill:#80FCFD}
    .fil128 {fill:#81FCFD}
    .fil129 {fill:#82FDFD}
    .fil130 {fill:#83FDFD}
    .fil131 {fill:#84FDFD}
    .fil132 {fill:#85FDFD}
    .fil133 {fill:#86FDFD}
    .fil134 {fill:#87FDFD}
    .fil135 {fill:#88FDFD}
    .fil136 {fill:#89FDFD}
    .fil137 {fill:#8AFDFD}
    .fil138 {fill:#8BFDFD}
    .fil139 {fill:#8CFDFD}
    .fil140 {fill:#8DFDFD}
    .fil141 {fill:#8EFDFD}
    .fil142 {fill:#8FFDFD}
    .fil143 {fill:#90FDFD}
    .fil144 {fill:#91FDFD}
    .fil145 {fill:#92FDFD}
    .fil146 {fill:#93FDFD}
    .fil147 {fill:#94FDFD}
    .fil148 {fill:#95FDFD}
    .fil149 {fill:#96FDFD}
    .fil150 {fill:#97FDFD}
    .fil151 {fill:#98FDFD}
    .fil152 {fill:#99FDFD}
    .fil153 {fill:#9AFDFD}
    .fil154 {fill:#9BFDFD}
    .fil155 {fill:#9CFDFD}
    .fil156 {fill:#9DFDFD}
    .fil157 {fill:#9EFDFD}
    .fil158 {fill:#9FFDFD}
    .fil159 {fill:#A0FDFD}
    .fil160 {fill:#A1FDFE}
    .fil161 {fill:#A2FDFE}
    .fil162 {fill:#A3FDFE}
    .fil163 {fill:#A4FDFE}
    .fil164 {fill:#A5FDFE}
    .fil165 {fill:#A6FDFE}
    .fil166 {fill:#A7FDFE}
    .fil167 {fill:#A8FDFE}
    .fil168 {fill:#A9FDFE}
    .fil169 {fill:#AAFDFE}
    .fil170 {fill:#ABFDFE}
    .fil171 {fill:#ACFDFE}
    .fil172 {fill:#ADFDFE}
    .fil173 {fill:#AEFDFE}
    .fil174 {fill:#AFFDFE}
    .fil175 {fill:#B0FDFE}
    .fil176 {fill:#B1FDFE}
    .fil177 {fill:#B2FDFE}
    .fil178 {fill:#B3FDFE}
    .fil179 {fill:#B4FEFE}
    .fil180 {fill:#B5FEFE}
    .fil181 {fill:#B6FEFE}
    .fil182 {fill:#B7FEFE}
    .fil183 {fill:#B8FEFE}
    .fil184 {fill:#B9FEFE}
    .fil185 {fill:#BAFEFE}
    .fil186 {fill:#BBFEFE}
    .fil187 {fill:#BCFEFE}
    .fil188 {fill:#BDFEFE}
    .fil189 {fill:#BEFEFE}
    .fil190 {fill:#BFFEFE}
    .fil191 {fill:#C0FEFE}
    .fil192 {fill:#C1FEFE}
    .fil193 {fill:#C2FEFE}
    .fil194 {fill:#C3FEFE}
    .fil195 {fill:#C4FEFE}
    .fil196 {fill:#C5FEFE}
    .fil197 {fill:#C6FEFE}
    .fil198 {fill:#C7FEFE}
    .fil199 {fill:#C8FEFE}
    .fil200 {fill:#C9FEFE}
    .fil201 {fill:#CAFEFE}
    .fil202 {fill:#CBFEFE}
    .fil203 {fill:#CCFEFE}
    .fil204 {fill:#CDFEFE}
    .fil205 {fill:#CEFEFE}
    .fil206 {fill:#CFFEFE}
    .fil207 {fill:#D0FEFE}
    .fil208 {fill:#D1FEFE}
    .fil209 {fill:#D2FEFE}
    .fil210 {fill:#D3FEFE}
    .fil211 {fill:#D4FEFE}
    .fil212 {fill:#D5FEFE}
    .fil213 {fill:#D6FEFE}
    .fil214 {fill:#D7FEFE}
    .fil215 {fill:#D8FEFE}
    .fil216 {fill:#D9FEFE}
    .fil217 {fill:#DAFEFE}
    .fil218 {fill:#DBFEFE}
    .fil219 {fill:#DCFEFE}
    .fil220 {fill:#DDFEFE}
    .fil221 {fill:#DEFEFE}
    .fil222 {fill:#DFFEFE}
    .fil223 {fill:#E0FEFF}
    .fil224 {fill:#E1FEFF}
    .fil225 {fill:#E2FEFF}
    .fil226 {fill:#E3FEFF}
    .fil227 {fill:#E4FEFF}
    .fil228 {fill:#E5FEFF}
    .fil229 {fill:#E6FEFF}
    .fil230 {fill:#E6FFFF}
    .fil231 {fill:#E7FFFF}
    .fil232 {fill:#E8FFFF}
    .fil233 {fill:#E9FFFF}
    .fil234 {fill:#EAFFFF}
    .fil235 {fill:#EBFFFF}
    .fil236 {fill:#ECFFFF}
    .fil237 {fill:#EDFFFF}
    .fil238 {fill:#EEFFFF}
    .fil239 {fill:#EFFFFF}
    .fil240 {fill:azure}
    .fil241 {fill:#F1FFFF}
    .fil242 {fill:#F2FFFF}
    .fil243 {fill:#F3FFFF}
    .fil244 {fill:#F4FFFF}
    .fil245 {fill:#F5FFFF}
    .fil246 {fill:#F6FFFF}
    .fil247 {fill:#F7FFFF}
    .fil248 {fill:#F8FFFF}
    .fil249 {fill:#F9FFFF}
    .fil250 {fill:#FAFFFF}
    .fil251 {fill:#FBFFFF}
    .fil252 {fill:#FCFFFF}
    .fil253 {fill:#FDFFFF}
    .fil254 {fill:#FEFFFF}
    .fil255 {fill:white}
   ]]>
  </style>
     <clipPath id="id0">
      <path d="M155.8 133.69c-13.56,-23.47 -23.66,-48.98 -36.45,-72.94 -2.39,-4.46 -4.5,-9.1 -6.87,-13.55 -2.37,-4.46 -4.98,-6.93 -10.32,-6.88 -7.36,0.07 -9.54,7.07 -12.29,12.6 -12.65,25.51 -26.3,50.41 -39.19,75.76 -1.46,2.88 -3.62,6.18 -4.76,9.08 -1.47,3.76 -1.03,7.94 1.48,11.15 4.69,5.99 13.83,4.51 17.83,-1.5 1.63,-2.45 2.86,-5.84 4.34,-8.54 2.98,-5.45 5.71,-11.58 8.34,-17.23 5.78,-12.47 11.57,-25.38 18.05,-37.48 1.79,-3.36 3.76,-6.91 5.95,-10.04 3.88,4.98 7.89,13.22 10.66,18.95 6.82,14.08 12.89,28.62 19.9,42.57 1.85,3.68 5.71,11.47 8.87,14.06 4.99,4.09 12.56,3.97 16.18,-1.88 2.83,-4.57 0.7,-9.92 -1.72,-14.13z"/>
     </clipPath>
 </defs>
 <g id="Layer_x0020_1">
  <metadata id="CorelCorpID_0Corel-Layer"/>
  <rect class="fil0 str0" x="0.14" y="0.14" width="203.68" height="203.69" rx="15.59" ry="15.57"/>
  <g id="_3001919104800">
   <g>
    <g style="clip-path:url(#id0)">
     <polygon class="fil1" points="160.35,40.27 160.35,40.43 44.45,40.43 44.45,40.27 "/>
     <polygon id="1" class="fil2" points="160.35,40.32 160.35,40.65 44.45,40.65 44.45,40.32 "/>
     <polygon id="2" class="fil2" points="160.35,40.54 160.35,40.87 44.45,40.87 44.45,40.54 "/>
     <polygon id="3" class="fil2" points="160.35,40.76 160.35,41.09 44.45,41.09 44.45,40.76 "/>
     <polygon id="4" class="fil2" points="160.35,40.98 160.35,41.31 44.45,41.31 44.45,40.98 "/>
     <polygon id="5" class="fil2" points="160.35,41.2 160.35,41.53 44.45,41.53 44.45,41.2 "/>
     <polygon id="6" class="fil2" points="160.35,41.42 160.35,41.75 44.45,41.75 44.45,41.42 "/>
     <polygon id="7" class="fil2" points="160.35,41.64 160.35,41.97 44.45,41.97 44.45,41.64 "/>
     <polygon id="8" class="fil2" points="160.35,41.86 160.35,42.19 44.45,42.19 44.45,41.86 "/>
     <polygon id="9" class="fil2" points="160.35,42.08 160.35,42.41 44.45,42.41 44.45,42.08 "/>
     <polygon id="10" class="fil2" points="160.35,42.3 160.35,42.63 44.45,42.63 44.45,42.3 "/>
     <polygon id="11" class="fil2" points="160.35,42.52 160.35,42.85 44.45,42.85 44.45,42.52 "/>
     <polygon id="12" class="fil2" points="160.35,42.74 160.35,43.07 44.45,43.07 44.45,42.74 "/>
     <polygon id="13" class="fil2" points="160.35,42.96 160.35,43.28 44.45,43.28 44.45,42.96 "/>
     <polygon id="14" class="fil2" points="160.35,43.17 160.35,43.5 44.45,43.5 44.45,43.17 "/>
     <polygon id="15" class="fil2" points="160.35,43.39 160.35,43.72 44.45,43.72 44.45,43.39 "/>
     <polygon id="16" class="fil2" points="160.35,43.61 160.35,43.94 44.45,43.94 44.45,43.61 "/>
     <polygon id="17" class="fil2" points="160.35,43.83 160.35,44.16 44.45,44.16 44.45,43.83 "/>
     <polygon id="18" class="fil2" points="160.35,44.05 160.35,44.38 44.45,44.38 44.45,44.05 "/>
     <polygon id="19" class="fil3" points="160.35,44.27 160.35,44.6 44.45,44.6 44.45,44.27 "/>
     <polygon id="20" class="fil3" points="160.35,44.49 160.35,44.82 44.45,44.82 44.45,44.49 "/>
     <polygon id="21" class="fil3" points="160.35,44.71 160.35,45.04 44.45,45.04 44.45,44.71 "/>
     <polygon id="22" class="fil3" points="160.35,44.93 160.35,45.26 44.45,45.26 44.45,44.93 "/>
     <polygon id="23" class="fil3" points="160.35,45.15 160.35,45.48 44.45,45.48 44.45,45.15 "/>
     <polygon id="24" class="fil3" points="160.35,45.37 160.35,45.7 44.45,45.7 44.45,45.37 "/>
     <polygon id="25" class="fil3" points="160.35,45.59 160.35,45.92 44.45,45.92 44.45,45.59 "/>
     <polygon id="26" class="fil3" points="160.35,45.81 160.35,46.14 44.45,46.14 44.45,45.81 "/>
     <polygon id="27" class="fil3" points="160.35,46.03 160.35,46.36 44.45,46.36 44.45,46.03 "/>
     <polygon id="28" class="fil3" points="160.35,46.25 160.35,46.58 44.45,46.58 44.45,46.25 "/>
     <polygon id="29" class="fil3" points="160.35,46.47 160.35,46.8 44.45,46.8 44.45,46.47 "/>
     <polygon id="30" class="fil3" points="160.35,46.69 160.35,47.02 44.45,47.02 44.45,46.69 "/>
     <polygon id="31" class="fil3" points="160.35,46.91 160.35,47.24 44.45,47.24 44.45,46.91 "/>
     <polygon id="32" class="fil3" points="160.35,47.13 160.35,47.46 44.45,47.46 44.45,47.13 "/>
     <polygon id="33" class="fil4" points="160.35,47.35 160.35,47.68 44.45,47.68 44.45,47.35 "/>
     <polygon id="34" class="fil4" points="160.35,47.57 160.35,47.9 44.45,47.9 44.45,47.57 "/>
     <polygon id="35" class="fil4" points="160.35,47.79 160.35,48.11 44.45,48.11 44.45,47.79 "/>
     <polygon id="36" class="fil4" points="160.35,48.01 160.35,48.33 44.45,48.33 44.45,48.01 "/>
     <polygon id="37" class="fil4" points="160.35,48.22 160.35,48.55 44.45,48.55 44.45,48.22 "/>
     <polygon id="38" class="fil4" points="160.35,48.44 160.35,48.77 44.45,48.77 44.45,48.44 "/>
     <polygon id="39" class="fil4" points="160.35,48.66 160.35,48.99 44.45,48.99 44.45,48.66 "/>
     <polygon id="40" class="fil4" points="160.35,48.88 160.35,49.21 44.45,49.21 44.45,48.88 "/>
     <polygon id="41" class="fil4" points="160.35,49.1 160.35,49.43 44.45,49.43 44.45,49.1 "/>
     <polygon id="42" class="fil5" points="160.35,49.32 160.35,49.65 44.45,49.65 44.45,49.32 "/>
     <polygon id="43" class="fil5" points="160.35,49.54 160.35,49.87 44.45,49.87 44.45,49.54 "/>
     <polygon id="44" class="fil5" points="160.35,49.76 160.35,50.09 44.45,50.09 44.45,49.76 "/>
     <polygon id="45" class="fil5" points="160.35,49.98 160.35,50.31 44.45,50.31 44.45,49.98 "/>
     <polygon id="46" class="fil5" points="160.35,50.2 160.35,50.53 44.45,50.53 44.45,50.2 "/>
     <polygon id="47" class="fil5" points="160.35,50.42 160.35,50.75 44.45,50.75 44.45,50.42 "/>
     <polygon id="48" class="fil5" points="160.35,50.64 160.35,50.97 44.45,50.97 44.45,50.64 "/>
     <polygon id="49" class="fil6" points="160.35,50.86 160.35,51.19 44.45,51.19 44.45,50.86 "/>
     <polygon id="50" class="fil6" points="160.35,51.08 160.35,51.41 44.45,51.41 44.45,51.08 "/>
     <polygon id="51" class="fil6" points="160.35,51.3 160.35,51.63 44.45,51.63 44.45,51.3 "/>
     <polygon id="52" class="fil6" points="160.35,51.52 160.35,51.85 44.45,51.85 44.45,51.52 "/>
     <polygon id="53" class="fil6" points="160.35,51.74 160.35,52.07 44.45,52.07 44.45,51.74 "/>
     <polygon id="54" class="fil6" points="160.35,51.96 160.35,52.29 44.45,52.29 44.45,51.96 "/>
     <polygon id="55" class="fil7" points="160.35,52.18 160.35,52.51 44.45,52.51 44.45,52.18 "/>
     <polygon id="56" class="fil7" points="160.35,52.4 160.35,52.73 44.45,52.73 44.45,52.4 "/>
     <polygon id="57" class="fil7" points="160.35,52.62 160.35,52.94 44.45,52.94 44.45,52.62 "/>
     <polygon id="58" class="fil7" points="160.35,52.84 160.35,53.16 44.45,53.16 44.45,52.84 "/>
     <polygon id="59" class="fil7" points="160.35,53.05 160.35,53.38 44.45,53.38 44.45,53.05 "/>
     <polygon id="60" class="fil7" points="160.35,53.27 160.35,53.6 44.45,53.6 44.45,53.27 "/>
     <polygon id="61" class="fil8" points="160.35,53.49 160.35,53.82 44.45,53.82 44.45,53.49 "/>
     <polygon id="62" class="fil8" points="160.35,53.71 160.35,54.04 44.45,54.04 44.45,53.71 "/>
     <polygon id="63" class="fil8" points="160.35,53.93 160.35,54.26 44.45,54.26 44.45,53.93 "/>
     <polygon id="64" class="fil8" points="160.35,54.15 160.35,54.48 44.45,54.48 44.45,54.15 "/>
     <polygon id="65" class="fil8" points="160.35,54.37 160.35,54.7 44.45,54.7 44.45,54.37 "/>
     <polygon id="66" class="fil9" points="160.35,54.59 160.35,54.92 44.45,54.92 44.45,54.59 "/>
     <polygon id="67" class="fil9" points="160.35,54.81 160.35,55.14 44.45,55.14 44.45,54.81 "/>
     <polygon id="68" class="fil9" points="160.35,55.03 160.35,55.36 44.45,55.36 44.45,55.03 "/>
     <polygon id="69" class="fil9" points="160.35,55.25 160.35,55.58 44.45,55.58 44.45,55.25 "/>
     <polygon id="70" class="fil10" points="160.35,55.47 160.35,55.8 44.45,55.8 44.45,55.47 "/>
     <polygon id="71" class="fil10" points="160.35,55.69 160.35,56.02 44.45,56.02 44.45,55.69 "/>
     <polygon id="72" class="fil10" points="160.35,55.91 160.35,56.24 44.45,56.24 44.45,55.91 "/>
     <polygon id="73" class="fil10" points="160.35,56.13 160.35,56.46 44.45,56.46 44.45,56.13 "/>
     <polygon id="74" class="fil11" points="160.35,56.35 160.35,56.68 44.45,56.68 44.45,56.35 "/>
     <polygon id="75" class="fil11" points="160.35,56.57 160.35,56.9 44.45,56.9 44.45,56.57 "/>
     <polygon id="76" class="fil11" points="160.35,56.79 160.35,57.12 44.45,57.12 44.45,56.79 "/>
     <polygon id="77" class="fil11" points="160.35,57.01 160.35,57.34 44.45,57.34 44.45,57.01 "/>
     <polygon id="78" class="fil11" points="160.35,57.23 160.35,57.56 44.45,57.56 44.45,57.23 "/>
     <polygon id="79" class="fil12" points="160.35,57.45 160.35,57.77 44.45,57.77 44.45,57.45 "/>
     <polygon id="80" class="fil12" points="160.35,57.67 160.35,57.99 44.45,57.99 44.45,57.67 "/>
     <polygon id="81" class="fil12" points="160.35,57.88 160.35,58.21 44.45,58.21 44.45,57.88 "/>
     <polygon id="82" class="fil13" points="160.35,58.1 160.35,58.43 44.45,58.43 44.45,58.1 "/>
     <polygon id="83" class="fil13" points="160.35,58.32 160.35,58.65 44.45,58.65 44.45,58.32 "/>
     <polygon id="84" class="fil13" points="160.35,58.54 160.35,58.87 44.45,58.87 44.45,58.54 "/>
     <polygon id="85" class="fil13" points="160.35,58.76 160.35,59.09 44.45,59.09 44.45,58.76 "/>
     <polygon id="86" class="fil14" points="160.35,58.98 160.35,59.31 44.45,59.31 44.45,58.98 "/>
     <polygon id="87" class="fil14" points="160.35,59.2 160.35,59.53 44.45,59.53 44.45,59.2 "/>
     <polygon id="88" class="fil14" points="160.35,59.42 160.35,59.75 44.45,59.75 44.45,59.42 "/>
     <polygon id="89" class="fil15" points="160.35,59.64 160.35,59.97 44.45,59.97 44.45,59.64 "/>
     <polygon id="90" class="fil15" points="160.35,59.86 160.35,60.19 44.45,60.19 44.45,59.86 "/>
     <polygon id="91" class="fil15" points="160.35,60.08 160.35,60.41 44.45,60.41 44.45,60.08 "/>
     <polygon id="92" class="fil15" points="160.35,60.3 160.35,60.63 44.45,60.63 44.45,60.3 "/>
     <polygon id="93" class="fil16" points="160.35,60.52 160.35,60.85 44.45,60.85 44.45,60.52 "/>
     <polygon id="94" class="fil16" points="160.35,60.74 160.35,61.07 44.45,61.07 44.45,60.74 "/>
     <polygon id="95" class="fil16" points="160.35,60.96 160.35,61.29 44.45,61.29 44.45,60.96 "/>
     <polygon id="96" class="fil17" points="160.35,61.18 160.35,61.51 44.45,61.51 44.45,61.18 "/>
     <polygon id="97" class="fil17" points="160.35,61.4 160.35,61.73 44.45,61.73 44.45,61.4 "/>
     <polygon id="98" class="fil17" points="160.35,61.62 160.35,61.95 44.45,61.95 44.45,61.62 "/>
     <polygon id="99" class="fil18" points="160.35,61.84 160.35,62.17 44.45,62.17 44.45,61.84 "/>
     <polygon id="100" class="fil18" points="160.35,62.06 160.35,62.39 44.45,62.39 44.45,62.06 "/>
     <polygon id="101" class="fil18" points="160.35,62.28 160.35,62.6 44.45,62.6 44.45,62.28 "/>
     <polygon id="102" class="fil19" points="160.35,62.5 160.35,62.82 44.45,62.82 44.45,62.5 "/>
     <polygon id="103" class="fil19" points="160.35,62.71 160.35,63.04 44.45,63.04 44.45,62.71 "/>
     <polygon id="104" class="fil20" points="160.35,62.93 160.35,63.26 44.45,63.26 44.45,62.93 "/>
     <polygon id="105" class="fil20" points="160.35,63.15 160.35,63.48 44.45,63.48 44.45,63.15 "/>
     <polygon id="106" class="fil20" points="160.35,63.37 160.35,63.7 44.45,63.7 44.45,63.37 "/>
     <polygon id="107" class="fil21" points="160.35,63.59 160.35,63.92 44.45,63.92 44.45,63.59 "/>
     <polygon id="108" class="fil21" points="160.35,63.81 160.35,64.14 44.45,64.14 44.45,63.81 "/>
     <polygon id="109" class="fil21" points="160.35,64.03 160.35,64.36 44.45,64.36 44.45,64.03 "/>
     <polygon id="110" class="fil22" points="160.35,64.25 160.35,64.58 44.45,64.58 44.45,64.25 "/>
     <polygon id="111" class="fil22" points="160.35,64.47 160.35,64.8 44.45,64.8 44.45,64.47 "/>
     <polygon id="112" class="fil23" points="160.35,64.69 160.35,65.02 44.45,65.02 44.45,64.69 "/>
     <polygon id="113" class="fil23" points="160.35,64.91 160.35,65.24 44.45,65.24 44.45,64.91 "/>
     <polygon id="114" class="fil23" points="160.35,65.13 160.35,65.46 44.45,65.46 44.45,65.13 "/>
     <polygon id="115" class="fil24" points="160.35,65.35 160.35,65.68 44.45,65.68 44.45,65.35 "/>
     <polygon id="116" class="fil24" points="160.35,65.57 160.35,65.9 44.45,65.9 44.45,65.57 "/>
     <polygon id="117" class="fil25" points="160.35,65.79 160.35,66.12 44.45,66.12 44.45,65.79 "/>
     <polygon id="118" class="fil25" points="160.35,66.01 160.35,66.34 44.45,66.34 44.45,66.01 "/>
     <polygon id="119" class="fil25" points="160.35,66.23 160.35,66.56 44.45,66.56 44.45,66.23 "/>
     <polygon id="120" class="fil26" points="160.35,66.45 160.35,66.78 44.45,66.78 44.45,66.45 "/>
     <polygon id="121" class="fil26" points="160.35,66.67 160.35,67 44.45,67 44.45,66.67 "/>
     <polygon id="122" class="fil27" points="160.35,66.89 160.35,67.22 44.45,67.22 44.45,66.89 "/>
     <polygon id="123" class="fil28" points="160.35,67.11 160.35,67.44 44.45,67.44 44.45,67.11 "/>
     <polygon id="124" class="fil29" points="160.35,67.33 160.35,67.65 44.45,67.65 44.45,67.33 "/>
     <polygon id="125" class="fil29" points="160.35,67.54 160.35,67.87 44.45,67.87 44.45,67.54 "/>
     <polygon id="126" class="fil30" points="160.35,67.76 160.35,68.09 44.45,68.09 44.45,67.76 "/>
     <polygon id="127" class="fil30" points="160.35,67.98 160.35,68.31 44.45,68.31 44.45,67.98 "/>
     <polygon id="128" class="fil30" points="160.35,68.2 160.35,68.53 44.45,68.53 44.45,68.2 "/>
     <polygon id="129" class="fil31" points="160.35,68.42 160.35,68.75 44.45,68.75 44.45,68.42 "/>
     <polygon id="130" class="fil31" points="160.35,68.64 160.35,68.97 44.45,68.97 44.45,68.64 "/>
     <polygon id="131" class="fil32" points="160.35,68.86 160.35,69.19 44.45,69.19 44.45,68.86 "/>
     <polygon id="132" class="fil32" points="160.35,69.08 160.35,69.41 44.45,69.41 44.45,69.08 "/>
     <polygon id="133" class="fil33" points="160.35,69.3 160.35,69.63 44.45,69.63 44.45,69.3 "/>
     <polygon id="134" class="fil33" points="160.35,69.52 160.35,69.85 44.45,69.85 44.45,69.52 "/>
     <polygon id="135" class="fil34" points="160.35,69.74 160.35,70.07 44.45,70.07 44.45,69.74 "/>
     <polygon id="136" class="fil34" points="160.35,69.96 160.35,70.29 44.45,70.29 44.45,69.96 "/>
     <polygon id="137" class="fil35" points="160.35,70.18 160.35,70.51 44.45,70.51 44.45,70.18 "/>
     <polygon id="138" class="fil35" points="160.35,70.4 160.35,70.73 44.45,70.73 44.45,70.4 "/>
     <polygon id="139" class="fil36" points="160.35,70.62 160.35,70.95 44.45,70.95 44.45,70.62 "/>
     <polygon id="140" class="fil36" points="160.35,70.84 160.35,71.17 44.45,71.17 44.45,70.84 "/>
     <polygon id="141" class="fil37" points="160.35,71.06 160.35,71.39 44.45,71.39 44.45,71.06 "/>
     <polygon id="142" class="fil37" points="160.35,71.28 160.35,71.61 44.45,71.61 44.45,71.28 "/>
     <polygon id="143" class="fil38" points="160.35,71.5 160.35,71.83 44.45,71.83 44.45,71.5 "/>
     <polygon id="144" class="fil38" points="160.35,71.72 160.35,72.05 44.45,72.05 44.45,71.72 "/>
     <polygon id="145" class="fil39" points="160.35,71.94 160.35,72.27 44.45,72.27 44.45,71.94 "/>
     <polygon id="146" class="fil40" points="160.35,72.16 160.35,72.48 44.45,72.48 44.45,72.16 "/>
     <polygon id="147" class="fil40" points="160.35,72.37 160.35,72.7 44.45,72.7 44.45,72.37 "/>
     <polygon id="148" class="fil41" points="160.35,72.59 160.35,72.92 44.45,72.92 44.45,72.59 "/>
     <polygon id="149" class="fil41" points="160.35,72.81 160.35,73.14 44.45,73.14 44.45,72.81 "/>
     <polygon id="150" class="fil42" points="160.35,73.03 160.35,73.36 44.45,73.36 44.45,73.03 "/>
     <polygon id="151" class="fil42" points="160.35,73.25 160.35,73.58 44.45,73.58 44.45,73.25 "/>
     <polygon id="152" class="fil43" points="160.35,73.47 160.35,73.8 44.45,73.8 44.45,73.47 "/>
     <polygon id="153" class="fil44" points="160.35,73.69 160.35,74.02 44.45,74.02 44.45,73.69 "/>
     <polygon id="154" class="fil44" points="160.35,73.91 160.35,74.24 44.45,74.24 44.45,73.91 "/>
     <polygon id="155" class="fil45" points="160.35,74.13 160.35,74.46 44.45,74.46 44.45,74.13 "/>
     <polygon id="156" class="fil45" points="160.35,74.35 160.35,74.68 44.45,74.68 44.45,74.35 "/>
     <polygon id="157" class="fil46" points="160.35,74.57 160.35,74.9 44.45,74.9 44.45,74.57 "/>
     <polygon id="158" class="fil46" points="160.35,74.79 160.35,75.12 44.45,75.12 44.45,74.79 "/>
     <polygon id="159" class="fil47" points="160.35,75.01 160.35,75.34 44.45,75.34 44.45,75.01 "/>
     <polygon id="160" class="fil48" points="160.35,75.23 160.35,75.56 44.45,75.56 44.45,75.23 "/>
     <polygon id="161" class="fil48" points="160.35,75.45 160.35,75.78 44.45,75.78 44.45,75.45 "/>
     <polygon id="162" class="fil49" points="160.35,75.67 160.35,76 44.45,76 44.45,75.67 "/>
     <polygon id="163" class="fil50" points="160.35,75.89 160.35,76.22 44.45,76.22 44.45,75.89 "/>
     <polygon id="164" class="fil50" points="160.35,76.11 160.35,76.44 44.45,76.44 44.45,76.11 "/>
     <polygon id="165" class="fil51" points="160.35,76.33 160.35,76.66 44.45,76.66 44.45,76.33 "/>
     <polygon id="166" class="fil51" points="160.35,76.55 160.35,76.88 44.45,76.88 44.45,76.55 "/>
     <polygon id="167" class="fil52" points="160.35,76.77 160.35,77.1 44.45,77.1 44.45,76.77 "/>
     <polygon id="168" class="fil53" points="160.35,76.99 160.35,77.31 44.45,77.31 44.45,76.99 "/>
     <polygon id="169" class="fil53" points="160.35,77.2 160.35,77.53 44.45,77.53 44.45,77.2 "/>
     <polygon id="170" class="fil54" points="160.35,77.42 160.35,77.75 44.45,77.75 44.45,77.42 "/>
     <polygon id="171" class="fil55" points="160.35,77.64 160.35,77.97 44.45,77.97 44.45,77.64 "/>
     <polygon id="172" class="fil55" points="160.35,77.86 160.35,78.19 44.45,78.19 44.45,77.86 "/>
     <polygon id="173" class="fil56" points="160.35,78.08 160.35,78.41 44.45,78.41 44.45,78.08 "/>
     <polygon id="174" class="fil57" points="160.35,78.3 160.35,78.63 44.45,78.63 44.45,78.3 "/>
     <polygon id="175" class="fil57" points="160.35,78.52 160.35,78.85 44.45,78.85 44.45,78.52 "/>
     <polygon id="176" class="fil58" points="160.35,78.74 160.35,79.07 44.45,79.07 44.45,78.74 "/>
     <polygon id="177" class="fil59" points="160.35,78.96 160.35,79.29 44.45,79.29 44.45,78.96 "/>
     <polygon id="178" class="fil60" points="160.35,79.18 160.35,79.51 44.45,79.51 44.45,79.18 "/>
     <polygon id="179" class="fil60" points="160.35,79.4 160.35,79.73 44.45,79.73 44.45,79.4 "/>
     <polygon id="180" class="fil61" points="160.35,79.62 160.35,79.95 44.45,79.95 44.45,79.62 "/>
     <polygon id="181" class="fil62" points="160.35,79.84 160.35,80.17 44.45,80.17 44.45,79.84 "/>
     <polygon id="182" class="fil62" points="160.35,80.06 160.35,80.39 44.45,80.39 44.45,80.06 "/>
     <polygon id="183" class="fil63" points="160.35,80.28 160.35,80.61 44.45,80.61 44.45,80.28 "/>
     <polygon id="184" class="fil64" points="160.35,80.5 160.35,80.83 44.45,80.83 44.45,80.5 "/>
     <polygon id="185" class="fil65" points="160.35,80.72 160.35,81.05 44.45,81.05 44.45,80.72 "/>
     <polygon id="186" class="fil65" points="160.35,80.94 160.35,81.27 44.45,81.27 44.45,80.94 "/>
     <polygon id="187" class="fil66" points="160.35,81.16 160.35,81.49 44.45,81.49 44.45,81.16 "/>
     <polygon id="188" class="fil67" points="160.35,81.38 160.35,81.71 44.45,81.71 44.45,81.38 "/>
     <polygon id="189" class="fil68" points="160.35,81.6 160.35,81.93 44.45,81.93 44.45,81.6 "/>
     <polygon id="190" class="fil68" points="160.35,81.82 160.35,82.14 44.45,82.14 44.45,81.82 "/>
     <polygon id="191" class="fil69" points="160.35,82.04 160.35,82.36 44.45,82.36 44.45,82.04 "/>
     <polygon id="192" class="fil70" points="160.35,82.25 160.35,82.58 44.45,82.58 44.45,82.25 "/>
     <polygon id="193" class="fil71" points="160.35,82.47 160.35,82.8 44.45,82.8 44.45,82.47 "/>
     <polygon id="194" class="fil71" points="160.35,82.69 160.35,83.02 44.45,83.02 44.45,82.69 "/>
     <polygon id="195" class="fil72" points="160.35,82.91 160.35,83.24 44.45,83.24 44.45,82.91 "/>
     <polygon id="196" class="fil73" points="160.35,83.13 160.35,83.46 44.45,83.46 44.45,83.13 "/>
     <polygon id="197" class="fil74" points="160.35,83.35 160.35,83.68 44.45,83.68 44.45,83.35 "/>
     <polygon id="198" class="fil75" points="160.35,83.57 160.35,83.9 44.45,83.9 44.45,83.57 "/>
     <polygon id="199" class="fil75" points="160.35,83.79 160.35,84.12 44.45,84.12 44.45,83.79 "/>
     <polygon id="200" class="fil76" points="160.35,84.01 160.35,84.34 44.45,84.34 44.45,84.01 "/>
     <polygon id="201" class="fil77" points="160.35,84.23 160.35,84.56 44.45,84.56 44.45,84.23 "/>
     <polygon id="202" class="fil78" points="160.35,84.45 160.35,84.78 44.45,84.78 44.45,84.45 "/>
     <polygon id="203" class="fil79" points="160.35,84.67 160.35,85 44.45,85 44.45,84.67 "/>
     <polygon id="204" class="fil80" points="160.35,84.89 160.35,85.22 44.45,85.22 44.45,84.89 "/>
     <polygon id="205" class="fil80" points="160.35,85.11 160.35,85.44 44.45,85.44 44.45,85.11 "/>
     <polygon id="206" class="fil81" points="160.35,85.33 160.35,85.66 44.45,85.66 44.45,85.33 "/>
     <polygon id="207" class="fil82" points="160.35,85.55 160.35,85.88 44.45,85.88 44.45,85.55 "/>
     <polygon id="208" class="fil83" points="160.35,85.77 160.35,86.1 44.45,86.1 44.45,85.77 "/>
     <polygon id="209" class="fil84" points="160.35,85.99 160.35,86.32 44.45,86.32 44.45,85.99 "/>
     <polygon id="210" class="fil85" points="160.35,86.21 160.35,86.54 44.45,86.54 44.45,86.21 "/>
     <polygon id="211" class="fil85" points="160.35,86.43 160.35,86.76 44.45,86.76 44.45,86.43 "/>
     <polygon id="212" class="fil86" points="160.35,86.65 160.35,86.97 44.45,86.97 44.45,86.65 "/>
     <polygon id="213" class="fil87" points="160.35,86.87 160.35,87.19 44.45,87.19 44.45,86.87 "/>
     <polygon id="214" class="fil88" points="160.35,87.08 160.35,87.41 44.45,87.41 44.45,87.08 "/>
     <polygon id="215" class="fil89" points="160.35,87.3 160.35,87.63 44.45,87.63 44.45,87.3 "/>
     <polygon id="216" class="fil90" points="160.35,87.52 160.35,87.85 44.45,87.85 44.45,87.52 "/>
     <polygon id="217" class="fil91" points="160.35,87.74 160.35,88.07 44.45,88.07 44.45,87.74 "/>
     <polygon id="218" class="fil92" points="160.35,87.96 160.35,88.29 44.45,88.29 44.45,87.96 "/>
     <polygon id="219" class="fil93" points="160.35,88.18 160.35,88.51 44.45,88.51 44.45,88.18 "/>
     <polygon id="220" class="fil93" points="160.35,88.4 160.35,88.73 44.45,88.73 44.45,88.4 "/>
     <polygon id="221" class="fil94" points="160.35,88.62 160.35,88.95 44.45,88.95 44.45,88.62 "/>
     <polygon id="222" class="fil95" points="160.35,88.84 160.35,89.17 44.45,89.17 44.45,88.84 "/>
     <polygon id="223" class="fil96" points="160.35,89.06 160.35,89.39 44.45,89.39 44.45,89.06 "/>
     <polygon id="224" class="fil97" points="160.35,89.28 160.35,89.61 44.45,89.61 44.45,89.28 "/>
     <polygon id="225" class="fil98" points="160.35,89.5 160.35,89.83 44.45,89.83 44.45,89.5 "/>
     <polygon id="226" class="fil99" points="160.35,89.72 160.35,90.05 44.45,90.05 44.45,89.72 "/>
     <polygon id="227" class="fil100" points="160.35,89.94 160.35,90.27 44.45,90.27 44.45,89.94 "/>
     <polygon id="228" class="fil101" points="160.35,90.16 160.35,90.49 44.45,90.49 44.45,90.16 "/>
     <polygon id="229" class="fil102" points="160.35,90.38 160.35,90.71 44.45,90.71 44.45,90.38 "/>
     <polygon id="230" class="fil103" points="160.35,90.6 160.35,90.93 44.45,90.93 44.45,90.6 "/>
     <polygon id="231" class="fil104" points="160.35,90.82 160.35,91.15 44.45,91.15 44.45,90.82 "/>
     <polygon id="232" class="fil105" points="160.35,91.04 160.35,91.37 44.45,91.37 44.45,91.04 "/>
     <polygon id="233" class="fil106" points="160.35,91.26 160.35,91.59 44.45,91.59 44.45,91.26 "/>
     <polygon id="234" class="fil107" points="160.35,91.48 160.35,91.8 44.45,91.8 44.45,91.48 "/>
     <polygon id="235" class="fil108" points="160.35,91.7 160.35,92.02 44.45,92.02 44.45,91.7 "/>
     <polygon id="236" class="fil109" points="160.35,91.91 160.35,92.24 44.45,92.24 44.45,91.91 "/>
     <polygon id="237" class="fil110" points="160.35,92.13 160.35,92.46 44.45,92.46 44.45,92.13 "/>
     <polygon id="238" class="fil111" points="160.35,92.35 160.35,92.68 44.45,92.68 44.45,92.35 "/>
     <polygon id="239" class="fil112" points="160.35,92.57 160.35,92.9 44.45,92.9 44.45,92.57 "/>
     <polygon id="240" class="fil113" points="160.35,92.79 160.35,93.12 44.45,93.12 44.45,92.79 "/>
     <polygon id="241" class="fil114" points="160.35,93.01 160.35,93.34 44.45,93.34 44.45,93.01 "/>
     <polygon id="242" class="fil115" points="160.35,93.23 160.35,93.56 44.45,93.56 44.45,93.23 "/>
     <polygon id="243" class="fil116" points="160.35,93.45 160.35,93.78 44.45,93.78 44.45,93.45 "/>
     <polygon id="244" class="fil117" points="160.35,93.67 160.35,94 44.45,94 44.45,93.67 "/>
     <polygon id="245" class="fil118" points="160.35,93.89 160.35,94.22 44.45,94.22 44.45,93.89 "/>
     <polygon id="246" class="fil119" points="160.35,94.11 160.35,94.44 44.45,94.44 44.45,94.11 "/>
     <polygon id="247" class="fil120" points="160.35,94.33 160.35,94.66 44.45,94.66 44.45,94.33 "/>
     <polygon id="248" class="fil121" points="160.35,94.55 160.35,94.88 44.45,94.88 44.45,94.55 "/>
     <polygon id="249" class="fil122" points="160.35,94.77 160.35,95.1 44.45,95.1 44.45,94.77 "/>
     <polygon id="250" class="fil123" points="160.35,94.99 160.35,95.32 44.45,95.32 44.45,94.99 "/>
     <polygon id="251" class="fil124" points="160.35,95.21 160.35,95.54 44.45,95.54 44.45,95.21 "/>
     <polygon id="252" class="fil125" points="160.35,95.43 160.35,95.76 44.45,95.76 44.45,95.43 "/>
     <polygon id="253" class="fil126" points="160.35,95.65 160.35,95.98 44.45,95.98 44.45,95.65 "/>
     <polygon id="254" class="fil127" points="160.35,95.87 160.35,96.2 44.45,96.2 44.45,95.87 "/>
     <polygon id="255" class="fil128" points="160.35,96.09 160.35,96.42 44.45,96.42 44.45,96.09 "/>
     <polygon id="256" class="fil129" points="160.35,96.31 160.35,96.63 44.45,96.63 44.45,96.31 "/>
     <polygon id="257" class="fil130" points="160.35,96.53 160.35,96.85 44.45,96.85 44.45,96.53 "/>
     <polygon id="258" class="fil131" points="160.35,96.74 160.35,97.07 44.45,97.07 44.45,96.74 "/>
     <polygon id="259" class="fil132" points="160.35,96.96 160.35,97.29 44.45,97.29 44.45,96.96 "/>
     <polygon id="260" class="fil133" points="160.35,97.18 160.35,97.51 44.45,97.51 44.45,97.18 "/>
     <polygon id="261" class="fil134" points="160.35,97.4 160.35,97.73 44.45,97.73 44.45,97.4 "/>
     <polygon id="262" class="fil135" points="160.35,97.62 160.35,97.95 44.45,97.95 44.45,97.62 "/>
     <polygon id="263" class="fil136" points="160.35,97.84 160.35,98.17 44.45,98.17 44.45,97.84 "/>
     <polygon id="264" class="fil137" points="160.35,98.06 160.35,98.39 44.45,98.39 44.45,98.06 "/>
     <polygon id="265" class="fil138" points="160.35,98.28 160.35,98.61 44.45,98.61 44.45,98.28 "/>
     <polygon id="266" class="fil139" points="160.35,98.5 160.35,98.83 44.45,98.83 44.45,98.5 "/>
     <polygon id="267" class="fil140" points="160.35,98.72 160.35,99.05 44.45,99.05 44.45,98.72 "/>
     <polygon id="268" class="fil141" points="160.35,98.94 160.35,99.27 44.45,99.27 44.45,98.94 "/>
     <polygon id="269" class="fil142" points="160.35,99.16 160.35,99.49 44.45,99.49 44.45,99.16 "/>
     <polygon id="270" class="fil143" points="160.35,99.38 160.35,99.71 44.45,99.71 44.45,99.38 "/>
     <polygon id="271" class="fil144" points="160.35,99.6 160.35,99.93 44.45,99.93 44.45,99.6 "/>
     <polygon id="272" class="fil145" points="160.35,99.82 160.35,100.15 44.45,100.15 44.45,99.82 "/>
     <polygon id="273" class="fil146" points="160.35,100.04 160.35,100.37 44.45,100.37 44.45,100.04 "/>
     <polygon id="274" class="fil147" points="160.35,100.26 160.35,100.59 44.45,100.59 44.45,100.26 "/>
     <polygon id="275" class="fil148" points="160.35,100.48 160.35,100.81 44.45,100.81 44.45,100.48 "/>
     <polygon id="276" class="fil149" points="160.35,100.7 160.35,101.03 44.45,101.03 44.45,100.7 "/>
     <polygon id="277" class="fil150" points="160.35,100.92 160.35,101.25 44.45,101.25 44.45,100.92 "/>
     <polygon id="278" class="fil151" points="160.35,101.14 160.35,101.47 44.45,101.47 44.45,101.14 "/>
     <polygon id="279" class="fil152" points="160.35,101.36 160.35,101.68 44.45,101.68 44.45,101.36 "/>
     <polygon id="280" class="fil153" points="160.35,101.57 160.35,101.9 44.45,101.9 44.45,101.57 "/>
     <polygon id="281" class="fil154" points="160.35,101.79 160.35,102.12 44.45,102.12 44.45,101.79 "/>
     <polygon id="282" class="fil155" points="160.35,102.01 160.35,102.34 44.45,102.34 44.45,102.01 "/>
     <polygon id="283" class="fil156" points="160.35,102.23 160.35,102.56 44.45,102.56 44.45,102.23 "/>
     <polygon id="284" class="fil157" points="160.35,102.45 160.35,102.78 44.45,102.78 44.45,102.45 "/>
     <polygon id="285" class="fil158" points="160.35,102.67 160.35,103 44.45,103 44.45,102.67 "/>
     <polygon id="286" class="fil159" points="160.35,102.89 160.35,103.22 44.45,103.22 44.45,102.89 "/>
     <polygon id="287" class="fil160" points="160.35,103.11 160.35,103.44 44.45,103.44 44.45,103.11 "/>
     <polygon id="288" class="fil161" points="160.35,103.33 160.35,103.66 44.45,103.66 44.45,103.33 "/>
     <polygon id="289" class="fil162" points="160.35,103.55 160.35,103.88 44.45,103.88 44.45,103.55 "/>
     <polygon id="290" class="fil163" points="160.35,103.77 160.35,104.1 44.45,104.1 44.45,103.77 "/>
     <polygon id="291" class="fil164" points="160.35,103.99 160.35,104.32 44.45,104.32 44.45,103.99 "/>
     <polygon id="292" class="fil164" points="160.35,104.21 160.35,104.54 44.45,104.54 44.45,104.21 "/>
     <polygon id="293" class="fil165" points="160.35,104.43 160.35,104.76 44.45,104.76 44.45,104.43 "/>
     <polygon id="294" class="fil166" points="160.35,104.65 160.35,104.98 44.45,104.98 44.45,104.65 "/>
     <polygon id="295" class="fil167" points="160.35,104.87 160.35,105.2 44.45,105.2 44.45,104.87 "/>
     <polygon id="296" class="fil168" points="160.35,105.09 160.35,105.42 44.45,105.42 44.45,105.09 "/>
     <polygon id="297" class="fil169" points="160.35,105.31 160.35,105.64 44.45,105.64 44.45,105.31 "/>
     <polygon id="298" class="fil170" points="160.35,105.53 160.35,105.86 44.45,105.86 44.45,105.53 "/>
     <polygon id="299" class="fil171" points="160.35,105.75 160.35,106.08 44.45,106.08 44.45,105.75 "/>
     <polygon id="300" class="fil172" points="160.35,105.97 160.35,106.3 44.45,106.3 44.45,105.97 "/>
     <polygon id="301" class="fil172" points="160.35,106.19 160.35,106.51 44.45,106.51 44.45,106.19 "/>
     <polygon id="302" class="fil173" points="160.35,106.4 160.35,106.73 44.45,106.73 44.45,106.4 "/>
     <polygon id="303" class="fil174" points="160.35,106.62 160.35,106.95 44.45,106.95 44.45,106.62 "/>
     <polygon id="304" class="fil175" points="160.35,106.84 160.35,107.17 44.45,107.17 44.45,106.84 "/>
     <polygon id="305" class="fil176" points="160.35,107.06 160.35,107.39 44.45,107.39 44.45,107.06 "/>
     <polygon id="306" class="fil177" points="160.35,107.28 160.35,107.61 44.45,107.61 44.45,107.28 "/>
     <polygon id="307" class="fil177" points="160.35,107.5 160.35,107.83 44.45,107.83 44.45,107.5 "/>
     <polygon id="308" class="fil178" points="160.35,107.72 160.35,108.05 44.45,108.05 44.45,107.72 "/>
     <polygon id="309" class="fil179" points="160.35,107.94 160.35,108.27 44.45,108.27 44.45,107.94 "/>
     <polygon id="310" class="fil180" points="160.35,108.16 160.35,108.49 44.45,108.49 44.45,108.16 "/>
     <polygon id="311" class="fil181" points="160.35,108.38 160.35,108.71 44.45,108.71 44.45,108.38 "/>
     <polygon id="312" class="fil182" points="160.35,108.6 160.35,108.93 44.45,108.93 44.45,108.6 "/>
     <polygon id="313" class="fil182" points="160.35,108.82 160.35,109.15 44.45,109.15 44.45,108.82 "/>
     <polygon id="314" class="fil183" points="160.35,109.04 160.35,109.37 44.45,109.37 44.45,109.04 "/>
     <polygon id="315" class="fil184" points="160.35,109.26 160.35,109.59 44.45,109.59 44.45,109.26 "/>
     <polygon id="316" class="fil185" points="160.35,109.48 160.35,109.81 44.45,109.81 44.45,109.48 "/>
     <polygon id="317" class="fil186" points="160.35,109.7 160.35,110.03 44.45,110.03 44.45,109.7 "/>
     <polygon id="318" class="fil186" points="160.35,109.92 160.35,110.25 44.45,110.25 44.45,109.92 "/>
     <polygon id="319" class="fil187" points="160.35,110.14 160.35,110.47 44.45,110.47 44.45,110.14 "/>
     <polygon id="320" class="fil188" points="160.35,110.36 160.35,110.69 44.45,110.69 44.45,110.36 "/>
     <polygon id="321" class="fil189" points="160.35,110.58 160.35,110.91 44.45,110.91 44.45,110.58 "/>
     <polygon id="322" class="fil189" points="160.35,110.8 160.35,111.13 44.45,111.13 44.45,110.8 "/>
     <polygon id="323" class="fil190" points="160.35,111.02 160.35,111.34 44.45,111.34 44.45,111.02 "/>
     <polygon id="324" class="fil191" points="160.35,111.23 160.35,111.56 44.45,111.56 44.45,111.23 "/>
     <polygon id="325" class="fil192" points="160.35,111.45 160.35,111.78 44.45,111.78 44.45,111.45 "/>
     <polygon id="326" class="fil192" points="160.35,111.67 160.35,112 44.45,112 44.45,111.67 "/>
     <polygon id="327" class="fil193" points="160.35,111.89 160.35,112.22 44.45,112.22 44.45,111.89 "/>
     <polygon id="328" class="fil194" points="160.35,112.11 160.35,112.44 44.45,112.44 44.45,112.11 "/>
     <polygon id="329" class="fil195" points="160.35,112.33 160.35,112.66 44.45,112.66 44.45,112.33 "/>
     <polygon id="330" class="fil195" points="160.35,112.55 160.35,112.88 44.45,112.88 44.45,112.55 "/>
     <polygon id="331" class="fil196" points="160.35,112.77 160.35,113.1 44.45,113.1 44.45,112.77 "/>
     <polygon id="332" class="fil197" points="160.35,112.99 160.35,113.32 44.45,113.32 44.45,112.99 "/>
     <polygon id="333" class="fil197" points="160.35,113.21 160.35,113.54 44.45,113.54 44.45,113.21 "/>
     <polygon id="334" class="fil198" points="160.35,113.43 160.35,113.76 44.45,113.76 44.45,113.43 "/>
     <polygon id="335" class="fil199" points="160.35,113.65 160.35,113.98 44.45,113.98 44.45,113.65 "/>
     <polygon id="336" class="fil200" points="160.35,113.87 160.35,114.2 44.45,114.2 44.45,113.87 "/>
     <polygon id="337" class="fil200" points="160.35,114.09 160.35,114.42 44.45,114.42 44.45,114.09 "/>
     <polygon id="338" class="fil201" points="160.35,114.31 160.35,114.64 44.45,114.64 44.45,114.31 "/>
     <polygon id="339" class="fil202" points="160.35,114.53 160.35,114.86 44.45,114.86 44.45,114.53 "/>
     <polygon id="340" class="fil202" points="160.35,114.75 160.35,115.08 44.45,115.08 44.45,114.75 "/>
     <polygon id="341" class="fil203" points="160.35,114.97 160.35,115.3 44.45,115.3 44.45,114.97 "/>
     <polygon id="342" class="fil204" points="160.35,115.19 160.35,115.52 44.45,115.52 44.45,115.19 "/>
     <polygon id="343" class="fil204" points="160.35,115.41 160.35,115.74 44.45,115.74 44.45,115.41 "/>
     <polygon id="344" class="fil205" points="160.35,115.63 160.35,115.96 44.45,115.96 44.45,115.63 "/>
     <polygon id="345" class="fil206" points="160.35,115.85 160.35,116.17 44.45,116.17 44.45,115.85 "/>
     <polygon id="346" class="fil206" points="160.35,116.07 160.35,116.39 44.45,116.39 44.45,116.07 "/>
     <polygon id="347" class="fil207" points="160.35,116.28 160.35,116.61 44.45,116.61 44.45,116.28 "/>
     <polygon id="348" class="fil207" points="160.35,116.5 160.35,116.83 44.45,116.83 44.45,116.5 "/>
     <polygon id="349" class="fil208" points="160.35,116.72 160.35,117.05 44.45,117.05 44.45,116.72 "/>
     <polygon id="350" class="fil209" points="160.35,116.94 160.35,117.27 44.45,117.27 44.45,116.94 "/>
     <polygon id="351" class="fil209" points="160.35,117.16 160.35,117.49 44.45,117.49 44.45,117.16 "/>
     <polygon id="352" class="fil210" points="160.35,117.38 160.35,117.71 44.45,117.71 44.45,117.38 "/>
     <polygon id="353" class="fil211" points="160.35,117.6 160.35,117.93 44.45,117.93 44.45,117.6 "/>
     <polygon id="354" class="fil211" points="160.35,117.82 160.35,118.15 44.45,118.15 44.45,117.82 "/>
     <polygon id="355" class="fil212" points="160.35,118.04 160.35,118.37 44.45,118.37 44.45,118.04 "/>
     <polygon id="356" class="fil212" points="160.35,118.26 160.35,118.59 44.45,118.59 44.45,118.26 "/>
     <polygon id="357" class="fil213" points="160.35,118.48 160.35,118.81 44.45,118.81 44.45,118.48 "/>
     <polygon id="358" class="fil213" points="160.35,118.7 160.35,119.03 44.45,119.03 44.45,118.7 "/>
     <polygon id="359" class="fil214" points="160.35,118.92 160.35,119.25 44.45,119.25 44.45,118.92 "/>
     <polygon id="360" class="fil215" points="160.35,119.14 160.35,119.47 44.45,119.47 44.45,119.14 "/>
     <polygon id="361" class="fil215" points="160.35,119.36 160.35,119.69 44.45,119.69 44.45,119.36 "/>
     <polygon id="362" class="fil216" points="160.35,119.58 160.35,119.91 44.45,119.91 44.45,119.58 "/>
     <polygon id="363" class="fil216" points="160.35,119.8 160.35,120.13 44.45,120.13 44.45,119.8 "/>
     <polygon id="364" class="fil217" points="160.35,120.02 160.35,120.35 44.45,120.35 44.45,120.02 "/>
     <polygon id="365" class="fil217" points="160.35,120.24 160.35,120.57 44.45,120.57 44.45,120.24 "/>
     <polygon id="366" class="fil218" points="160.35,120.46 160.35,120.79 44.45,120.79 44.45,120.46 "/>
     <polygon id="367" class="fil219" points="160.35,120.68 160.35,121 44.45,121 44.45,120.68 "/>
     <polygon id="368" class="fil219" points="160.35,120.9 160.35,121.22 44.45,121.22 44.45,120.9 "/>
     <polygon id="369" class="fil220" points="160.35,121.11 160.35,121.44 44.45,121.44 44.45,121.11 "/>
     <polygon id="370" class="fil220" points="160.35,121.33 160.35,121.66 44.45,121.66 44.45,121.33 "/>
     <polygon id="371" class="fil221" points="160.35,121.55 160.35,121.88 44.45,121.88 44.45,121.55 "/>
     <polygon id="372" class="fil221" points="160.35,121.77 160.35,122.1 44.45,122.1 44.45,121.77 "/>
     <polygon id="373" class="fil222" points="160.35,121.99 160.35,122.32 44.45,122.32 44.45,121.99 "/>
     <polygon id="374" class="fil222" points="160.35,122.21 160.35,122.54 44.45,122.54 44.45,122.21 "/>
     <polygon id="375" class="fil223" points="160.35,122.43 160.35,122.76 44.45,122.76 44.45,122.43 "/>
     <polygon id="376" class="fil223" points="160.35,122.65 160.35,122.98 44.45,122.98 44.45,122.65 "/>
     <polygon id="377" class="fil224" points="160.35,122.87 160.35,123.2 44.45,123.2 44.45,122.87 "/>
     <polygon id="378" class="fil224" points="160.35,123.09 160.35,123.42 44.45,123.42 44.45,123.09 "/>
     <polygon id="379" class="fil225" points="160.35,123.31 160.35,123.64 44.45,123.64 44.45,123.31 "/>
     <polygon id="380" class="fil225" points="160.35,123.53 160.35,123.86 44.45,123.86 44.45,123.53 "/>
     <polygon id="381" class="fil226" points="160.35,123.75 160.35,124.08 44.45,124.08 44.45,123.75 "/>
     <polygon id="382" class="fil226" points="160.35,123.97 160.35,124.3 44.45,124.3 44.45,123.97 "/>
     <polygon id="383" class="fil227" points="160.35,124.19 160.35,124.52 44.45,124.52 44.45,124.19 "/>
     <polygon id="384" class="fil227" points="160.35,124.41 160.35,124.74 44.45,124.74 44.45,124.41 "/>
     <polygon id="385" class="fil227" points="160.35,124.63 160.35,124.96 44.45,124.96 44.45,124.63 "/>
     <polygon id="386" class="fil228" points="160.35,124.85 160.35,125.18 44.45,125.18 44.45,124.85 "/>
     <polygon id="387" class="fil228" points="160.35,125.07 160.35,125.4 44.45,125.4 44.45,125.07 "/>
     <polygon id="388" class="fil229" points="160.35,125.29 160.35,125.62 44.45,125.62 44.45,125.29 "/>
     <polygon id="389" class="fil230" points="160.35,125.51 160.35,125.83 44.45,125.83 44.45,125.51 "/>
     <polygon id="390" class="fil231" points="160.35,125.73 160.35,126.05 44.45,126.05 44.45,125.73 "/>
     <polygon id="391" class="fil231" points="160.35,125.94 160.35,126.27 44.45,126.27 44.45,125.94 "/>
     <polygon id="392" class="fil232" points="160.35,126.16 160.35,126.49 44.45,126.49 44.45,126.16 "/>
     <polygon id="393" class="fil232" points="160.35,126.38 160.35,126.71 44.45,126.71 44.45,126.38 "/>
     <polygon id="394" class="fil232" points="160.35,126.6 160.35,126.93 44.45,126.93 44.45,126.6 "/>
     <polygon id="395" class="fil233" points="160.35,126.82 160.35,127.15 44.45,127.15 44.45,126.82 "/>
     <polygon id="396" class="fil233" points="160.35,127.04 160.35,127.37 44.45,127.37 44.45,127.04 "/>
     <polygon id="397" class="fil234" points="160.35,127.26 160.35,127.59 44.45,127.59 44.45,127.26 "/>
     <polygon id="398" class="fil234" points="160.35,127.48 160.35,127.81 44.45,127.81 44.45,127.48 "/>
     <polygon id="399" class="fil234" points="160.35,127.7 160.35,128.03 44.45,128.03 44.45,127.7 "/>
     <polygon id="400" class="fil235" points="160.35,127.92 160.35,128.25 44.45,128.25 44.45,127.92 "/>
     <polygon id="401" class="fil235" points="160.35,128.14 160.35,128.47 44.45,128.47 44.45,128.14 "/>
     <polygon id="402" class="fil236" points="160.35,128.36 160.35,128.69 44.45,128.69 44.45,128.36 "/>
     <polygon id="403" class="fil236" points="160.35,128.58 160.35,128.91 44.45,128.91 44.45,128.58 "/>
     <polygon id="404" class="fil236" points="160.35,128.8 160.35,129.13 44.45,129.13 44.45,128.8 "/>
     <polygon id="405" class="fil237" points="160.35,129.02 160.35,129.35 44.45,129.35 44.45,129.02 "/>
     <polygon id="406" class="fil237" points="160.35,129.24 160.35,129.57 44.45,129.57 44.45,129.24 "/>
     <polygon id="407" class="fil237" points="160.35,129.46 160.35,129.79 44.45,129.79 44.45,129.46 "/>
     <polygon id="408" class="fil238" points="160.35,129.68 160.35,130.01 44.45,130.01 44.45,129.68 "/>
     <polygon id="409" class="fil238" points="160.35,129.9 160.35,130.23 44.45,130.23 44.45,129.9 "/>
     <polygon id="410" class="fil239" points="160.35,130.12 160.35,130.45 44.45,130.45 44.45,130.12 "/>
     <polygon id="411" class="fil239" points="160.35,130.34 160.35,130.66 44.45,130.66 44.45,130.34 "/>
     <polygon id="412" class="fil239" points="160.35,130.56 160.35,130.88 44.45,130.88 44.45,130.56 "/>
     <polygon id="413" class="fil240" points="160.35,130.77 160.35,131.1 44.45,131.1 44.45,130.77 "/>
     <polygon id="414" class="fil240" points="160.35,130.99 160.35,131.32 44.45,131.32 44.45,130.99 "/>
     <polygon id="415" class="fil240" points="160.35,131.21 160.35,131.54 44.45,131.54 44.45,131.21 "/>
     <polygon id="416" class="fil241" points="160.35,131.43 160.35,131.76 44.45,131.76 44.45,131.43 "/>
     <polygon id="417" class="fil241" points="160.35,131.65 160.35,131.98 44.45,131.98 44.45,131.65 "/>
     <polygon id="418" class="fil241" points="160.35,131.87 160.35,132.2 44.45,132.2 44.45,131.87 "/>
     <polygon id="419" class="fil242" points="160.35,132.09 160.35,132.42 44.45,132.42 44.45,132.09 "/>
     <polygon id="420" class="fil242" points="160.35,132.31 160.35,132.64 44.45,132.64 44.45,132.31 "/>
     <polygon id="421" class="fil242" points="160.35,132.53 160.35,132.86 44.45,132.86 44.45,132.53 "/>
     <polygon id="422" class="fil242" points="160.35,132.75 160.35,133.08 44.45,133.08 44.45,132.75 "/>
     <polygon id="423" class="fil243" points="160.35,132.97 160.35,133.3 44.45,133.3 44.45,132.97 "/>
     <polygon id="424" class="fil243" points="160.35,133.19 160.35,133.52 44.45,133.52 44.45,133.19 "/>
     <polygon id="425" class="fil243" points="160.35,133.41 160.35,133.74 44.45,133.74 44.45,133.41 "/>
     <polygon id="426" class="fil244" points="160.35,133.63 160.35,133.96 44.45,133.96 44.45,133.63 "/>
     <polygon id="427" class="fil244" points="160.35,133.85 160.35,134.18 44.45,134.18 44.45,133.85 "/>
     <polygon id="428" class="fil244" points="160.35,134.07 160.35,134.4 44.45,134.4 44.45,134.07 "/>
     <polygon id="429" class="fil244" points="160.35,134.29 160.35,134.62 44.45,134.62 44.45,134.29 "/>
     <polygon id="430" class="fil245" points="160.35,134.51 160.35,134.84 44.45,134.84 44.45,134.51 "/>
     <polygon id="431" class="fil245" points="160.35,134.73 160.35,135.06 44.45,135.06 44.45,134.73 "/>
     <polygon id="432" class="fil245" points="160.35,134.95 160.35,135.28 44.45,135.28 44.45,134.95 "/>
     <polygon id="433" class="fil246" points="160.35,135.17 160.35,135.5 44.45,135.5 44.45,135.17 "/>
     <polygon id="434" class="fil246" points="160.35,135.39 160.35,135.71 44.45,135.71 44.45,135.39 "/>
     <polygon id="435" class="fil246" points="160.35,135.6 160.35,135.93 44.45,135.93 44.45,135.6 "/>
     <polygon id="436" class="fil246" points="160.35,135.82 160.35,136.15 44.45,136.15 44.45,135.82 "/>
     <polygon id="437" class="fil246" points="160.35,136.04 160.35,136.37 44.45,136.37 44.45,136.04 "/>
     <polygon id="438" class="fil247" points="160.35,136.26 160.35,136.59 44.45,136.59 44.45,136.26 "/>
     <polygon id="439" class="fil247" points="160.35,136.48 160.35,136.81 44.45,136.81 44.45,136.48 "/>
     <polygon id="440" class="fil247" points="160.35,136.7 160.35,137.03 44.45,137.03 44.45,136.7 "/>
     <polygon id="441" class="fil247" points="160.35,136.92 160.35,137.25 44.45,137.25 44.45,136.92 "/>
     <polygon id="442" class="fil248" points="160.35,137.14 160.35,137.47 44.45,137.47 44.45,137.14 "/>
     <polygon id="443" class="fil248" points="160.35,137.36 160.35,137.69 44.45,137.69 44.45,137.36 "/>
     <polygon id="444" class="fil248" points="160.35,137.58 160.35,137.91 44.45,137.91 44.45,137.58 "/>
     <polygon id="445" class="fil248" points="160.35,137.8 160.35,138.13 44.45,138.13 44.45,137.8 "/>
     <polygon id="446" class="fil249" points="160.35,138.02 160.35,138.35 44.45,138.35 44.45,138.02 "/>
     <polygon id="447" class="fil249" points="160.35,138.24 160.35,138.57 44.45,138.57 44.45,138.24 "/>
     <polygon id="448" class="fil249" points="160.35,138.46 160.35,138.79 44.45,138.79 44.45,138.46 "/>
     <polygon id="449" class="fil249" points="160.35,138.68 160.35,139.01 44.45,139.01 44.45,138.68 "/>
     <polygon id="450" class="fil249" points="160.35,138.9 160.35,139.23 44.45,139.23 44.45,138.9 "/>
     <polygon id="451" class="fil250" points="160.35,139.12 160.35,139.45 44.45,139.45 44.45,139.12 "/>
     <polygon id="452" class="fil250" points="160.35,139.34 160.35,139.67 44.45,139.67 44.45,139.34 "/>
     <polygon id="453" class="fil250" points="160.35,139.56 160.35,139.89 44.45,139.89 44.45,139.56 "/>
     <polygon id="454" class="fil250" points="160.35,139.78 160.35,140.11 44.45,140.11 44.45,139.78 "/>
     <polygon id="455" class="fil250" points="160.35,140 160.35,140.33 44.45,140.33 44.45,140 "/>
     <polygon id="456" class="fil250" points="160.35,140.22 160.35,140.54 44.45,140.54 44.45,140.22 "/>
     <polygon id="457" class="fil251" points="160.35,140.44 160.35,140.76 44.45,140.76 44.45,140.44 "/>
     <polygon id="458" class="fil251" points="160.35,140.65 160.35,140.98 44.45,140.98 44.45,140.65 "/>
     <polygon id="459" class="fil251" points="160.35,140.87 160.35,141.2 44.45,141.2 44.45,140.87 "/>
     <polygon id="460" class="fil251" points="160.35,141.09 160.35,141.42 44.45,141.42 44.45,141.09 "/>
     <polygon id="461" class="fil251" points="160.35,141.31 160.35,141.64 44.45,141.64 44.45,141.31 "/>
     <polygon id="462" class="fil251" points="160.35,141.53 160.35,141.86 44.45,141.86 44.45,141.53 "/>
     <polygon id="463" class="fil252" points="160.35,141.75 160.35,142.08 44.45,142.08 44.45,141.75 "/>
     <polygon id="464" class="fil252" points="160.35,141.97 160.35,142.3 44.45,142.3 44.45,141.97 "/>
     <polygon id="465" class="fil252" points="160.35,142.19 160.35,142.52 44.45,142.52 44.45,142.19 "/>
     <polygon id="466" class="fil252" points="160.35,142.41 160.35,142.74 44.45,142.74 44.45,142.41 "/>
     <polygon id="467" class="fil252" points="160.35,142.63 160.35,142.96 44.45,142.96 44.45,142.63 "/>
     <polygon id="468" class="fil252" points="160.35,142.85 160.35,143.18 44.45,143.18 44.45,142.85 "/>
     <polygon id="469" class="fil252" points="160.35,143.07 160.35,143.4 44.45,143.4 44.45,143.07 "/>
     <polygon id="470" class="fil253" points="160.35,143.29 160.35,143.62 44.45,143.62 44.45,143.29 "/>
     <polygon id="471" class="fil253" points="160.35,143.51 160.35,143.84 44.45,143.84 44.45,143.51 "/>
     <polygon id="472" class="fil253" points="160.35,143.73 160.35,144.06 44.45,144.06 44.45,143.73 "/>
     <polygon id="473" class="fil253" points="160.35,143.95 160.35,144.28 44.45,144.28 44.45,143.95 "/>
     <polygon id="474" class="fil253" points="160.35,144.17 160.35,144.5 44.45,144.5 44.45,144.17 "/>
     <polygon id="475" class="fil253" points="160.35,144.39 160.35,144.72 44.45,144.72 44.45,144.39 "/>
     <polygon id="476" class="fil253" points="160.35,144.61 160.35,144.94 44.45,144.94 44.45,144.61 "/>
     <polygon id="477" class="fil253" points="160.35,144.83 160.35,145.16 44.45,145.16 44.45,144.83 "/>
     <polygon id="478" class="fil253" points="160.35,145.05 160.35,145.37 44.45,145.37 44.45,145.05 "/>
     <polygon id="479" class="fil254" points="160.35,145.27 160.35,145.59 44.45,145.59 44.45,145.27 "/>
     <polygon id="480" class="fil254" points="160.35,145.48 160.35,145.81 44.45,145.81 44.45,145.48 "/>
     <polygon id="481" class="fil254" points="160.35,145.7 160.35,146.03 44.45,146.03 44.45,145.7 "/>
     <polygon id="482" class="fil254" points="160.35,145.92 160.35,146.25 44.45,146.25 44.45,145.92 "/>
     <polygon id="483" class="fil254" points="160.35,146.14 160.35,146.47 44.45,146.47 44.45,146.14 "/>
     <polygon id="484" class="fil254" points="160.35,146.36 160.35,146.69 44.45,146.69 44.45,146.36 "/>
     <polygon id="485" class="fil254" points="160.35,146.58 160.35,146.91 44.45,146.91 44.45,146.58 "/>
     <polygon id="486" class="fil254" points="160.35,146.8 160.35,147.13 44.45,147.13 44.45,146.8 "/>
     <polygon id="487" class="fil254" points="160.35,147.02 160.35,147.35 44.45,147.35 44.45,147.02 "/>
     <polygon id="488" class="fil254" points="160.35,147.24 160.35,147.57 44.45,147.57 44.45,147.24 "/>
     <polygon id="489" class="fil254" points="160.35,147.46 160.35,147.79 44.45,147.79 44.45,147.46 "/>
     <polygon id="490" class="fil254" points="160.35,147.68 160.35,148.01 44.45,148.01 44.45,147.68 "/>
     <polygon id="491" class="fil254" points="160.35,147.9 160.35,148.23 44.45,148.23 44.45,147.9 "/>
     <polygon id="492" class="fil254" points="160.35,148.12 160.35,148.45 44.45,148.45 44.45,148.12 "/>
     <polygon id="493" class="fil255" points="160.35,148.34 160.35,148.67 44.45,148.67 44.45,148.34 "/>
     <polygon id="494" class="fil255" points="160.35,148.56 160.35,148.89 44.45,148.89 44.45,148.56 "/>
     <polygon id="495" class="fil255" points="160.35,148.78 160.35,149.11 44.45,149.11 44.45,148.78 "/>
     <polygon id="496" class="fil255" points="160.35,149 160.35,149.33 44.45,149.33 44.45,149 "/>
     <polygon id="497" class="fil255" points="160.35,149.22 160.35,149.55 44.45,149.55 44.45,149.22 "/>
     <polygon id="498" class="fil255" points="160.35,149.44 160.35,149.77 44.45,149.77 44.45,149.44 "/>
     <polygon id="499" class="fil255" points="160.35,149.66 160.35,149.99 44.45,149.99 44.45,149.66 "/>
     <polygon id="500" class="fil255" points="160.35,149.88 160.35,150.2 44.45,150.2 44.45,149.88 "/>
     <polygon id="501" class="fil255" points="160.35,150.09 160.35,150.42 44.45,150.42 44.45,150.09 "/>
     <polygon id="502" class="fil255" points="160.35,150.31 160.35,150.64 44.45,150.64 44.45,150.31 "/>
     <polygon id="503" class="fil255" points="160.35,150.53 160.35,150.86 44.45,150.86 44.45,150.53 "/>
     <polygon id="504" class="fil255" points="160.35,150.75 160.35,151.08 44.45,151.08 44.45,150.75 "/>
     <polygon id="505" class="fil255" points="160.35,150.97 160.35,151.3 44.45,151.3 44.45,150.97 "/>
     <polygon id="506" class="fil255" points="160.35,151.19 160.35,151.52 44.45,151.52 44.45,151.19 "/>
     <polygon id="507" class="fil255" points="160.35,151.41 160.35,151.74 44.45,151.74 44.45,151.41 "/>
     <polygon id="508" class="fil255" points="160.35,151.63 160.35,151.96 44.45,151.96 44.45,151.63 "/>
     <polygon id="509" class="fil255" points="160.35,151.85 160.35,152.18 44.45,152.18 44.45,151.85 "/>
     <polygon id="510" class="fil255" points="160.35,152.07 160.35,152.4 44.45,152.4 44.45,152.07 "/>
     <polygon id="511" class="fil255" points="160.35,152.29 160.35,154.9 44.45,154.9 44.45,152.29 "/>
    </g>
   </g>
   <path class="fil1" d="M101.53 94.47c-2.04,4.22 -4.55,8.17 -6.61,12.45 -1.67,3.47 -4.15,8.72 -3.12,12.62 2.56,9.7 19.43,8.66 19.47,-2.8 0.02,-4.27 -2.93,-9.23 -4.85,-12.99 -1.55,-3.05 -3.15,-6.07 -4.68,-9.13 -0.07,-0.13 -0.06,-0.19 -0.15,-0.25l-0.06 0.1z"/>
   <circle class="fil1 str1" cx="44.23" cy="161.87" r="9.56"/>
  </g>
 </g>
</svg>
